<svg width="152" height="144" viewBox="0 0 152 144" fill="none" xmlns="http://www.w3.org/2000/svg">
<g id="logo 2 1" clip-path="url(#clip0_11_1126)">
<g id="&#208;&#161;&#208;&#187;&#208;&#190;&#208;&#185; 1">
<path id="Vector" d="M7.35316 137.553V133.035L7.74056 133.068L8.03856 133.083L8.32166 133.068L8.72396 133.035V143.827L8.44334 143.804C8.38171 143.807 8.32001 143.802 8.25957 143.789H8.03856L7.71821 143.804L7.35316 143.834V138.413C7.00913 138.591 6.65506 138.747 6.29277 138.883C6.10652 138.956 5.90041 139.023 5.67691 139.086C5.45341 139.149 5.20756 139.211 4.93191 139.269C4.44709 139.361 3.95497 139.407 3.46177 139.407C2.92293 139.403 2.3885 139.309 1.87989 139.129C1.37026 138.963 0.907713 138.675 0.531437 138.29C0.356959 138.111 0.219973 137.899 0.128665 137.665C0.037356 137.431 -0.00640175 137.181 3.79205e-06 136.93V133.025L0.394853 133.058L0.690371 133.073L0.953604 133.058L1.3708 133.025V136.93C1.36566 137.198 1.44257 137.462 1.59102 137.684C1.73948 137.906 1.95224 138.077 2.20024 138.172C2.79183 138.446 3.43696 138.582 4.08757 138.569C4.67869 138.56 5.2649 138.459 5.82591 138.27C6.36775 138.11 6.88261 137.868 7.35316 137.553Z" fill="#F7F2EC"/>
<path id="Vector_2" d="M15.4687 132.794L20.1547 143.814L19.8195 143.792H19.7177C19.6743 143.79 19.6312 143.785 19.5885 143.777H19.3278H19.0794L18.8584 143.792L18.5083 143.822C18.2749 143.153 18.1018 142.667 17.9893 142.366C17.9148 142.155 17.8154 141.895 17.6938 141.581C17.4504 140.938 17.1756 140.269 16.8693 139.573H12.8959L12.5061 140.577L12.0417 141.809L11.6915 142.795L11.3563 143.842L11.1079 143.819C11.057 143.822 11.006 143.817 10.9565 143.804H10.7727H10.5964L10.4523 143.819L10.2239 143.85L15.0937 132.83L15.4687 132.794ZM16.6433 138.893L14.905 134.865L13.2014 138.893H16.6433Z" fill="#F7F2EC"/>
<path id="Vector_3" d="M23.0354 138.863V143.814L22.7548 143.792C22.6907 143.794 22.6265 143.789 22.5636 143.777H22.345L22.0346 143.792L21.6621 143.822V133.03H24.4583C25.2587 133.01 26.0584 133.094 26.8374 133.281C27.3392 133.393 27.7855 133.681 28.0964 134.094C28.3751 134.553 28.5093 135.086 28.4813 135.623C28.4996 136.167 28.3717 136.705 28.1113 137.181C27.8467 137.617 27.4675 137.97 27.0162 138.2C26.4247 138.5 25.793 138.71 25.1413 138.825C25.0394 138.845 24.8929 138.863 24.7439 138.878C24.5949 138.893 24.4112 138.9 24.2324 138.9H24.0958C24.0544 138.903 24.0129 138.903 23.9716 138.9H23.835H23.5867C23.5528 138.885 23.5168 138.875 23.4799 138.87H23.0379L23.0354 138.863ZM23.0354 133.628V138.248L23.7531 138.278L24.0958 138.263C24.2795 138.263 24.4385 138.248 24.5775 138.248C25.0435 138.21 25.4954 138.068 25.9012 137.834C26.2586 137.622 26.5529 137.317 26.7529 136.95C26.9543 136.564 27.0568 136.132 27.0509 135.696C27.0538 135.359 26.9896 135.025 26.8622 134.714C26.7439 134.422 26.5426 134.171 26.2836 133.994C25.9812 133.8 25.6353 133.686 25.2778 133.663L24.8209 133.648C24.5552 133.648 24.3093 133.633 24.0759 133.633H23.0304L23.0354 133.628Z" fill="#F7F2EC"/>
<path id="Vector_4" d="M31.7644 133.138V143.769H30.4084V133.138H31.7644Z" fill="#F7F2EC"/>
<path id="Vector_5" d="M32.9514 143.769H34.352V133.025H37.4934C38.1403 133.011 38.7863 133.081 39.4155 133.233C39.8645 133.333 40.2711 133.573 40.5777 133.919C40.8577 134.284 40.9987 134.739 40.9751 135.201C40.978 135.537 40.9155 135.871 40.7913 136.182C40.6696 136.483 40.4945 136.759 40.2748 136.995C40.0466 137.239 39.7817 137.444 39.49 137.603C39.1723 137.764 38.8396 137.892 38.4967 137.987C38.6524 137.988 38.8077 138.002 38.9611 138.029C39.139 138.061 39.3149 138.104 39.4875 138.157C39.8181 138.243 40.1304 138.39 40.4089 138.589C40.6896 138.782 40.9204 139.04 41.0819 139.342C41.2705 139.689 41.364 140.081 41.3525 140.476C41.3631 141.004 41.24 141.526 40.9949 141.993C40.7498 142.459 40.3908 142.855 39.9519 143.142C39.6557 143.333 39.3313 143.476 38.9909 143.566C38.6381 143.651 38.2795 143.71 37.9181 143.741L36.6516 143.774L32.9514 143.769ZM35.7253 133.612V137.761H36.2816C36.678 137.766 37.0744 137.746 37.4686 137.703C37.7919 137.666 38.1082 137.582 38.4073 137.452C38.7702 137.299 39.0773 137.036 39.2864 136.699C39.4977 136.355 39.6079 135.957 39.6043 135.552C39.624 135.146 39.5153 134.743 39.2938 134.403C39.0718 134.106 38.7567 133.893 38.3999 133.801C37.9278 133.674 37.4403 133.616 36.9521 133.628L35.7253 133.612ZM35.7253 138.381V143.184H37.2824C37.7528 143.193 38.2184 143.088 38.6407 142.878C39.0327 142.684 39.3605 142.379 39.5844 142C39.8084 141.621 39.9244 141.186 39.9197 140.745C39.9481 140.243 39.81 139.746 39.5273 139.332C39.2432 138.971 38.8511 138.713 38.4098 138.597C37.8436 138.441 37.2581 138.368 36.6714 138.381H35.7253Z" fill="#F7F2EC"/>
<path id="Vector_6" d="M51.5515 137.553V133.035L51.9464 133.068L52.2369 133.083L52.5101 133.068L52.9223 133.035V143.827L52.6392 143.804C52.5784 143.807 52.5176 143.802 52.4579 143.789H52.2369H52.001L51.8024 143.804L51.554 143.827V138.406L50.4539 138.376L49.1799 138.321H47.3572C47.2057 138.321 46.9747 138.321 46.6718 138.348C46.3688 138.376 46.1751 138.376 46.0758 138.376L44.9781 138.406V143.827L44.6975 143.804C44.6342 143.807 44.5709 143.802 44.5088 143.789H44.2878L43.9774 143.804L43.6049 143.835V133.043L43.9997 133.076L44.2878 133.091L44.5609 133.076L44.9781 133.043V137.56L48.2735 137.638C48.7404 137.618 49.2909 137.6 49.9249 137.585C50.5557 137.563 51.0971 137.553 51.5515 137.553Z" fill="#F7F2EC"/>
<path id="Vector_7" d="M55.741 143.814V133.023C55.966 133.065 56.1952 133.081 56.4239 133.07L57.1118 133.023V141.254H57.2732L64.3755 133.023H65.0609V143.814C64.8334 143.787 64.6046 143.772 64.3755 143.769C64.2216 143.769 63.9931 143.784 63.6876 143.814V135.204H63.5262L57.0199 142.851C56.6888 143.222 56.4197 143.543 56.2128 143.814H55.741Z" fill="#F7F2EC"/>
<path id="Vector_8" d="M67.8795 143.814V133.023C68.3343 133.086 68.7955 133.086 69.2503 133.023V141.254H69.4093L76.5141 133.025H77.1995V143.817C76.9719 143.79 76.7432 143.775 76.5141 143.772C76.3601 143.772 76.1316 143.787 75.8262 143.817V135.209H75.6673L73.3081 137.984L70.045 141.824L68.3513 143.817L67.8795 143.814ZM75.4537 131.083L75.8262 131.715C74.8507 132.306 73.735 132.618 72.5979 132.619C71.4674 132.618 70.3579 132.311 69.3844 131.73L69.7867 131.083C70.6281 131.615 71.6054 131.886 72.5979 131.863C73.6043 131.886 74.5959 131.615 75.4537 131.083Z" fill="#F7F2EC"/>
<path id="Vector_9" d="M94.5034 133.025H94.8312L95.1143 135.69C95.2153 136.694 95.3245 137.667 95.4421 138.609L95.745 141.167L96.0877 143.814L95.7823 143.792C95.7157 143.794 95.6491 143.789 95.5836 143.777H95.3552L95.0125 143.792L94.6251 143.822C94.6183 143.289 94.5826 142.757 94.5183 142.228C94.4761 141.899 94.4388 141.568 94.404 141.224L94.1954 139.091L94.0141 137.251C93.9446 136.526 93.88 135.997 93.8254 135.673C93.4479 136.35 93.1375 136.91 92.8942 137.352C92.5895 137.906 92.328 138.391 92.1094 138.807C91.9108 139.181 91.7593 139.472 91.6525 139.676C91.6177 139.749 91.4687 140.04 91.2105 140.547C91.0987 140.762 90.9621 141.049 90.7759 141.417C90.3786 142.234 90.0325 142.975 89.7378 143.641H89.564L88.7097 141.857C88.526 141.479 88.3074 141.032 88.0541 140.517C87.8207 140.05 87.5575 139.513 87.2396 138.923L85.5559 135.66C85.5087 136.072 85.4665 136.456 85.4293 136.815C85.392 137.174 85.3448 137.568 85.2902 137.992L85.0294 140.356L84.8407 142.467C84.8407 142.634 84.8333 142.867 84.8184 143.167C84.8035 143.466 84.796 143.682 84.796 143.814L84.5675 143.792C84.5183 143.794 84.4689 143.789 84.421 143.777H84.2472H84.0485L83.897 143.792L83.6835 143.814L84.1801 140.579L84.8059 136.092C85.0145 134.566 85.1437 133.544 85.1933 133.025H85.5981L86.7355 135.284L87.5252 136.825L88.6551 138.903C88.9233 139.39 89.1394 139.775 89.3033 140.06C89.5044 140.419 89.7453 140.828 90.0185 141.292L91.2229 139.073L92.8371 136.077L93.5324 134.807C93.7128 134.472 93.8983 134.138 94.0886 133.803C94.2451 133.479 94.3867 133.226 94.5034 133.025Z" fill="#F7F2EC"/>
<path id="Vector_10" d="M103.227 144C102.429 144.008 101.636 143.874 100.883 143.606C100.204 143.37 99.5845 142.987 99.0669 142.484C98.5492 141.981 98.1462 141.371 97.8856 140.695C97.7493 140.348 97.647 139.988 97.5802 139.621C97.5124 139.226 97.4792 138.826 97.4809 138.426C97.4719 137.635 97.6197 136.85 97.9154 136.117C98.1969 135.434 98.6204 134.819 99.1571 134.315C99.6878 133.826 100.308 133.446 100.982 133.196C101.711 132.927 102.481 132.792 103.257 132.799C104 132.799 104.739 132.906 105.452 133.118C106.142 133.32 106.787 133.654 107.352 134.102C107.917 134.553 108.371 135.13 108.678 135.788C109.022 136.54 109.192 137.36 109.175 138.188C109.198 139.247 108.94 140.294 108.43 141.219C107.934 142.095 107.2 142.807 106.314 143.272C105.361 143.771 104.3 144.021 103.227 144ZM107.628 138.306C107.632 137.865 107.608 137.425 107.553 136.988C107.496 136.609 107.395 136.239 107.253 135.884C107.101 135.507 106.897 135.153 106.647 134.835C106.396 134.515 106.096 134.238 105.758 134.014C105.138 133.618 104.432 133.381 103.701 133.324C102.97 133.268 102.236 133.392 101.563 133.688C101.023 133.932 100.546 134.3 100.17 134.762C99.7718 135.259 99.4762 135.831 99.3011 136.446C99.0968 137.146 98.9964 137.874 99.0031 138.604C98.9932 139.301 99.0998 139.994 99.3185 140.655C99.5119 141.229 99.8243 141.755 100.235 142.198C100.621 142.616 101.093 142.943 101.618 143.157C102.14 143.37 102.699 143.478 103.262 143.475C103.939 143.491 104.608 143.324 105.202 142.994C105.745 142.687 106.212 142.257 106.565 141.739C106.927 141.213 107.202 140.632 107.379 140.017C107.541 139.461 107.625 138.885 107.628 138.306Z" fill="#F7F2EC"/>
<path id="Vector_11" d="M121.378 133.025H121.706L121.989 135.691C122.09 136.694 122.199 137.667 122.317 138.609L122.62 141.167L122.962 143.814L122.657 143.792C122.59 143.794 122.524 143.789 122.458 143.777H122.23L121.887 143.792L121.5 143.822C121.492 143.289 121.456 142.757 121.393 142.228C121.351 141.899 121.313 141.568 121.279 141.224L121.07 139.091L120.889 137.252C120.819 136.526 120.755 135.997 120.7 135.673C120.323 136.351 120.012 136.91 119.769 137.352C119.462 137.906 119.201 138.391 118.984 138.808C118.785 139.181 118.634 139.473 118.527 139.676C118.492 139.749 118.343 140.04 118.085 140.547C117.973 140.763 117.837 141.049 117.65 141.418C117.253 142.234 116.907 142.975 116.612 143.641H116.439L115.574 141.859C115.391 141.481 115.172 141.034 114.919 140.519C114.685 140.052 114.422 139.515 114.104 138.925L112.418 135.663C112.373 136.074 112.331 136.458 112.294 136.817C112.257 137.176 112.209 137.57 112.155 137.994L111.907 140.343L111.718 142.454C111.718 142.621 111.71 142.855 111.695 143.154C111.681 143.454 111.673 143.67 111.673 143.802L111.445 143.779C111.395 143.781 111.346 143.776 111.298 143.764H111.124H110.926L110.774 143.779L110.561 143.802L111.057 140.567L111.683 136.08C111.892 134.554 112.021 133.531 112.07 133.013H112.475L113.613 135.271L114.402 136.812L115.532 138.89C115.8 139.377 116.016 139.763 116.18 140.047C116.381 140.406 116.622 140.815 116.896 141.28L118.1 139.061L119.714 136.064L120.409 134.795C120.592 134.46 120.777 134.125 120.966 133.791C121.12 133.479 121.261 133.226 121.378 133.025Z" fill="#F7F2EC"/>
<path id="Vector_12" d="M126.459 133.773V137.731H129.302L129.767 137.683L130.263 137.645L130.234 137.884L130.219 138.062L130.234 138.223L130.263 138.501L129.767 138.464L129.302 138.423H126.459V143.029L127.72 142.999C128.465 142.979 128.982 142.966 129.287 142.966C129.496 142.967 129.704 142.956 129.911 142.933C130.114 142.911 130.385 142.873 130.728 142.82L130.703 142.991L130.681 143.152V143.297C130.679 143.374 130.684 143.452 130.696 143.528L130.735 143.779H125.088V133.025H130.628L130.596 133.311L130.581 133.504L130.596 133.695L130.628 133.974C130.348 133.916 130.132 133.878 129.995 133.858C129.74 133.821 129.483 133.802 129.225 133.803L127.663 133.773H126.459Z" fill="#F7F2EC"/>
<path id="Vector_13" d="M140.852 137.553V133.035L141.25 133.068L141.538 133.083L141.813 133.068L142.226 133.035V143.827L141.943 143.804C141.881 143.807 141.819 143.802 141.759 143.789H141.538H141.302L141.106 143.804L140.857 143.827V138.406L139.76 138.376L138.486 138.321H136.658C136.504 138.321 136.276 138.321 135.97 138.348C135.665 138.376 135.473 138.376 135.377 138.376L134.276 138.406V143.827L133.996 143.804C133.933 143.807 133.869 143.802 133.807 143.789H133.589L133.278 143.804L132.906 143.835V133.043L133.3 133.076L133.589 133.091L133.859 133.076L134.276 133.043V137.56L137.572 137.638C138.041 137.618 138.59 137.6 139.223 137.585C139.856 137.57 140.408 137.553 140.852 137.553Z" fill="#F7F2EC"/>
<path id="Vector_14" d="M148.739 133.788V143.814C148.513 143.785 148.285 143.77 148.056 143.769C147.826 143.769 147.597 143.784 147.369 143.814V133.788C146.228 133.792 145.088 133.854 143.954 133.974L143.984 133.723L144.001 133.51V133.354L143.986 133.231L143.964 133.03H152.01L151.98 133.316L151.965 133.51L151.98 133.7L152.01 133.979L150.503 133.848C150.304 133.848 150.09 133.848 149.862 133.831C149.273 133.801 148.903 133.788 148.739 133.788Z" fill="#F7F2EC"/>
</g>
<g id="&#208;&#161;&#208;&#187;&#208;&#190;&#208;&#185; 2">
<path id="Vector_15" d="M116.98 61.6074C117.831 59.8279 118.256 57.8714 118.222 55.8954C118.222 53.8325 117.812 51.7971 117.77 49.7342C117.727 48.5418 117.857 47.3495 118.157 46.1955C118.176 46.1163 118.164 46.0328 118.122 45.9626C118.081 45.8925 118.015 45.8413 117.937 45.8197C117.86 45.7982 117.777 45.8081 117.706 45.8473C117.635 45.8866 117.582 45.952 117.559 46.0299C116.456 50.0303 118.085 54.0909 117.434 58.124C117.266 59.2241 116.931 60.2914 116.441 61.2887C116.262 61.6501 116.796 61.9663 116.978 61.6074H116.98Z" fill="#F7F2EC"/>
<path id="Vector_16" d="M116.923 61.8258C117.444 60.3351 118.393 59.0275 119.277 57.7401C120.205 56.443 121.009 55.0598 121.679 53.6091C122.347 52.0996 122.856 50.5232 123.198 48.906C123.551 47.217 123.645 45.5029 123.834 43.7913C124.059 41.8108 124.491 39.8599 125.123 37.9714C125.25 37.5899 124.651 37.4243 124.524 37.8057C123.966 39.4758 123.563 41.1948 123.32 42.9405C123.072 44.6847 123.027 46.4541 122.709 48.1832C122.41 49.8265 121.933 51.4315 121.286 52.9692C120.651 54.43 119.871 55.8217 118.957 57.1227C117.963 58.5632 116.908 60.0013 116.324 61.6702C116.193 62.0517 116.791 62.2148 116.923 61.8358V61.8258Z" fill="#F7F2EC"/>
<path id="Vector_17" d="M123.104 49.674C123.315 49.0667 123.871 48.6024 124.363 48.2234C124.855 47.8445 125.448 47.4706 125.992 47.1016C127.292 46.2072 128.38 45.0319 129.176 43.6609C129.217 43.589 129.229 43.5034 129.208 43.4229C129.187 43.3424 129.135 43.2736 129.064 43.2317C128.993 43.1898 128.908 43.1781 128.829 43.1993C128.749 43.2205 128.681 43.2728 128.639 43.3446C127.826 44.7276 126.705 45.9004 125.366 46.7703C124.316 47.468 122.948 48.236 122.505 49.5084C122.374 49.8899 122.972 50.053 123.104 49.674Z" fill="#F7F2EC"/>
<path id="Vector_18" d="M124.912 39.5599C125.854 39.5599 126.618 38.7879 126.618 37.8357C126.618 36.8835 125.854 36.1116 124.912 36.1116C123.97 36.1116 123.206 36.8835 123.206 37.8357C123.206 38.7879 123.97 39.5599 124.912 39.5599Z" fill="#F7F2EC"/>
<path id="Vector_19" d="M107.33 28.9515C108.272 28.9515 109.036 28.1795 109.036 27.2273C109.036 26.2751 108.272 25.5032 107.33 25.5032C106.388 25.5032 105.624 26.2751 105.624 27.2273C105.624 28.1795 106.388 28.9515 107.33 28.9515Z" fill="#F7F2EC"/>
<path id="Vector_20" d="M82.2878 6.26152C83.2301 6.26152 83.9939 5.4896 83.9939 4.53738C83.9939 3.58516 83.2301 2.81323 82.2878 2.81323C81.3456 2.81323 80.5818 3.58516 80.5818 4.53738C80.5818 5.4896 81.3456 6.26152 82.2878 6.26152Z" fill="#F7F2EC"/>
<path id="Vector_21" d="M36.3486 40.9705C37.2909 40.9705 38.0547 40.1986 38.0547 39.2464C38.0547 38.2941 37.2909 37.5222 36.3486 37.5222C35.4064 37.5222 34.6426 38.2941 34.6426 39.2464C34.6426 40.1986 35.4064 40.9705 36.3486 40.9705Z" fill="#F7F2EC"/>
<path id="Vector_22" d="M28.2455 44.2002C29.1877 44.2002 29.9515 43.4283 29.9515 42.4761C29.9515 41.5239 29.1877 40.752 28.2455 40.752C27.3033 40.752 26.5394 41.5239 26.5394 42.4761C26.5394 43.4283 27.3033 44.2002 28.2455 44.2002Z" fill="#F7F2EC"/>
<path id="Vector_23" d="M26.7034 48.1304C27.6456 48.1304 28.4094 47.3585 28.4094 46.4063C28.4094 45.4541 27.6456 44.6821 26.7034 44.6821C25.7611 44.6821 24.9973 45.4541 24.9973 46.4063C24.9973 47.3585 25.7611 48.1304 26.7034 48.1304Z" fill="#F7F2EC"/>
<path id="Vector_24" d="M15.1038 61.9512C16.046 61.9512 16.8098 61.1793 16.8098 60.2271C16.8098 59.2749 16.046 58.5029 15.1038 58.5029C14.1615 58.5029 13.3977 59.2749 13.3977 60.2271C13.3977 61.1793 14.1615 61.9512 15.1038 61.9512Z" fill="#F7F2EC"/>
<path id="Vector_25" d="M30.7189 55.948C31.6611 55.948 32.4249 55.1761 32.4249 54.2239C32.4249 53.2717 31.6611 52.4998 30.7189 52.4998C29.7766 52.4998 29.0128 53.2717 29.0128 54.2239C29.0128 55.1761 29.7766 55.948 30.7189 55.948Z" fill="#F7F2EC"/>
<path id="Vector_26" d="M41.6406 86.8348C42.5828 86.8348 43.3467 86.0628 43.3467 85.1106C43.3467 84.1584 42.5828 83.3865 41.6406 83.3865C40.6984 83.3865 39.9346 84.1584 39.9346 85.1106C39.9346 86.0628 40.6984 86.8348 41.6406 86.8348Z" fill="#F7F2EC"/>
<path id="Vector_27" d="M95.1416 9.30327C96.0838 9.30327 96.8476 8.53134 96.8476 7.57913C96.8476 6.62691 96.0838 5.85498 95.1416 5.85498C94.1994 5.85498 93.4355 6.62691 93.4355 7.57913C93.4355 8.53134 94.1994 9.30327 95.1416 9.30327Z" fill="#F7F2EC"/>
<path id="Vector_28" d="M107.668 19.0811C108.61 19.0811 109.374 18.3092 109.374 17.357C109.374 16.4047 108.61 15.6328 107.668 15.6328C106.725 15.6328 105.962 16.4047 105.962 17.357C105.962 18.3092 106.725 19.0811 107.668 19.0811Z" fill="#F7F2EC"/>
<path id="Vector_29" d="M74.6492 11.3411C75.5914 11.3411 76.3552 10.5692 76.3552 9.61697C76.3552 8.66475 75.5914 7.89282 74.6492 7.89282C73.7069 7.89282 72.9431 8.66475 72.9431 9.61697C72.9431 10.5692 73.7069 11.3411 74.6492 11.3411Z" fill="#F7F2EC"/>
<path id="Vector_30" d="M47.0618 15.0154C48.004 15.0154 48.7678 14.2435 48.7678 13.2913C48.7678 12.3391 48.004 11.5671 47.0618 11.5671C46.1195 11.5671 45.3557 12.3391 45.3557 13.2913C45.3557 14.2435 46.1195 15.0154 47.0618 15.0154Z" fill="#F7F2EC"/>
<path id="Vector_31" d="M95.8196 17.5C96.7618 17.5 97.5256 16.7281 97.5256 15.7759C97.5256 14.8237 96.7618 14.0518 95.8196 14.0518C94.8773 14.0518 94.1135 14.8237 94.1135 15.7759C94.1135 16.7281 94.8773 17.5 95.8196 17.5Z" fill="#F7F2EC"/>
<path id="Vector_32" d="M108.127 24.0928C109.069 24.0928 109.833 23.3209 109.833 22.3687C109.833 21.4165 109.069 20.6445 108.127 20.6445C107.185 20.6445 106.421 21.4165 106.421 22.3687C106.421 23.3209 107.185 24.0928 108.127 24.0928Z" fill="#F7F2EC"/>
<path id="Vector_33" d="M129.352 49.7869C130.294 49.7869 131.058 49.015 131.058 48.0628C131.058 47.1105 130.294 46.3386 129.352 46.3386C128.41 46.3386 127.646 47.1105 127.646 48.0628C127.646 49.015 128.41 49.7869 129.352 49.7869Z" fill="#F7F2EC"/>
<path id="Vector_34" d="M126.022 61.5171C126.964 61.5171 127.728 60.7452 127.728 59.793C127.728 58.8408 126.964 58.0688 126.022 58.0688C125.08 58.0688 124.316 58.8408 124.316 59.793C124.316 60.7452 125.08 61.5171 126.022 61.5171Z" fill="#F7F2EC"/>
<path id="Vector_35" d="M113.891 49.571C114.943 49.571 115.796 48.7092 115.796 47.6461C115.796 46.583 114.943 45.7212 113.891 45.7212C112.839 45.7212 111.986 46.583 111.986 47.6461C111.986 48.7092 112.839 49.571 113.891 49.571Z" fill="#F7F2EC"/>
<path id="Vector_36" d="M114.089 92.9155C115.141 92.9155 115.994 92.0537 115.994 90.9906C115.994 89.9275 115.141 89.0657 114.089 89.0657C113.037 89.0657 112.185 89.9275 112.185 90.9906C112.185 92.0537 113.037 92.9155 114.089 92.9155Z" fill="#F7F2EC"/>
<path id="Vector_37" d="M90.8802 108.064C91.9321 108.064 92.7849 107.202 92.7849 106.139C92.7849 105.076 91.9321 104.214 90.8802 104.214C89.8282 104.214 88.9755 105.076 88.9755 106.139C88.9755 107.202 89.8282 108.064 90.8802 108.064Z" fill="#F7F2EC"/>
<path id="Vector_38" d="M51.1767 106.568C52.2286 106.568 53.0814 105.707 53.0814 104.643C53.0814 103.58 52.2286 102.719 51.1767 102.719C50.1247 102.719 49.272 103.58 49.272 104.643C49.272 105.707 50.1247 106.568 51.1767 106.568Z" fill="#F7F2EC"/>
<path id="Vector_39" d="M114.157 44.2707C115.004 44.2707 115.691 43.5763 115.691 42.7197C115.691 41.8631 115.004 41.1687 114.157 41.1687C113.309 41.1687 112.622 41.8631 112.622 42.7197C112.622 43.5763 113.309 44.2707 114.157 44.2707Z" fill="#F7F2EC"/>
<path id="Vector_40" d="M105.445 36.7392C106.293 36.7392 106.98 36.0448 106.98 35.1882C106.98 34.3316 106.293 33.6372 105.445 33.6372C104.597 33.6372 103.91 34.3316 103.91 35.1882C103.91 36.0448 104.597 36.7392 105.445 36.7392Z" fill="#F7F2EC"/>
<path id="Vector_41" d="M84.8084 17.6581C85.656 17.6581 86.3431 16.9637 86.3431 16.1071C86.3431 15.2505 85.656 14.5562 84.8084 14.5562C83.9608 14.5562 83.2737 15.2505 83.2737 16.1071C83.2737 16.9637 83.9608 17.6581 84.8084 17.6581Z" fill="#F7F2EC"/>
<path id="Vector_42" d="M86.8249 7.70962C87.6725 7.70962 88.3596 7.01523 88.3596 6.15864C88.3596 5.30206 87.6725 4.60767 86.8249 4.60767C85.9773 4.60767 85.2902 5.30206 85.2902 6.15864C85.2902 7.01523 85.9773 7.70962 86.8249 7.70962Z" fill="#F7F2EC"/>
<path id="Vector_43" d="M78.4388 7.32583C79.2863 7.32583 79.9735 6.63144 79.9735 5.77485C79.9735 4.91827 79.2863 4.22388 78.4388 4.22388C77.5912 4.22388 76.9041 4.91827 76.9041 5.77485C76.9041 6.63144 77.5912 7.32583 78.4388 7.32583Z" fill="#F7F2EC"/>
<path id="Vector_44" d="M74.5845 19.3671C75.4321 19.3671 76.1192 18.6727 76.1192 17.8161C76.1192 16.9595 75.4321 16.2651 74.5845 16.2651C73.7369 16.2651 73.0498 16.9595 73.0498 17.8161C73.0498 18.6727 73.7369 19.3671 74.5845 19.3671Z" fill="#F7F2EC"/>
<path id="Vector_45" d="M39.0331 21.3549C39.8807 21.3549 40.5678 20.6605 40.5678 19.8039C40.5678 18.9473 39.8807 18.2529 39.0331 18.2529C38.1855 18.2529 37.4984 18.9473 37.4984 19.8039C37.4984 20.6605 38.1855 21.3549 39.0331 21.3549Z" fill="#F7F2EC"/>
<path id="Vector_46" d="M28.9682 25.9777C29.8158 25.9777 30.5029 25.2833 30.5029 24.4267C30.5029 23.5701 29.8158 22.8757 28.9682 22.8757C28.1206 22.8757 27.4335 23.5701 27.4335 24.4267C27.4335 25.2833 28.1206 25.9777 28.9682 25.9777Z" fill="#F7F2EC"/>
<path id="Vector_47" d="M16.2262 40.8424C17.0738 40.8424 17.7609 40.148 17.7609 39.2915C17.7609 38.4349 17.0738 37.7405 16.2262 37.7405C15.3786 37.7405 14.6915 38.4349 14.6915 39.2915C14.6915 40.148 15.3786 40.8424 16.2262 40.8424Z" fill="#F7F2EC"/>
<path id="Vector_48" d="M28.2505 16.7145C29.0981 16.7145 29.7852 16.0201 29.7852 15.1635C29.7852 14.3069 29.0981 13.6125 28.2505 13.6125C27.4029 13.6125 26.7158 14.3069 26.7158 15.1635C26.7158 16.0201 27.4029 16.7145 28.2505 16.7145Z" fill="#F7F2EC"/>
<path id="Vector_49" d="M66.5783 6.99697C67.4259 6.99697 68.113 6.30258 68.113 5.446C68.113 4.58942 67.4259 3.89502 66.5783 3.89502C65.7307 3.89502 65.0436 4.58942 65.0436 5.446C65.0436 6.30258 65.7307 6.99697 66.5783 6.99697Z" fill="#F7F2EC"/>
<path id="Vector_50" d="M63.4617 18.8778C64.3093 18.8778 64.9964 18.1834 64.9964 17.3269C64.9964 16.4703 64.3093 15.7759 63.4617 15.7759C62.6141 15.7759 61.927 16.4703 61.927 17.3269C61.927 18.1834 62.6141 18.8778 63.4617 18.8778Z" fill="#F7F2EC"/>
<path id="Vector_51" d="M51.5988 5.67447C52.4464 5.67447 53.1335 4.98007 53.1335 4.12349C53.1335 3.26691 52.4464 2.57251 51.5988 2.57251C50.7512 2.57251 50.0641 3.26691 50.0641 4.12349C50.0641 4.98007 50.7512 5.67447 51.5988 5.67447Z" fill="#F7F2EC"/>
<path id="Vector_52" d="M49.5501 10.3849C50.3977 10.3849 51.0848 9.69052 51.0848 8.83394C51.0848 7.97736 50.3977 7.28296 49.5501 7.28296C48.7025 7.28296 48.0154 7.97736 48.0154 8.83394C48.0154 9.69052 48.7025 10.3849 49.5501 10.3849Z" fill="#F7F2EC"/>
<path id="Vector_53" d="M32.9589 7.17007C33.8065 7.17007 34.4936 6.47567 34.4936 5.61909C34.4936 4.76251 33.8065 4.06812 32.9589 4.06812C32.1113 4.06812 31.4242 4.76251 31.4242 5.61909C31.4242 6.47567 32.1113 7.17007 32.9589 7.17007Z" fill="#F7F2EC"/>
<path id="Vector_54" d="M29.1247 12.9977C29.9723 12.9977 30.6594 12.3033 30.6594 11.4467C30.6594 10.5901 29.9723 9.89575 29.1247 9.89575C28.2771 9.89575 27.59 10.5901 27.59 11.4467C27.59 12.3033 28.2771 12.9977 29.1247 12.9977Z" fill="#F7F2EC"/>
<path id="Vector_55" d="M117.879 90.2353C118.727 90.2353 119.414 89.5409 119.414 88.6843C119.414 87.8277 118.727 87.1333 117.879 87.1333C117.031 87.1333 116.344 87.8277 116.344 88.6843C116.344 89.5409 117.031 90.2353 117.879 90.2353Z" fill="#F7F2EC"/>
<path id="Vector_56" d="M118.855 95.2169C119.703 95.2169 120.39 94.5225 120.39 93.666C120.39 92.8094 119.703 92.115 118.855 92.115C118.007 92.115 117.32 92.8094 117.32 93.666C117.32 94.5225 118.007 95.2169 118.855 95.2169Z" fill="#F7F2EC"/>
<path id="Vector_57" d="M120.372 99.1244C121.22 99.1244 121.907 98.43 121.907 97.5734C121.907 96.7169 121.22 96.0225 120.372 96.0225C119.525 96.0225 118.838 96.7169 118.838 97.5734C118.838 98.43 119.525 99.1244 120.372 99.1244Z" fill="#F7F2EC"/>
<path id="Vector_58" d="M127.067 57.06C127.915 57.06 128.602 56.3656 128.602 55.509C128.602 54.6524 127.915 53.958 127.067 53.958C126.22 53.958 125.533 54.6524 125.533 55.509C125.533 56.3656 126.22 57.06 127.067 57.06Z" fill="#F7F2EC"/>
<path id="Vector_59" d="M123.01 64.9779C123.857 64.9779 124.544 64.2835 124.544 63.427C124.544 62.5704 123.857 61.876 123.01 61.876C122.162 61.876 121.475 62.5704 121.475 63.427C121.475 64.2835 122.162 64.9779 123.01 64.9779Z" fill="#F7F2EC"/>
<path id="Vector_60" d="M120.377 70.5819C121.225 70.5819 121.912 69.8875 121.912 69.031C121.912 68.1744 121.225 67.48 120.377 67.48C119.53 67.48 118.843 68.1744 118.843 69.031C118.843 69.8875 119.53 70.5819 120.377 70.5819Z" fill="#F7F2EC"/>
<path id="Vector_61" d="M109.696 85.4818C110.544 85.4818 111.231 84.7874 111.231 83.9309C111.231 83.0743 110.544 82.3799 109.696 82.3799C108.849 82.3799 108.162 83.0743 108.162 83.9309C108.162 84.7874 108.849 85.4818 109.696 85.4818Z" fill="#F7F2EC"/>
<path id="Vector_62" d="M114.514 88.0771C115.362 88.0771 116.049 87.3827 116.049 86.5261C116.049 85.6695 115.362 84.9751 114.514 84.9751C113.666 84.9751 112.979 85.6695 112.979 86.5261C112.979 87.3827 113.666 88.0771 114.514 88.0771Z" fill="#F7F2EC"/>
<path id="Vector_63" d="M118.78 104.237C119.628 104.237 120.315 103.542 120.315 102.686C120.315 101.829 119.628 101.135 118.78 101.135C117.933 101.135 117.246 101.829 117.246 102.686C117.246 103.542 117.933 104.237 118.78 104.237Z" fill="#F7F2EC"/>
<path id="Vector_64" d="M106.384 105.002C107.231 105.002 107.918 104.308 107.918 103.451C107.918 102.595 107.231 101.9 106.384 101.9C105.536 101.9 104.849 102.595 104.849 103.451C104.849 104.308 105.536 105.002 106.384 105.002Z" fill="#F7F2EC"/>
<path id="Vector_65" d="M86.6263 106.144C87.4738 106.144 88.161 105.45 88.161 104.593C88.161 103.737 87.4738 103.042 86.6263 103.042C85.7787 103.042 85.0916 103.737 85.0916 104.593C85.0916 105.45 85.7787 106.144 86.6263 106.144Z" fill="#F7F2EC"/>
<path id="Vector_66" d="M65.0287 118.883C65.8763 118.883 66.5634 118.189 66.5634 117.332C66.5634 116.476 65.8763 115.781 65.0287 115.781C64.1811 115.781 63.494 116.476 63.494 117.332C63.494 118.189 64.1811 118.883 65.0287 118.883Z" fill="#F7F2EC"/>
<path id="Vector_67" d="M38.6382 101.361C39.4858 101.361 40.1729 100.666 40.1729 99.8098C40.1729 98.9532 39.4858 98.2588 38.6382 98.2588C37.7906 98.2588 37.1035 98.9532 37.1035 99.8098C37.1035 100.666 37.7906 101.361 38.6382 101.361Z" fill="#F7F2EC"/>
<path id="Vector_68" d="M64.5072 106.852C65.3548 106.852 66.0419 106.157 66.0419 105.301C66.0419 104.444 65.3548 103.75 64.5072 103.75C63.6596 103.75 62.9725 104.444 62.9725 105.301C62.9725 106.157 63.6596 106.852 64.5072 106.852Z" fill="#F7F2EC"/>
<path id="Vector_69" d="M63.4593 103.087C64.3069 103.087 64.994 102.393 64.994 101.536C64.994 100.68 64.3069 99.9854 63.4593 99.9854C62.6117 99.9854 61.9246 100.68 61.9246 101.536C61.9246 102.393 62.6117 103.087 63.4593 103.087Z" fill="#F7F2EC"/>
<path id="Vector_70" d="M86.0078 116.21C86.8554 116.21 87.5425 115.516 87.5425 114.659C87.5425 113.803 86.8554 113.108 86.0078 113.108C85.1603 113.108 84.4731 113.803 84.4731 114.659C84.4731 115.516 85.1603 116.21 86.0078 116.21Z" fill="#F7F2EC"/>
<path id="Vector_71" d="M67.9888 115.545C68.8364 115.545 69.5235 114.851 69.5235 113.994C69.5235 113.138 68.8364 112.443 67.9888 112.443C67.1412 112.443 66.4541 113.138 66.4541 113.994C66.4541 114.851 67.1412 115.545 67.9888 115.545Z" fill="#F7F2EC"/>
<path id="Vector_72" d="M71.7735 113.216C72.6211 113.216 73.3082 112.522 73.3082 111.665C73.3082 110.809 72.6211 110.115 71.7735 110.115C70.9259 110.115 70.2388 110.809 70.2388 111.665C70.2388 112.522 70.9259 113.216 71.7735 113.216Z" fill="#F7F2EC"/>
<path id="Vector_73" d="M55.3561 116.138C56.2037 116.138 56.8908 115.443 56.8908 114.587C56.8908 113.73 56.2037 113.036 55.3561 113.036C54.5085 113.036 53.8214 113.73 53.8214 114.587C53.8214 115.443 54.5085 116.138 55.3561 116.138Z" fill="#F7F2EC"/>
<path id="Vector_74" d="M53.2503 112.35C54.0979 112.35 54.785 111.656 54.785 110.8C54.785 109.943 54.0979 109.249 53.2503 109.249C52.4027 109.249 51.7156 109.943 51.7156 110.8C51.7156 111.656 52.4027 112.35 53.2503 112.35Z" fill="#F7F2EC"/>
<path id="Vector_75" d="M38.241 107.143C39.0886 107.143 39.7757 106.449 39.7757 105.592C39.7757 104.735 39.0886 104.041 38.241 104.041C37.3934 104.041 36.7063 104.735 36.7063 105.592C36.7063 106.449 37.3934 107.143 38.241 107.143Z" fill="#F7F2EC"/>
<path id="Vector_76" d="M31.2355 78.3219C32.0831 78.3219 32.7702 77.6275 32.7702 76.7709C32.7702 75.9144 32.0831 75.22 31.2355 75.22C30.3879 75.22 29.7008 75.9144 29.7008 76.7709C29.7008 77.6275 30.3879 78.3219 31.2355 78.3219Z" fill="#F7F2EC"/>
<path id="Vector_77" d="M24.9601 76.0607C25.8077 76.0607 26.4948 75.3663 26.4948 74.5097C26.4948 73.6531 25.8077 72.9587 24.9601 72.9587C24.1125 72.9587 23.4254 73.6531 23.4254 74.5097C23.4254 75.3663 24.1125 76.0607 24.9601 76.0607Z" fill="#F7F2EC"/>
<path id="Vector_78" d="M22.6928 50.6352C23.5404 50.6352 24.2275 49.9408 24.2275 49.0842C24.2275 48.2276 23.5404 47.5332 22.6928 47.5332C21.8452 47.5332 21.1581 48.2276 21.1581 49.0842C21.1581 49.9408 21.8452 50.6352 22.6928 50.6352Z" fill="#F7F2EC"/>
<path id="Vector_79" d="M14.381 71.1466C15.2286 71.1466 15.9157 70.4522 15.9157 69.5957C15.9157 68.7391 15.2286 68.0447 14.381 68.0447C13.5334 68.0447 12.8463 68.7391 12.8463 69.5957C12.8463 70.4522 13.5334 71.1466 14.381 71.1466Z" fill="#F7F2EC"/>
<path id="Vector_80" d="M25.3301 54.8815C26.1777 54.8815 26.8648 54.1871 26.8648 53.3305C26.8648 52.4739 26.1777 51.7795 25.3301 51.7795C24.4825 51.7795 23.7954 52.4739 23.7954 53.3305C23.7954 54.1871 24.4825 54.8815 25.3301 54.8815Z" fill="#F7F2EC"/>
<path id="Vector_81" d="M129.004 44.3233C129.591 44.3233 130.067 43.8424 130.067 43.2492C130.067 42.656 129.591 42.175 129.004 42.175C128.417 42.175 127.942 42.656 127.942 43.2492C127.942 43.8424 128.417 44.3233 129.004 44.3233Z" fill="#F7F2EC"/>
<path id="Vector_82" d="M118.103 46.4115C118.69 46.4115 119.165 45.9306 119.165 45.3373C119.165 44.7441 118.69 44.2632 118.103 44.2632C117.516 44.2632 117.04 44.7441 117.04 45.3373C117.04 45.9306 117.516 46.4115 118.103 46.4115Z" fill="#F7F2EC"/>
<path id="Vector_83" d="M125.632 66.6319C126.219 66.6319 126.695 66.151 126.695 65.5578C126.695 64.9646 126.219 64.4836 125.632 64.4836C125.045 64.4836 124.569 64.9646 124.569 65.5578C124.569 66.151 125.045 66.6319 125.632 66.6319Z" fill="#F7F2EC"/>
<path id="Vector_84" d="M122.957 72.1229C123.544 72.1229 124.02 71.642 124.02 71.0487C124.02 70.4555 123.544 69.9746 122.957 69.9746C122.37 69.9746 121.895 70.4555 121.895 71.0487C121.895 71.642 122.37 72.1229 122.957 72.1229Z" fill="#F7F2EC"/>
<path id="Vector_85" d="M126.913 81.5067C127.5 81.5067 127.976 81.0258 127.976 80.4325C127.976 79.8393 127.5 79.3584 126.913 79.3584C126.326 79.3584 125.851 79.8393 125.851 80.4325C125.851 81.0258 126.326 81.5067 126.913 81.5067Z" fill="#F7F2EC"/>
<path id="Vector_86" d="M129.345 40.1724C129.761 40.1724 130.099 39.8308 130.099 39.4094C130.099 38.9881 129.761 38.6465 129.345 38.6465C128.928 38.6465 128.59 38.9881 128.59 39.4094C128.59 39.8308 128.928 40.1724 129.345 40.1724Z" fill="#F7F2EC"/>
<path id="Vector_87" d="M132.325 43.5027C132.742 43.5027 133.08 43.1611 133.08 42.7397C133.08 42.3184 132.742 41.9768 132.325 41.9768C131.908 41.9768 131.57 42.3184 131.57 42.7397C131.57 43.1611 131.908 43.5027 132.325 43.5027Z" fill="#F7F2EC"/>
<path id="Vector_88" d="M120.315 36.8997C120.732 36.8997 121.07 36.5581 121.07 36.1367C121.07 35.7154 120.732 35.3738 120.315 35.3738C119.898 35.3738 119.56 35.7154 119.56 36.1367C119.56 36.5581 119.898 36.8997 120.315 36.8997Z" fill="#F7F2EC"/>
<path id="Vector_89" d="M116.267 34.0562C116.684 34.0562 117.022 33.7146 117.022 33.2932C117.022 32.8719 116.684 32.5303 116.267 32.5303C115.85 32.5303 115.512 32.8719 115.512 33.2932C115.512 33.7146 115.85 34.0562 116.267 34.0562Z" fill="#F7F2EC"/>
<path id="Vector_90" d="M118.537 33.459C118.954 33.459 119.292 33.1174 119.292 32.696C119.292 32.2747 118.954 31.9331 118.537 31.9331C118.12 31.9331 117.782 32.2747 117.782 32.696C117.782 33.1174 118.12 33.459 118.537 33.459Z" fill="#F7F2EC"/>
<path id="Vector_91" d="M108.765 35.1831C109.182 35.1831 109.52 34.8415 109.52 34.4202C109.52 33.9988 109.182 33.6572 108.765 33.6572C108.348 33.6572 108.01 33.9988 108.01 34.4202C108.01 34.8415 108.348 35.1831 108.765 35.1831Z" fill="#F7F2EC"/>
<path id="Vector_92" d="M108.909 31.8152C109.326 31.8152 109.664 31.4736 109.664 31.0522C109.664 30.6309 109.326 30.2893 108.909 30.2893C108.492 30.2893 108.154 30.6309 108.154 31.0522C108.154 31.4736 108.492 31.8152 108.909 31.8152Z" fill="#F7F2EC"/>
<path id="Vector_93" d="M110.374 21.3147C110.791 21.3147 111.129 20.9731 111.129 20.5518C111.129 20.1304 110.791 19.7888 110.374 19.7888C109.957 19.7888 109.62 20.1304 109.62 20.5518C109.62 20.9731 109.957 21.3147 110.374 21.3147Z" fill="#F7F2EC"/>
<path id="Vector_94" d="M111.425 19.0435C111.842 19.0435 112.18 18.7019 112.18 18.2805C112.18 17.8592 111.842 17.5176 111.425 17.5176C111.008 17.5176 110.67 17.8592 110.67 18.2805C110.67 18.7019 111.008 19.0435 111.425 19.0435Z" fill="#F7F2EC"/>
<path id="Vector_95" d="M105.403 13.6025C105.82 13.6025 106.158 13.261 106.158 12.8396C106.158 12.4182 105.82 12.0767 105.403 12.0767C104.986 12.0767 104.648 12.4182 104.648 12.8396C104.648 13.261 104.986 13.6025 105.403 13.6025Z" fill="#F7F2EC"/>
<path id="Vector_96" d="M102.803 13.0027C103.22 13.0027 103.558 12.6611 103.558 12.2397C103.558 11.8184 103.22 11.4768 102.803 11.4768C102.386 11.4768 102.048 11.8184 102.048 12.2397C102.048 12.6611 102.386 13.0027 102.803 13.0027Z" fill="#F7F2EC"/>
<path id="Vector_97" d="M96.6242 13.3389C97.0411 13.3389 97.3791 12.9973 97.3791 12.5759C97.3791 12.1546 97.0411 11.813 96.6242 11.813C96.2073 11.813 95.8693 12.1546 95.8693 12.5759C95.8693 12.9973 96.2073 13.3389 96.6242 13.3389Z" fill="#F7F2EC"/>
<path id="Vector_98" d="M95.1863 4.93653C95.6033 4.93653 95.9413 4.59495 95.9413 4.17358C95.9413 3.75222 95.6033 3.41064 95.1863 3.41064C94.7694 3.41064 94.4314 3.75222 94.4314 4.17358C94.4314 4.59495 94.7694 4.93653 95.1863 4.93653Z" fill="#F7F2EC"/>
<path id="Vector_99" d="M94.0142 1.9751C94.4311 1.9751 94.7691 1.63352 94.7691 1.21216C94.7691 0.790799 94.4311 0.449219 94.0142 0.449219C93.5973 0.449219 93.2593 0.790799 93.2593 1.21216C93.2593 1.63352 93.5973 1.9751 94.0142 1.9751Z" fill="#F7F2EC"/>
<path id="Vector_100" d="M77.5695 15.3691C77.9864 15.3691 78.3244 15.0276 78.3244 14.6062C78.3244 14.1848 77.9864 13.8433 77.5695 13.8433C77.1526 13.8433 76.8146 14.1848 76.8146 14.6062C76.8146 15.0276 77.1526 15.3691 77.5695 15.3691Z" fill="#F7F2EC"/>
<path id="Vector_101" d="M68.493 20.5693C68.9099 20.5693 69.2479 20.2278 69.2479 19.8064C69.2479 19.385 68.9099 19.0435 68.493 19.0435C68.076 19.0435 67.738 19.385 67.738 19.8064C67.738 20.2278 68.076 20.5693 68.493 20.5693Z" fill="#F7F2EC"/>
<path id="Vector_102" d="M63.4145 14.8547C63.8314 14.8547 64.1694 14.5132 64.1694 14.0918C64.1694 13.6704 63.8314 13.3289 63.4145 13.3289C62.9975 13.3289 62.6595 13.6704 62.6595 14.0918C62.6595 14.5132 62.9975 14.8547 63.4145 14.8547Z" fill="#F7F2EC"/>
<path id="Vector_103" d="M46.3565 8.60059C46.7734 8.60059 47.1114 8.25901 47.1114 7.83765C47.1114 7.41629 46.7734 7.07471 46.3565 7.07471C45.9396 7.07471 45.6016 7.41629 45.6016 7.83765C45.6016 8.25901 45.9396 8.60059 46.3565 8.60059Z" fill="#F7F2EC"/>
<path id="Vector_104" d="M36.8404 18.7297C37.2573 18.7297 37.5953 18.3882 37.5953 17.9668C37.5953 17.5454 37.2573 17.2039 36.8404 17.2039C36.4234 17.2039 36.0854 17.5454 36.0854 17.9668C36.0854 18.3882 36.4234 18.7297 36.8404 18.7297Z" fill="#F7F2EC"/>
<path id="Vector_105" d="M42.0455 20.0522C42.4624 20.0522 42.8004 19.7107 42.8004 19.2893C42.8004 18.8679 42.4624 18.5264 42.0455 18.5264C41.6285 18.5264 41.2905 18.8679 41.2905 19.2893C41.2905 19.7107 41.6285 20.0522 42.0455 20.0522Z" fill="#F7F2EC"/>
<path id="Vector_106" d="M34.8686 20.4814C35.2855 20.4814 35.6235 20.1399 35.6235 19.7185C35.6235 19.2971 35.2855 18.9556 34.8686 18.9556C34.4516 18.9556 34.1136 19.2971 34.1136 19.7185C34.1136 20.1399 34.4516 20.4814 34.8686 20.4814Z" fill="#F7F2EC"/>
<path id="Vector_107" d="M29.0402 34.7615C29.4572 34.7615 29.7951 34.4199 29.7951 33.9985C29.7951 33.5772 29.4572 33.2356 29.0402 33.2356C28.6233 33.2356 28.2853 33.5772 28.2853 33.9985C28.2853 34.4199 28.6233 34.7615 29.0402 34.7615Z" fill="#F7F2EC"/>
<path id="Vector_108" d="M22.2284 33.9382C22.6454 33.9382 22.9834 33.5967 22.9834 33.1753C22.9834 32.7539 22.6454 32.4124 22.2284 32.4124C21.8115 32.4124 21.4735 32.7539 21.4735 33.1753C21.4735 33.5967 21.8115 33.9382 22.2284 33.9382Z" fill="#F7F2EC"/>
<path id="Vector_109" d="M22.7027 28.0833C23.1196 28.0833 23.4576 27.7417 23.4576 27.3203C23.4576 26.899 23.1196 26.5574 22.7027 26.5574C22.2857 26.5574 21.9478 26.899 21.9478 27.3203C21.9478 27.7417 22.2857 28.0833 22.7027 28.0833Z" fill="#F7F2EC"/>
<path id="Vector_110" d="M23.6861 31.0295C24.103 31.0295 24.441 30.688 24.441 30.2666C24.441 29.8452 24.103 29.5037 23.6861 29.5037C23.2691 29.5037 22.9312 29.8452 22.9312 30.2666C22.9312 30.688 23.2691 31.0295 23.6861 31.0295Z" fill="#F7F2EC"/>
<path id="Vector_111" d="M18.116 37.6174C18.533 37.6174 18.871 37.2759 18.871 36.8545C18.871 36.4331 18.533 36.0916 18.116 36.0916C17.6991 36.0916 17.3611 36.4331 17.3611 36.8545C17.3611 37.2759 17.6991 37.6174 18.116 37.6174Z" fill="#F7F2EC"/>
<path id="Vector_112" d="M24.4113 42.3884C24.8282 42.3884 25.1662 42.0468 25.1662 41.6255C25.1662 41.2041 24.8282 40.8625 24.4113 40.8625C23.9944 40.8625 23.6564 41.2041 23.6564 41.6255C23.6564 42.0468 23.9944 42.3884 24.4113 42.3884Z" fill="#F7F2EC"/>
<path id="Vector_113" d="M39.4752 36.7566C39.8921 36.7566 40.2301 36.415 40.2301 35.9937C40.2301 35.5723 39.8921 35.2307 39.4752 35.2307C39.0582 35.2307 38.7202 35.5723 38.7202 35.9937C38.7202 36.415 39.0582 36.7566 39.4752 36.7566Z" fill="#F7F2EC"/>
<path id="Vector_114" d="M25.0668 24.8533C25.4838 24.8533 25.8218 24.5117 25.8218 24.0903C25.8218 23.669 25.4838 23.3274 25.0668 23.3274C24.6499 23.3274 24.3119 23.669 24.3119 24.0903C24.3119 24.5117 24.6499 24.8533 25.0668 24.8533Z" fill="#F7F2EC"/>
<path id="Vector_115" d="M21.6523 30.2415C22.0692 30.2415 22.4072 29.8999 22.4072 29.4785C22.4072 29.0572 22.0692 28.7156 21.6523 28.7156C21.2353 28.7156 20.8973 29.0572 20.8973 29.4785C20.8973 29.8999 21.2353 30.2415 21.6523 30.2415Z" fill="#F7F2EC"/>
<path id="Vector_116" d="M39.6763 7.41358C40.0933 7.41358 40.4313 7.072 40.4313 6.65064C40.4313 6.22928 40.0933 5.8877 39.6763 5.8877C39.2594 5.8877 38.9214 6.22928 38.9214 6.65064C38.9214 7.072 39.2594 7.41358 39.6763 7.41358Z" fill="#F7F2EC"/>
<path id="Vector_117" d="M38.3254 4.32666C38.7423 4.32666 39.0803 3.98508 39.0803 3.56372C39.0803 3.14236 38.7423 2.80078 38.3254 2.80078C37.9084 2.80078 37.5704 3.14236 37.5704 3.56372C37.5704 3.98508 37.9084 4.32666 38.3254 4.32666Z" fill="#F7F2EC"/>
<path id="Vector_118" d="M32.9241 3.53613C33.3411 3.53613 33.6791 3.19455 33.6791 2.77319C33.6791 2.35183 33.3411 2.01025 32.9241 2.01025C32.5072 2.01025 32.1692 2.35183 32.1692 2.77319C32.1692 3.19455 32.5072 3.53613 32.9241 3.53613Z" fill="#F7F2EC"/>
<path id="Vector_119" d="M60.9113 10.011C61.3282 10.011 61.6662 9.66941 61.6662 9.24805C61.6662 8.82669 61.3282 8.48511 60.9113 8.48511C60.4944 8.48511 60.1564 8.82669 60.1564 9.24805C60.1564 9.66941 60.4944 10.011 60.9113 10.011Z" fill="#F7F2EC"/>
<path id="Vector_120" d="M71.8007 6.80371C72.2177 6.80371 72.5556 6.46213 72.5556 6.04077C72.5556 5.61941 72.2177 5.27783 71.8007 5.27783C71.3838 5.27783 71.0458 5.61941 71.0458 6.04077C71.0458 6.46213 71.3838 6.80371 71.8007 6.80371Z" fill="#F7F2EC"/>
<path id="Vector_121" d="M70.79 18.1775C71.2069 18.1775 71.5449 17.8359 71.5449 17.4146C71.5449 16.9932 71.2069 16.6516 70.79 16.6516C70.373 16.6516 70.035 16.9932 70.035 17.4146C70.035 17.8359 70.373 18.1775 70.79 18.1775Z" fill="#F7F2EC"/>
<path id="Vector_122" d="M80.4626 2.46704C80.8795 2.46704 81.2175 2.12546 81.2175 1.7041C81.2175 1.28274 80.8795 0.941162 80.4626 0.941162C80.0456 0.941162 79.7076 1.28274 79.7076 1.7041C79.7076 2.12546 80.0456 2.46704 80.4626 2.46704Z" fill="#F7F2EC"/>
<path id="Vector_123" d="M99.1895 14.1846C99.6064 14.1846 99.9444 13.843 99.9444 13.4216C99.9444 13.0003 99.6064 12.6587 99.1895 12.6587C98.7726 12.6587 98.4346 13.0003 98.4346 13.4216C98.4346 13.843 98.7726 14.1846 99.1895 14.1846Z" fill="#F7F2EC"/>
<path id="Vector_124" d="M110.265 43.3971C110.848 43.3971 111.321 42.9196 111.321 42.3305C111.321 41.7415 110.848 41.2639 110.265 41.2639C109.682 41.2639 109.21 41.7415 109.21 42.3305C109.21 42.9196 109.682 43.3971 110.265 43.3971Z" fill="#F7F2EC"/>
<path id="Vector_125" d="M109.009 37.9638C109.591 37.9638 110.064 37.4863 110.064 36.8972C110.064 36.3081 109.591 35.8306 109.009 35.8306C108.426 35.8306 107.953 36.3081 107.953 36.8972C107.953 37.4863 108.426 37.9638 109.009 37.9638Z" fill="#F7F2EC"/>
<path id="Vector_126" d="M81.9228 14.935C82.5057 14.935 82.9783 14.4574 82.9783 13.8684C82.9783 13.2793 82.5057 12.8018 81.9228 12.8018C81.34 12.8018 80.8674 13.2793 80.8674 13.8684C80.8674 14.4574 81.34 14.935 81.9228 14.935Z" fill="#F7F2EC"/>
<path id="Vector_127" d="M66.099 16.205C66.6819 16.205 67.1544 15.7275 67.1544 15.1384C67.1544 14.5493 66.6819 14.0718 66.099 14.0718C65.5161 14.0718 65.0436 14.5493 65.0436 15.1384C65.0436 15.7275 65.5161 16.205 66.099 16.205Z" fill="#F7F2EC"/>
<path id="Vector_128" d="M35.9612 7.88298C36.5441 7.88298 37.0166 7.40544 37.0166 6.81637C37.0166 6.22729 36.5441 5.74976 35.9612 5.74976C35.3783 5.74976 34.9058 6.22729 34.9058 6.81637C34.9058 7.40544 35.3783 7.88298 35.9612 7.88298Z" fill="#F7F2EC"/>
<path id="Vector_129" d="M31.5012 10.7817C32.0841 10.7817 32.5566 10.3041 32.5566 9.71505C32.5566 9.12598 32.0841 8.64844 31.5012 8.64844C30.9183 8.64844 30.4458 9.12598 30.4458 9.71505C30.4458 10.3041 30.9183 10.7817 31.5012 10.7817Z" fill="#F7F2EC"/>
<path id="Vector_130" d="M38.9238 31.4186C39.5067 31.4186 39.9792 30.9411 39.9792 30.352C39.9792 29.7629 39.5067 29.2854 38.9238 29.2854C38.3409 29.2854 37.8684 29.7629 37.8684 30.352C37.8684 30.9411 38.3409 31.4186 38.9238 31.4186Z" fill="#F7F2EC"/>
<path id="Vector_131" d="M35.8867 23.089C36.4696 23.089 36.9421 22.6115 36.9421 22.0224C36.9421 21.4333 36.4696 20.9558 35.8867 20.9558C35.3038 20.9558 34.8313 21.4333 34.8313 22.0224C34.8313 22.6115 35.3038 23.089 35.8867 23.089Z" fill="#F7F2EC"/>
<path id="Vector_132" d="M25.9608 28.4145C26.5437 28.4145 27.0162 27.9369 27.0162 27.3479C27.0162 26.7588 26.5437 26.2812 25.9608 26.2812C25.3779 26.2812 24.9054 26.7588 24.9054 27.3479C24.9054 27.9369 25.3779 28.4145 25.9608 28.4145Z" fill="#F7F2EC"/>
<path id="Vector_133" d="M14.9224 36.955C15.5053 36.955 15.9778 36.4775 15.9778 35.8884C15.9778 35.2993 15.5053 34.8218 14.9224 34.8218C14.3395 34.8218 13.8669 35.2993 13.8669 35.8884C13.8669 36.4775 14.3395 36.955 14.9224 36.955Z" fill="#F7F2EC"/>
<path id="Vector_134" d="M32.4473 37.7179C33.0302 37.7179 33.5027 37.2404 33.5027 36.6513C33.5027 36.0623 33.0302 35.5847 32.4473 35.5847C31.8644 35.5847 31.3918 36.0623 31.3918 36.6513C31.3918 37.2404 31.8644 37.7179 32.4473 37.7179Z" fill="#F7F2EC"/>
<path id="Vector_135" d="M26.0974 34.1667C26.6803 34.1667 27.1528 33.6891 27.1528 33.1001C27.1528 32.511 26.6803 32.0334 26.0974 32.0334C25.5145 32.0334 25.042 32.511 25.042 33.1001C25.042 33.6891 25.5145 34.1667 26.0974 34.1667Z" fill="#F7F2EC"/>
<path id="Vector_136" d="M45.1223 11.424C45.7052 11.424 46.1777 10.9465 46.1777 10.3574C46.1777 9.76831 45.7052 9.29077 45.1223 9.29077C44.5394 9.29077 44.0669 9.76831 44.0669 10.3574C44.0669 10.9465 44.5394 11.424 45.1223 11.424Z" fill="#F7F2EC"/>
<path id="Vector_137" d="M27.7067 9.50163C28.2896 9.50163 28.7621 9.02409 28.7621 8.43502C28.7621 7.84595 28.2896 7.36841 27.7067 7.36841C27.1238 7.36841 26.6512 7.84595 26.6512 8.43502C26.6512 9.02409 27.1238 9.50163 27.7067 9.50163Z" fill="#F7F2EC"/>
<path id="Vector_138" d="M25.4045 12.7165C25.9874 12.7165 26.46 12.2389 26.46 11.6499C26.46 11.0608 25.9874 10.5833 25.4045 10.5833C24.8216 10.5833 24.3491 11.0608 24.3491 11.6499C24.3491 12.2389 24.8216 12.7165 25.4045 12.7165Z" fill="#F7F2EC"/>
<path id="Vector_139" d="M88.8712 4.48723C89.4541 4.48723 89.9266 4.00969 89.9266 3.42061C89.9266 2.83154 89.4541 2.354 88.8712 2.354C88.2883 2.354 87.8158 2.83154 87.8158 3.42061C87.8158 4.00969 88.2883 4.48723 88.8712 4.48723Z" fill="#F7F2EC"/>
<path id="Vector_140" d="M84.1677 2.3239C84.7506 2.3239 85.2231 1.84636 85.2231 1.25728C85.2231 0.668212 84.7506 0.190674 84.1677 0.190674C83.5848 0.190674 83.1123 0.668212 83.1123 1.25728C83.1123 1.84636 83.5848 2.3239 84.1677 2.3239Z" fill="#F7F2EC"/>
<path id="Vector_141" d="M68.2272 2.13322C68.8101 2.13322 69.2826 1.65568 69.2826 1.06661C69.2826 0.477538 68.8101 0 68.2272 0C67.6443 0 67.1718 0.477538 67.1718 1.06661C67.1718 1.65568 67.6443 2.13322 68.2272 2.13322Z" fill="#F7F2EC"/>
<path id="Vector_142" d="M116.809 32.0085C117.392 32.0085 117.864 31.5309 117.864 30.9419C117.864 30.3528 117.392 29.8752 116.809 29.8752C116.226 29.8752 115.753 30.3528 115.753 30.9419C115.753 31.5309 116.226 32.0085 116.809 32.0085Z" fill="#F7F2EC"/>
<path id="Vector_143" d="M121.967 29.3808C122.549 29.3808 123.022 28.9032 123.022 28.3142C123.022 27.7251 122.549 27.2476 121.967 27.2476C121.384 27.2476 120.911 27.7251 120.911 28.3142C120.911 28.9032 121.384 29.3808 121.967 29.3808Z" fill="#F7F2EC"/>
<path id="Vector_144" d="M117.546 27.1899C118.129 27.1899 118.602 26.7123 118.602 26.1233C118.602 25.5342 118.129 25.0566 117.546 25.0566C116.963 25.0566 116.491 25.5342 116.491 26.1233C116.491 26.7123 116.963 27.1899 117.546 27.1899Z" fill="#F7F2EC"/>
<path id="Vector_145" d="M111.564 26.3139C112.147 26.3139 112.619 25.8363 112.619 25.2473C112.619 24.6582 112.147 24.1807 111.564 24.1807C110.981 24.1807 110.509 24.6582 110.509 25.2473C110.509 25.8363 110.981 26.3139 111.564 26.3139Z" fill="#F7F2EC"/>
<path id="Vector_146" d="M130.077 52.5425C130.494 52.5425 130.832 52.2009 130.832 51.7795C130.832 51.3582 130.494 51.0166 130.077 51.0166C129.66 51.0166 129.322 51.3582 129.322 51.7795C129.322 52.2009 129.66 52.5425 130.077 52.5425Z" fill="#F7F2EC"/>
<path id="Vector_147" d="M123.372 68.3836C123.789 68.3836 124.127 68.042 124.127 67.6206C124.127 67.1992 123.789 66.8577 123.372 66.8577C122.955 66.8577 122.617 67.1992 122.617 67.6206C122.617 68.042 122.955 68.3836 123.372 68.3836Z" fill="#F7F2EC"/>
<path id="Vector_148" d="M121.929 74.3943C122.346 74.3943 122.684 74.0527 122.684 73.6314C122.684 73.21 122.346 72.8684 121.929 72.8684C121.512 72.8684 121.174 73.21 121.174 73.6314C121.174 74.0527 121.512 74.3943 121.929 74.3943Z" fill="#F7F2EC"/>
<path id="Vector_149" d="M112.45 80.9946C112.867 80.9946 113.205 80.6531 113.205 80.2317C113.205 79.8103 112.867 79.4688 112.45 79.4688C112.034 79.4688 111.696 79.8103 111.696 80.2317C111.696 80.6531 112.034 80.9946 112.45 80.9946Z" fill="#F7F2EC"/>
<path id="Vector_150" d="M123.407 80.6785C123.824 80.6785 124.162 80.3369 124.162 79.9155C124.162 79.4942 123.824 79.1526 123.407 79.1526C122.99 79.1526 122.652 79.4942 122.652 79.9155C122.652 80.3369 122.99 80.6785 123.407 80.6785Z" fill="#F7F2EC"/>
<path id="Vector_151" d="M119.18 85.9963C119.597 85.9963 119.935 85.6548 119.935 85.2334C119.935 84.812 119.597 84.4705 119.18 84.4705C118.763 84.4705 118.425 84.812 118.425 85.2334C118.425 85.6548 118.763 85.9963 119.18 85.9963Z" fill="#F7F2EC"/>
<path id="Vector_152" d="M121.244 87.9138C121.661 87.9138 121.999 87.5722 121.999 87.1509C121.999 86.7295 121.661 86.3879 121.244 86.3879C120.827 86.3879 120.489 86.7295 120.489 87.1509C120.489 87.5722 120.827 87.9138 121.244 87.9138Z" fill="#F7F2EC"/>
<path id="Vector_153" d="M121.311 91.9519C121.728 91.9519 122.066 91.6103 122.066 91.189C122.066 90.7676 121.728 90.426 121.311 90.426C120.894 90.426 120.556 90.7676 120.556 91.189C120.556 91.6103 120.894 91.9519 121.311 91.9519Z" fill="#F7F2EC"/>
<path id="Vector_154" d="M122.153 95.9248C122.57 95.9248 122.908 95.5832 122.908 95.1619C122.908 94.7405 122.57 94.3989 122.153 94.3989C121.736 94.3989 121.398 94.7405 121.398 95.1619C121.398 95.5832 121.736 95.9248 122.153 95.9248Z" fill="#F7F2EC"/>
<path id="Vector_155" d="M121.778 101.898C122.195 101.898 122.533 101.556 122.533 101.135C122.533 100.713 122.195 100.372 121.778 100.372C121.361 100.372 121.023 100.713 121.023 101.135C121.023 101.556 121.361 101.898 121.778 101.898Z" fill="#F7F2EC"/>
<path id="Vector_156" d="M115.113 106.475C115.53 106.475 115.868 106.134 115.868 105.712C115.868 105.291 115.53 104.949 115.113 104.949C114.696 104.949 114.358 105.291 114.358 105.712C114.358 106.134 114.696 106.475 115.113 106.475Z" fill="#F7F2EC"/>
<path id="Vector_157" d="M109.701 106.159C110.118 106.159 110.456 105.818 110.456 105.396C110.456 104.975 110.118 104.633 109.701 104.633C109.284 104.633 108.946 104.975 108.946 105.396C108.946 105.818 109.284 106.159 109.701 106.159Z" fill="#F7F2EC"/>
<path id="Vector_158" d="M105.937 111.271C106.354 111.271 106.692 110.93 106.692 110.508C106.692 110.087 106.354 109.745 105.937 109.745C105.52 109.745 105.182 110.087 105.182 110.508C105.182 110.93 105.52 111.271 105.937 111.271Z" fill="#F7F2EC"/>
<path id="Vector_159" d="M99.6935 112.709C100.11 112.709 100.448 112.368 100.448 111.947C100.448 111.525 100.11 111.184 99.6935 111.184C99.2766 111.184 98.9386 111.525 98.9386 111.947C98.9386 112.368 99.2766 112.709 99.6935 112.709Z" fill="#F7F2EC"/>
<path id="Vector_160" d="M91.6128 110.747C92.0298 110.747 92.3678 110.405 92.3678 109.984C92.3678 109.563 92.0298 109.221 91.6128 109.221C91.1959 109.221 90.8579 109.563 90.8579 109.984C90.8579 110.405 91.1959 110.747 91.6128 110.747Z" fill="#F7F2EC"/>
<path id="Vector_161" d="M64.7109 109.183C65.1278 109.183 65.4658 108.842 65.4658 108.42C65.4658 107.999 65.1278 107.657 64.7109 107.657C64.2939 107.657 63.9559 107.999 63.9559 108.42C63.9559 108.842 64.2939 109.183 64.7109 109.183Z" fill="#F7F2EC"/>
<path id="Vector_162" d="M61.6662 117.372C62.0831 117.372 62.4211 117.031 62.4211 116.609C62.4211 116.188 62.0831 115.846 61.6662 115.846C61.2493 115.846 60.9113 116.188 60.9113 116.609C60.9113 117.031 61.2493 117.372 61.6662 117.372Z" fill="#F7F2EC"/>
<path id="Vector_163" d="M52.7387 116.647C53.1556 116.647 53.4936 116.305 53.4936 115.884C53.4936 115.463 53.1556 115.121 52.7387 115.121C52.3218 115.121 51.9838 115.463 51.9838 115.884C51.9838 116.305 52.3218 116.647 52.7387 116.647Z" fill="#F7F2EC"/>
<path id="Vector_164" d="M48.6263 114.923C49.0432 114.923 49.3812 114.581 49.3812 114.16C49.3812 113.739 49.0432 113.397 48.6263 113.397C48.2093 113.397 47.8713 113.739 47.8713 114.16C47.8713 114.581 48.2093 114.923 48.6263 114.923Z" fill="#F7F2EC"/>
<path id="Vector_165" d="M39.9246 109.464C40.3416 109.464 40.6795 109.123 40.6795 108.701C40.6795 108.28 40.3416 107.938 39.9246 107.938C39.5077 107.938 39.1697 108.28 39.1697 108.701C39.1697 109.123 39.5077 109.464 39.9246 109.464Z" fill="#F7F2EC"/>
<path id="Vector_166" d="M33.7164 106.234C34.1333 106.234 34.4713 105.893 34.4713 105.471C34.4713 105.05 34.1333 104.708 33.7164 104.708C33.2994 104.708 32.9614 105.05 32.9614 105.471C32.9614 105.893 33.2994 106.234 33.7164 106.234Z" fill="#F7F2EC"/>
<path id="Vector_167" d="M35.5689 99.9251C35.9858 99.9251 36.3238 99.5835 36.3238 99.1621C36.3238 98.7408 35.9858 98.3992 35.5689 98.3992C35.152 98.3992 34.814 98.7408 34.814 99.1621C34.814 99.5835 35.152 99.9251 35.5689 99.9251Z" fill="#F7F2EC"/>
<path id="Vector_168" d="M34.9754 87.821C35.3923 87.821 35.7303 87.4795 35.7303 87.0581C35.7303 86.6367 35.3923 86.2952 34.9754 86.2952C34.5585 86.2952 34.2205 86.6367 34.2205 87.0581C34.2205 87.4795 34.5585 87.821 34.9754 87.821Z" fill="#F7F2EC"/>
<path id="Vector_169" d="M30.4184 84.4353C30.8353 84.4353 31.1733 84.0937 31.1733 83.6724C31.1733 83.251 30.8353 82.9094 30.4184 82.9094C30.0014 82.9094 29.6635 83.251 29.6635 83.6724C29.6635 84.0937 30.0014 84.4353 30.4184 84.4353Z" fill="#F7F2EC"/>
<path id="Vector_170" d="M23.4875 77.8625C23.9044 77.8625 24.2424 77.521 24.2424 77.0996C24.2424 76.6782 23.9044 76.3367 23.4875 76.3367C23.0705 76.3367 22.7325 76.6782 22.7325 77.0996C22.7325 77.521 23.0705 77.8625 23.4875 77.8625Z" fill="#F7F2EC"/>
<path id="Vector_171" d="M14.3414 74.0706C14.7583 74.0706 15.0963 73.729 15.0963 73.3076C15.0963 72.8863 14.7583 72.5447 14.3414 72.5447C13.9244 72.5447 13.5864 72.8863 13.5864 73.3076C13.5864 73.729 13.9244 74.0706 14.3414 74.0706Z" fill="#F7F2EC"/>
<path id="Vector_172" d="M19.1988 69.1917C19.6157 69.1917 19.9537 68.8501 19.9537 68.4287C19.9537 68.0074 19.6157 67.6658 19.1988 67.6658C18.7818 67.6658 18.4438 68.0074 18.4438 68.4287C18.4438 68.8501 18.7818 69.1917 19.1988 69.1917Z" fill="#F7F2EC"/>
<path id="Vector_173" d="M18.5084 58.749C18.9253 58.749 19.2633 58.4074 19.2633 57.9861C19.2633 57.5647 18.9253 57.2231 18.5084 57.2231C18.0914 57.2231 17.7534 57.5647 17.7534 57.9861C17.7534 58.4074 18.0914 58.749 18.5084 58.749Z" fill="#F7F2EC"/>
<path id="Vector_174" d="M19.7525 51.6565C20.1694 51.6565 20.5074 51.3149 20.5074 50.8936C20.5074 50.4722 20.1694 50.1306 19.7525 50.1306C19.3356 50.1306 18.9976 50.4722 18.9976 50.8936C18.9976 51.3149 19.3356 51.6565 19.7525 51.6565Z" fill="#F7F2EC"/>
<path id="Vector_175" d="M36.5026 74.8335C36.9196 74.8335 37.2575 74.4919 37.2575 74.0706C37.2575 73.6492 36.9196 73.3076 36.5026 73.3076C36.0857 73.3076 35.7477 73.6492 35.7477 74.0706C35.7477 74.4919 36.0857 74.8335 36.5026 74.8335Z" fill="#F7F2EC"/>
<path id="Vector_176" d="M38.0671 79.6418C38.484 79.6418 38.822 79.3003 38.822 78.8789C38.822 78.4575 38.484 78.116 38.0671 78.116C37.6501 78.116 37.3121 78.4575 37.3121 78.8789C37.3121 79.3003 37.6501 79.6418 38.0671 79.6418Z" fill="#F7F2EC"/>
<path id="Vector_177" d="M39.053 87.9087C39.47 87.9087 39.808 87.5671 39.808 87.1457C39.808 86.7244 39.47 86.3828 39.053 86.3828C38.6361 86.3828 38.2981 86.7244 38.2981 87.1457C38.2981 87.5671 38.6361 87.9087 39.053 87.9087Z" fill="#F7F2EC"/>
<path id="Vector_178" d="M43.4212 109.437C43.8381 109.437 44.1761 109.095 44.1761 108.674C44.1761 108.252 43.8381 107.911 43.4212 107.911C43.0043 107.911 42.6663 108.252 42.6663 108.674C42.6663 109.095 43.0043 109.437 43.4212 109.437Z" fill="#F7F2EC"/>
<path id="Vector_179" d="M66.9235 107.848C67.3404 107.848 67.6784 107.507 67.6784 107.085C67.6784 106.664 67.3404 106.322 66.9235 106.322C66.5066 106.322 66.1686 106.664 66.1686 107.085C66.1686 107.507 66.5066 107.848 66.9235 107.848Z" fill="#F7F2EC"/>
<path id="Vector_180" d="M130.984 66.293C131.401 66.293 131.739 65.9514 131.739 65.53C131.739 65.1087 131.401 64.7671 130.984 64.7671C130.567 64.7671 130.229 65.1087 130.229 65.53C130.229 65.9514 130.567 66.293 130.984 66.293Z" fill="#F7F2EC"/>
<path id="Vector_181" d="M131.652 62.4282C132.068 62.4282 132.406 62.0866 132.406 61.6653C132.406 61.2439 132.068 60.9023 131.652 60.9023C131.235 60.9023 130.897 61.2439 130.897 61.6653C130.897 62.0866 131.235 62.4282 131.652 62.4282Z" fill="#F7F2EC"/>
<path id="Vector_182" d="M126.153 51.8223C126.738 51.8223 127.211 51.3437 127.211 50.7532C127.211 50.1627 126.738 49.6841 126.153 49.6841C125.569 49.6841 125.096 50.1627 125.096 50.7532C125.096 51.3437 125.569 51.8223 126.153 51.8223Z" fill="#F7F2EC"/>
<path id="Vector_183" d="M128.384 63.6126C128.968 63.6126 129.441 63.1339 129.441 62.5435C129.441 61.953 128.968 61.4744 128.384 61.4744C127.799 61.4744 127.326 61.953 127.326 62.5435C127.326 63.1339 127.799 63.6126 128.384 63.6126Z" fill="#F7F2EC"/>
<path id="Vector_184" d="M118.651 73.7918C119.236 73.7918 119.709 73.3131 119.709 72.7227C119.709 72.1322 119.236 71.6536 118.651 71.6536C118.067 71.6536 117.593 72.1322 117.593 72.7227C117.593 73.3131 118.067 73.7918 118.651 73.7918Z" fill="#F7F2EC"/>
<path id="Vector_185" d="M109.615 80.9244C110.199 80.9244 110.672 80.4457 110.672 79.8553C110.672 79.2648 110.199 78.7861 109.615 78.7861C109.03 78.7861 108.557 79.2648 108.557 79.8553C108.557 80.4457 109.03 80.9244 109.615 80.9244Z" fill="#F7F2EC"/>
<path id="Vector_186" d="M87.7859 108.975C88.3702 108.975 88.8438 108.496 88.8438 107.906C88.8438 107.315 88.3702 106.837 87.7859 106.837C87.2017 106.837 86.728 107.315 86.728 107.906C86.728 108.496 87.2017 108.975 87.7859 108.975Z" fill="#F7F2EC"/>
<path id="Vector_187" d="M78.548 103.499C79.1323 103.499 79.6059 103.02 79.6059 102.43C79.6059 101.839 79.1323 101.361 78.548 101.361C77.9637 101.361 77.4901 101.839 77.4901 102.43C77.4901 103.02 77.9637 103.499 78.548 103.499Z" fill="#F7F2EC"/>
<path id="Vector_188" d="M67.2165 105.105C67.8007 105.105 68.2744 104.626 68.2744 104.036C68.2744 103.445 67.8007 102.967 67.2165 102.967C66.6322 102.967 66.1586 103.445 66.1586 104.036C66.1586 104.626 66.6322 105.105 67.2165 105.105Z" fill="#F7F2EC"/>
<path id="Vector_189" d="M71.4134 115.957C71.9976 115.957 72.4713 115.478 72.4713 114.888C72.4713 114.297 71.9976 113.819 71.4134 113.819C70.8291 113.819 70.3555 114.297 70.3555 114.888C70.3555 115.478 70.8291 115.957 71.4134 115.957Z" fill="#F7F2EC"/>
<path id="Vector_190" d="M69.0492 118.911C69.6335 118.911 70.1071 118.432 70.1071 117.842C70.1071 117.251 69.6335 116.772 69.0492 116.772C68.465 116.772 67.9913 117.251 67.9913 117.842C67.9913 118.432 68.465 118.911 69.0492 118.911Z" fill="#F7F2EC"/>
<path id="Vector_191" d="M50.68 114.587C51.2642 114.587 51.7379 114.108 51.7379 113.518C51.7379 112.927 51.2642 112.448 50.68 112.448C50.0957 112.448 49.6221 112.927 49.6221 113.518C49.6221 114.108 50.0957 114.587 50.68 114.587Z" fill="#F7F2EC"/>
<path id="Vector_192" d="M48.2513 99.7269C48.8355 99.7269 49.3092 99.2482 49.3092 98.6577C49.3092 98.0673 48.8355 97.5886 48.2513 97.5886C47.667 97.5886 47.1934 98.0673 47.1934 98.6577C47.1934 99.2482 47.667 99.7269 48.2513 99.7269Z" fill="#F7F2EC"/>
<path id="Vector_193" d="M45.0751 107.986C45.6594 107.986 46.133 107.507 46.133 106.917C46.133 106.327 45.6594 105.848 45.0751 105.848C44.4908 105.848 44.0172 106.327 44.0172 106.917C44.0172 107.507 44.4908 107.986 45.0751 107.986Z" fill="#F7F2EC"/>
<path id="Vector_194" d="M35.8868 102.962C36.471 102.962 36.9447 102.483 36.9447 101.893C36.9447 101.302 36.471 100.823 35.8868 100.823C35.3025 100.823 34.8289 101.302 34.8289 101.893C34.8289 102.483 35.3025 102.962 35.8868 102.962Z" fill="#F7F2EC"/>
<path id="Vector_195" d="M41.6952 90.0269C42.2795 90.0269 42.7531 89.5482 42.7531 88.9578C42.7531 88.3673 42.2795 87.8887 41.6952 87.8887C41.111 87.8887 40.6373 88.3673 40.6373 88.9578C40.6373 89.5482 41.111 90.0269 41.6952 90.0269Z" fill="#F7F2EC"/>
<path id="Vector_196" d="M20.6689 78.2715C21.2531 78.2715 21.7268 77.7929 21.7268 77.2024C21.7268 76.612 21.2531 76.1333 20.6689 76.1333C20.0846 76.1333 19.611 76.612 19.611 77.2024C19.611 77.7929 20.0846 78.2715 20.6689 78.2715Z" fill="#F7F2EC"/>
<path id="Vector_197" d="M21.6722 54.8714C22.2564 54.8714 22.7301 54.3927 22.7301 53.8023C22.7301 53.2118 22.2564 52.7332 21.6722 52.7332C21.0879 52.7332 20.6143 53.2118 20.6143 53.8023C20.6143 54.3927 21.0879 54.8714 21.6722 54.8714Z" fill="#F7F2EC"/>
<path id="Vector_198" d="M20.7085 73.6714C21.2928 73.6714 21.7664 73.1928 21.7664 72.6023C21.7664 72.0119 21.2928 71.5332 20.7085 71.5332C20.1243 71.5332 19.6506 72.0119 19.6506 72.6023C19.6506 73.1928 20.1243 73.6714 20.7085 73.6714Z" fill="#F7F2EC"/>
<path id="Vector_199" d="M34.0019 85.4168C34.5861 85.4168 35.0598 84.9381 35.0598 84.3477C35.0598 83.7572 34.5861 83.2786 34.0019 83.2786C33.4176 83.2786 32.944 83.7572 32.944 84.3477C32.944 84.9381 33.4176 85.4168 34.0019 85.4168Z" fill="#F7F2EC"/>
<path id="Vector_200" d="M35.9662 95.9346C36.5505 95.9346 37.0241 95.456 37.0241 94.8655C37.0241 94.2751 36.5505 93.7964 35.9662 93.7964C35.382 93.7964 34.9083 94.2751 34.9083 94.8655C34.9083 95.456 35.382 95.9346 35.9662 95.9346Z" fill="#F7F2EC"/>
<path id="Vector_201" d="M31.0194 97.7769C31.6037 97.7769 32.0773 97.2983 32.0773 96.7078C32.0773 96.1173 31.6037 95.6387 31.0194 95.6387C30.4352 95.6387 29.9615 96.1173 29.9615 96.7078C29.9615 97.2983 30.4352 97.7769 31.0194 97.7769Z" fill="#F7F2EC"/>
<path id="Vector_202" d="M31.5335 87.678C32.1178 87.678 32.5914 87.1994 32.5914 86.6089C32.5914 86.0185 32.1178 85.5398 31.5335 85.5398C30.9492 85.5398 30.4756 86.0185 30.4756 86.6089C30.4756 87.1994 30.9492 87.678 31.5335 87.678Z" fill="#F7F2EC"/>
<path id="Vector_203" d="M26.023 79.5391C26.6073 79.5391 27.0809 79.0605 27.0809 78.47C27.0809 77.8795 26.6073 77.4009 26.023 77.4009C25.4387 77.4009 24.9651 77.8795 24.9651 78.47C24.9651 79.0605 25.4387 79.5391 26.023 79.5391Z" fill="#F7F2EC"/>
<path id="Vector_204" d="M17.7012 72.7654C18.2855 72.7654 18.7591 72.2868 18.7591 71.6963C18.7591 71.1059 18.2855 70.6272 17.7012 70.6272C17.1169 70.6272 16.6433 71.1059 16.6433 71.6963C16.6433 72.2868 17.1169 72.7654 17.7012 72.7654Z" fill="#F7F2EC"/>
<path id="Vector_205" d="M13.5839 64.762C14.1682 64.762 14.6418 64.2834 14.6418 63.6929C14.6418 63.1024 14.1682 62.6238 13.5839 62.6238C12.9996 62.6238 12.526 63.1024 12.526 63.6929C12.526 64.2834 12.9996 64.762 13.5839 64.762Z" fill="#F7F2EC"/>
<path id="Vector_206" d="M28.5063 75.0543C29.0905 75.0543 29.5642 74.5756 29.5642 73.9851C29.5642 73.3947 29.0905 72.916 28.5063 72.916C27.922 72.916 27.4484 73.3947 27.4484 73.9851C27.4484 74.5756 27.922 75.0543 28.5063 75.0543Z" fill="#F7F2EC"/>
<path id="Vector_207" d="M32.3232 92.9356C32.9074 92.9356 33.3811 92.4569 33.3811 91.8665C33.3811 91.276 32.9074 90.7974 32.3232 90.7974C31.7389 90.7974 31.2653 91.276 31.2653 91.8665C31.2653 92.4569 31.7389 92.9356 32.3232 92.9356Z" fill="#F7F2EC"/>
<path id="Vector_208" d="M46.8308 104.355C47.4151 104.355 47.8887 103.876 47.8887 103.286C47.8887 102.695 47.4151 102.217 46.8308 102.217C46.2466 102.217 45.7729 102.695 45.7729 103.286C45.7729 103.876 46.2466 104.355 46.8308 104.355Z" fill="#F7F2EC"/>
<path id="Vector_209" d="M42.6538 107.733C43.2381 107.733 43.7118 107.254 43.7118 106.664C43.7118 106.073 43.2381 105.594 42.6538 105.594C42.0696 105.594 41.5959 106.073 41.5959 106.664C41.5959 107.254 42.0696 107.733 42.6538 107.733Z" fill="#F7F2EC"/>
<path id="Vector_210" d="M49.0013 112.278C49.5855 112.278 50.0592 111.799 50.0592 111.209C50.0592 110.618 49.5855 110.139 49.0013 110.139C48.417 110.139 47.9434 110.618 47.9434 111.209C47.9434 111.799 48.417 112.278 49.0013 112.278Z" fill="#F7F2EC"/>
<path id="Vector_211" d="M101.154 110.215C101.738 110.215 102.212 109.736 102.212 109.146C102.212 108.555 101.738 108.077 101.154 108.077C100.569 108.077 100.096 108.555 100.096 109.146C100.096 109.736 100.569 110.215 101.154 110.215Z" fill="#F7F2EC"/>
<path id="Vector_212" d="M105.43 108.28C106.014 108.28 106.488 107.801 106.488 107.211C106.488 106.62 106.014 106.142 105.43 106.142C104.846 106.142 104.372 106.62 104.372 107.211C104.372 107.801 104.846 108.28 105.43 108.28Z" fill="#F7F2EC"/>
<path id="Vector_213" d="M111.353 78.5301C111.937 78.5301 112.411 78.0514 112.411 77.461C112.411 76.8705 111.937 76.3918 111.353 76.3918C110.769 76.3918 110.295 76.8705 110.295 77.461C110.295 78.0514 110.769 78.5301 111.353 78.5301Z" fill="#F7F2EC"/>
<path id="Vector_214" d="M119.992 40.4031C120.736 40.4031 121.338 39.7941 121.338 39.0429C121.338 38.2916 120.736 37.6826 119.992 37.6826C119.249 37.6826 118.646 38.2916 118.646 39.0429C118.646 39.7941 119.249 40.4031 119.992 40.4031Z" fill="#F7F2EC"/>
<path id="Vector_215" d="M103.121 16.491C103.864 16.491 104.466 15.882 104.466 15.1308C104.466 14.3795 103.864 13.7705 103.121 13.7705C102.377 13.7705 101.775 14.3795 101.775 15.1308C101.775 15.882 102.377 16.491 103.121 16.491Z" fill="#F7F2EC"/>
<path id="Vector_216" d="M91.5482 6.26175C92.2916 6.26175 92.8942 5.65274 92.8942 4.9015C92.8942 4.15026 92.2916 3.54126 91.5482 3.54126C90.8049 3.54126 90.2023 4.15026 90.2023 4.9015C90.2023 5.65274 90.8049 6.26175 91.5482 6.26175Z" fill="#F7F2EC"/>
<path id="Vector_217" d="M111.311 72.0352C112.746 72.2059 114.119 71.4053 115.036 70.3362C116.046 69.1566 116.615 67.691 117.33 66.3207C118.692 63.7298 120.46 61.3788 122.565 59.3589C123.764 58.2067 125.068 57.1707 126.459 56.2645C126.794 56.0461 126.484 55.5116 126.146 55.7224C122.529 58.0844 119.51 61.2709 117.333 65.0257C116.588 66.3057 116.044 67.696 115.266 68.9534C114.415 70.3287 113.031 71.6036 111.311 71.4003C110.913 71.3526 110.918 71.98 111.311 72.0277V72.0352Z" fill="#F7F2EC"/>
<path id="Vector_218" d="M117.695 65.8112C118.862 64.6667 120.514 63.8034 122.165 63.8787C122.565 63.8938 122.565 63.2664 122.165 63.2513C120.347 63.1785 118.53 64.1121 117.248 65.3695C116.96 65.6505 117.4 66.0948 117.688 65.8112H117.695Z" fill="#F7F2EC"/>
<path id="Vector_219" d="M115.326 70.1855C116.158 70.1052 116.923 69.7362 117.737 69.5606C118.55 69.3918 119.382 69.3428 120.208 69.415C120.608 69.4476 120.606 68.8202 120.208 68.7876C119.386 68.72 118.558 68.7648 117.747 68.9206C117.348 69 116.954 69.1048 116.568 69.2343C116.167 69.3882 115.751 69.4967 115.326 69.5581C114.931 69.5957 114.929 70.2256 115.326 70.1855Z" fill="#F7F2EC"/>
<path id="Vector_220" d="M84.5527 98.565L91.4365 103.05C92.4969 103.74 93.5846 104.405 94.5109 105.281C95.3875 106.107 96.1846 106.992 97.1705 107.693C98.2307 108.441 99.4052 109.008 100.647 109.372C100.726 109.391 100.808 109.378 100.878 109.337C100.947 109.295 100.998 109.228 101.019 109.149C101.04 109.071 101.031 108.987 100.992 108.916C100.953 108.844 100.888 108.791 100.811 108.767C99.704 108.441 98.653 107.946 97.6945 107.299C96.7012 106.621 95.8941 105.745 95.0274 104.912C94.1237 104.099 93.1468 103.373 92.1095 102.744L88.7247 100.54L84.8656 98.0304C84.5303 97.8096 84.2174 98.3516 84.5527 98.57V98.565Z" fill="#F7F2EC"/>
<path id="Vector_221" d="M92.5937 103.662C97.2574 103.548 101.921 103.638 106.585 103.931C106.982 103.956 106.982 103.328 106.585 103.303C101.929 103.007 97.2657 102.918 92.5937 103.035C92.5114 103.035 92.4325 103.068 92.3742 103.127C92.316 103.185 92.2833 103.265 92.2833 103.348C92.2833 103.432 92.316 103.511 92.3742 103.57C92.4325 103.629 92.5114 103.662 92.5937 103.662Z" fill="#F7F2EC"/>
<path id="Vector_222" d="M98.7275 103.67C99.5706 104.555 100.557 105.287 101.645 105.835C102.175 106.096 102.723 106.315 103.284 106.493C103.846 106.674 104.429 106.842 104.879 107.246C105.177 107.512 105.624 107.07 105.318 106.802C104.437 106.014 103.185 105.876 102.145 105.384C101.03 104.853 100.02 104.122 99.1646 103.225C98.8864 102.937 98.4494 103.378 98.7275 103.67Z" fill="#F7F2EC"/>
<path id="Vector_223" d="M110.111 99.7996C112.016 97.2449 114.681 95.3741 117.715 94.4616C118.095 94.3436 117.934 93.7388 117.549 93.8567C114.364 94.8216 111.569 96.7928 109.575 99.4809C109.326 99.8046 109.875 100.118 110.111 99.7996Z" fill="#F7F2EC"/>
<path id="Vector_224" d="M114.581 95.9046C115.016 95.9849 115.388 96.2509 115.778 96.4442C117.019 97.0577 118.356 97.45 119.729 97.6036C120.124 97.6488 120.121 97.0214 119.729 96.9762C118.845 96.8705 117.975 96.6607 117.139 96.3513C116.725 96.2002 116.322 96.0234 115.93 95.8218C115.563 95.5904 115.165 95.4146 114.748 95.2998C114.358 95.227 114.189 95.8318 114.581 95.9046Z" fill="#F7F2EC"/>
<path id="Vector_225" d="M30.0062 12.2949C33.5549 14.2073 37.5406 14.9602 41.2284 16.5112C43.1241 17.2971 44.8754 18.4001 46.4086 19.7738C47.1941 20.5145 48.0333 21.1949 48.9193 21.8091C49.7682 22.3601 50.6711 22.8209 51.6137 23.1844C53.7732 24.014 56.0778 24.3881 58.3858 24.2836C58.7831 24.2661 58.7856 23.6387 58.3858 23.6562C56.3562 23.7474 54.3274 23.4598 52.4009 22.808C51.4485 22.4825 50.5328 22.056 49.6692 21.5355C48.7714 20.9724 47.929 20.3237 47.1536 19.5981C46.3884 18.8825 45.5707 18.2265 44.7076 17.6355C43.8783 17.0936 43.0081 16.6187 42.105 16.215C40.3026 15.442 38.4587 14.7717 36.5821 14.2073C34.4464 13.5197 32.3058 12.8119 30.3216 11.7478C29.969 11.5571 29.6536 12.0992 30.0062 12.2874V12.2949Z" fill="#F7F2EC"/>
<path id="Vector_226" d="M39.6192 15.2111C36.8031 13.8007 34.7494 11.0902 33.8852 8.06107C33.6381 7.2021 33.4914 6.31685 33.4481 5.4234C33.4307 5.01935 32.8099 5.01935 32.8273 5.4234C32.9132 7.08853 33.3256 8.71981 34.0405 10.2225C34.7554 11.7253 35.7586 13.0695 36.9918 14.1771C37.6933 14.7992 38.4712 15.3272 39.3063 15.7482C39.6639 15.9264 39.9793 15.3868 39.6192 15.2061V15.2111Z" fill="#F7F2EC"/>
<path id="Vector_227" d="M49.4607 9.18782C51.4101 10.9596 52.3761 13.4869 53.4613 15.8334C53.9826 17.0243 54.6181 18.1608 55.3586 19.2265C56.2333 20.3834 57.3097 21.3691 58.5348 22.1352C59.8807 23.0287 61.2068 23.892 62.7689 24.3412C62.8418 24.3482 62.9149 24.3288 62.9751 24.2866C63.0353 24.2443 63.0788 24.1819 63.0978 24.1104C63.1168 24.0388 63.1102 23.9628 63.0791 23.8957C63.048 23.8287 62.9944 23.7749 62.9278 23.7439C61.5595 23.3449 60.4022 22.6221 59.2152 21.8491C57.9735 21.046 56.8238 20.1877 55.9397 18.9881C54.4025 16.9126 53.6004 14.4079 52.4034 12.1392C51.7681 10.8663 50.9185 9.7148 49.8928 8.73608C49.5948 8.46754 49.1478 8.90924 49.4532 9.18029L49.4607 9.18782Z" fill="#F7F2EC"/>
<path id="Vector_228" d="M54.6284 16.747C54.7838 12.3231 53.817 7.93258 51.8198 3.99285C51.636 3.63396 51.1021 3.95269 51.2834 4.31157C53.2295 8.15305 54.1699 12.4341 54.015 16.747C54.0001 17.1511 54.621 17.1511 54.6359 16.747H54.6284Z" fill="#F7F2EC"/>
<path id="Vector_229" d="M94.3842 98.718C95.709 98.7229 97.0315 98.6053 98.3352 98.3667C99.7339 98.1395 101.102 97.7504 102.413 97.2072C103.731 96.6353 104.896 95.7554 105.812 94.6398C106.376 93.9747 106.9 93.272 107.397 92.5543C107.915 91.8358 108.381 91.081 108.793 90.2956C109.197 89.4515 109.412 88.5278 109.423 87.5901C109.461 86.6289 109.423 85.6602 109.751 84.7391C109.885 84.3577 109.287 84.1945 109.153 84.571C108.601 86.132 109.061 87.8461 108.507 89.3996C108.184 90.1945 107.767 90.9471 107.265 91.6407C106.783 92.3736 106.272 93.0863 105.726 93.7689C104.817 94.9058 103.808 95.867 102.497 96.4869C101.28 97.0352 100 97.4313 98.6878 97.6665C97.2755 97.9555 95.8376 98.0976 94.3966 98.0906C94.3143 98.0906 94.2353 98.1237 94.1771 98.1825C94.1189 98.2413 94.0862 98.3211 94.0862 98.4043C94.0862 98.4875 94.1189 98.5673 94.1771 98.6261C94.2353 98.685 94.3143 98.718 94.3966 98.718H94.3842Z" fill="#F7F2EC"/>
<path id="Vector_230" d="M108.013 91.7209C109.858 90.19 111.599 88.4232 113.824 87.4545C114.189 87.2964 113.873 86.7543 113.511 86.9149C111.241 87.9037 109.458 89.7182 107.573 91.2792C107.263 91.5302 107.705 91.9769 108.013 91.7235V91.7209Z" fill="#F7F2EC"/>
<path id="Vector_231" d="M95.2112 98.6552C97.4809 98.5674 99.7532 98.4846 102.025 98.4921C103.118 98.4652 104.21 98.5138 105.296 98.6377C105.972 98.7728 106.636 98.9616 107.283 99.2023L110.543 100.206L117.891 102.482C118.274 102.603 118.438 101.996 118.055 101.878L111.479 99.8398L108.219 98.8359C107.39 98.5395 106.546 98.2882 105.691 98.083C104.668 97.9245 103.634 97.8574 102.599 97.8822C101.236 97.8647 99.8674 97.8822 98.5115 97.9249C97.4114 97.955 96.3113 97.9977 95.2112 98.0404C94.8138 98.0579 94.8113 98.6853 95.2112 98.6678V98.6552Z" fill="#F7F2EC"/>
<path id="Vector_232" d="M26.7083 32.9672C28.1834 31.6305 29.8731 30.5578 31.7048 29.7949C33.6269 28.9969 35.6781 28.6731 37.6648 28.1636C38.688 27.9131 39.6857 27.5661 40.6448 27.1271C41.6257 26.6729 42.5644 26.1233 43.5528 25.6991C45.0999 25.0115 46.8085 24.6953 48.4748 24.4744C50.3795 24.2235 52.2991 24.0955 54.2187 23.9951C54.6161 23.975 54.6186 23.3476 54.2187 23.3677C52.4804 23.458 50.7421 23.5659 49.0186 23.7767C47.2952 23.9875 45.5593 24.2611 43.9328 24.871C42.9867 25.2559 42.0623 25.6933 41.1638 26.181C40.2023 26.6772 39.1961 27.0797 38.159 27.3831C36.1053 27.9679 33.9771 28.2465 31.973 29.0119C29.8716 29.8184 27.9354 31.0095 26.2613 32.5255C25.9633 32.794 26.4054 33.2357 26.7009 32.9672H26.7083Z" fill="#F7F2EC"/>
<path id="Vector_233" d="M26.3557 27.6389C30.6742 27.3453 35.0474 28.8661 39.3162 27.659C39.3933 27.635 39.458 27.5816 39.4969 27.5102C39.5357 27.4388 39.5455 27.3549 39.5242 27.2764C39.5029 27.1978 39.4522 27.1306 39.3828 27.0892C39.3134 27.0477 39.2307 27.0352 39.1523 27.0542C34.953 28.2412 30.6121 26.7204 26.3557 27.0115C25.9584 27.0391 25.9559 27.6665 26.3557 27.6389Z" fill="#F7F2EC"/>
<path id="Vector_234" d="M35.9911 22.5518C37.6922 23.2169 39.4057 23.8644 41.2309 24.0576C42.9444 24.2308 44.7076 24.0576 46.3466 24.7152C46.7191 24.8657 46.8805 24.2584 46.513 24.1103C44.9013 23.4603 43.1456 23.5933 41.4495 23.4503C39.6068 23.2922 37.8685 22.6246 36.1575 21.9445C35.785 21.7989 35.6211 22.4063 35.9911 22.5493V22.5518Z" fill="#F7F2EC"/>
<path id="Vector_235" d="M44.0371 23.5482C43.6919 22.6046 42.9767 21.9019 42.1572 21.3623C41.7028 21.0636 41.2185 20.8152 40.7392 20.5592C40.4909 20.4287 40.2426 20.3082 40.0116 20.1551C39.8116 20.0582 39.646 19.9013 39.5373 19.7059C39.5136 19.6273 39.461 19.5609 39.3903 19.5203C39.3197 19.4796 39.2363 19.4679 39.1573 19.4876C39.078 19.5093 39.0105 19.5619 38.9696 19.6339C38.9286 19.7059 38.9175 19.7913 38.9388 19.8715C39.1325 20.3509 39.5298 20.6069 39.9619 20.8478C40.4586 21.1214 40.9553 21.3673 41.4271 21.6484C42.259 22.1328 43.0934 22.7727 43.4386 23.7138C43.5752 24.0903 44.1836 23.9272 44.0371 23.5482Z" fill="#F7F2EC"/>
<path id="Vector_236" d="M53.5357 110.83C53.1359 107.12 55.5075 103.634 54.7973 99.9125C54.7228 99.5185 54.1243 99.6841 54.1988 100.081C54.5415 101.878 54.0548 103.725 53.6301 105.461C53.2055 107.198 52.7187 109.018 52.9149 110.83C52.9571 111.226 53.578 111.231 53.5357 110.83Z" fill="#F7F2EC"/>
<path id="Vector_237" d="M53.9083 105.283C54.4049 105.881 54.9786 106.415 55.4802 107.015C56.0357 107.669 56.4079 108.461 56.558 109.309C56.7268 110.313 56.4015 111.201 56.0141 112.105C55.6267 113.008 55.1872 113.954 54.7576 114.865C54.5887 115.229 55.1226 115.548 55.294 115.182C55.7732 114.158 56.2525 113.131 56.6896 112.087C57.077 111.161 57.3303 110.255 57.1738 109.244C57.0295 108.343 56.6583 107.495 56.0961 106.782C55.5572 106.094 54.909 105.502 54.3577 104.832C54.1094 104.523 53.6624 104.97 53.9182 105.276L53.9083 105.283Z" fill="#F7F2EC"/>
<path id="Vector_238" d="M52.4158 97.9776C53.7274 99.5593 55.1906 101.006 56.784 102.297C58.274 103.529 59.8758 104.668 61.7234 105.263C62.7495 105.612 63.8396 105.725 64.9145 105.594C65.3043 105.542 65.3093 104.914 64.9145 104.967C63.0296 105.218 61.2143 104.573 59.6125 103.604C57.9636 102.6 56.4835 101.303 55.0978 99.9652C54.3018 99.2002 53.5514 98.3881 52.8504 97.5334C52.6021 97.2197 52.1625 97.6664 52.4133 97.9776H52.4158Z" fill="#F7F2EC"/>
<path id="Vector_239" d="M65.0511 116.911C64.0453 115.977 62.9427 114.953 62.6149 113.558C62.4945 112.855 62.4545 112.141 62.4957 111.43V109.505C62.4957 109.421 62.463 109.342 62.4048 109.283C62.3466 109.224 62.2676 109.191 62.1853 109.191C62.103 109.191 62.024 109.224 61.9658 109.283C61.9076 109.342 61.8749 109.421 61.8749 109.505V111.512C61.8323 112.284 61.8874 113.058 62.0388 113.816C62.4187 115.274 63.5511 116.364 64.6115 117.347C64.9046 117.621 65.3565 117.179 65.0511 116.906V116.911Z" fill="#F7F2EC"/>
<path id="Vector_240" d="M71.4357 111.269C69.2376 111.101 67.029 111.138 64.8375 111.377C64.4426 111.417 64.4401 112.044 64.8375 112.004C67.029 111.765 69.2376 111.729 71.4357 111.896C71.833 111.929 71.833 111.301 71.4357 111.269Z" fill="#F7F2EC"/>
<path id="Vector_241" d="M67.44 113.339C63.5238 111.081 60.6829 107.444 57.8842 103.963L55.0979 100.497C54.8495 100.184 54.41 100.63 54.6583 100.941C56.2352 102.902 57.7923 104.879 59.3965 106.814C60.8037 108.572 62.36 110.203 64.0478 111.688C65.0064 112.512 66.0371 113.246 67.1271 113.881C67.1983 113.923 67.283 113.935 67.3626 113.914C67.4422 113.893 67.5103 113.84 67.5518 113.768C67.5933 113.696 67.6048 113.611 67.5839 113.53C67.5629 113.45 67.5112 113.381 67.44 113.339Z" fill="#F7F2EC"/>
<path id="Vector_242" d="M43.0139 106.666C42.5644 103.74 42.1 100.723 42.5644 97.7793C42.7904 96.3111 43.3094 94.9258 43.7291 93.5128C44.1289 92.1802 44.4741 90.83 44.7522 89.4672C45.073 87.9403 45.3126 86.3972 45.4699 84.8444C45.5097 84.4429 44.8888 84.4454 44.8491 84.8444C44.5571 87.6517 44.0025 90.4248 43.1927 93.1263C42.7705 94.5568 42.2391 95.9547 41.9932 97.4304C41.7687 98.8845 41.7087 100.36 41.8144 101.827C41.9212 103.509 42.172 105.175 42.4278 106.847C42.4899 107.246 43.0884 107.078 43.0263 106.681L43.0139 106.666Z" fill="#F7F2EC"/>
<path id="Vector_243" d="M47.1164 102.779L44.3176 91.1765C44.2233 90.785 43.6248 90.9506 43.7192 91.3421L46.5179 102.947C46.6123 103.338 47.2107 103.173 47.1164 102.779Z" fill="#F7F2EC"/>
<path id="Vector_244" d="M38.8617 105.246C39.8898 103.928 41.5686 103.17 42.3036 101.612C42.3432 101.539 42.3537 101.454 42.3329 101.374C42.312 101.294 42.2616 101.226 42.1919 101.182C42.1567 101.162 42.1177 101.148 42.0773 101.143C42.0369 101.137 41.9958 101.139 41.9564 101.15C41.917 101.16 41.88 101.179 41.8475 101.204C41.815 101.229 41.7878 101.26 41.7672 101.295C41.0595 102.801 39.4155 103.531 38.4222 104.809C38.3667 104.869 38.3358 104.949 38.3358 105.031C38.3358 105.113 38.3667 105.193 38.4222 105.253C38.481 105.311 38.5599 105.343 38.6419 105.343C38.724 105.343 38.8029 105.311 38.8617 105.253V105.246Z" fill="#F7F2EC"/>
<path id="Vector_245" d="M25.5511 53.2904C26.8598 51.8524 28.2058 50.3717 29.964 49.4933C30.9185 49.0508 31.9177 48.7142 32.944 48.4894C34.0044 48.2234 35.0647 47.9699 36.1276 47.714L39.8328 46.813C40.2226 46.7201 40.0587 46.1153 39.6688 46.2081C37.4438 46.7402 35.2212 47.2781 33.0011 47.8219C31.9763 48.0527 30.9733 48.3735 30.0037 48.7806C29.1028 49.1991 28.2664 49.7468 27.5204 50.4068C26.6691 51.1697 25.8646 51.9843 25.1115 52.8462C24.8409 53.1424 25.2779 53.5866 25.5511 53.2904Z" fill="#F7F2EC"/>
<path id="Vector_246" d="M22.6257 49.4354C25.9757 49.4354 29.3307 49.2447 32.6236 48.5445C33.0135 48.4617 32.8471 47.8568 32.4572 47.9397C29.2289 48.6273 25.9211 48.8105 22.6257 48.808C22.5434 48.808 22.4644 48.8411 22.4062 48.8999C22.348 48.9587 22.3153 49.0385 22.3153 49.1217C22.3153 49.2049 22.348 49.2847 22.4062 49.3435C22.4644 49.4024 22.5434 49.4354 22.6257 49.4354Z" fill="#F7F2EC"/>
<path id="Vector_247" d="M14.4333 69.7186C16.4992 67.6782 18.1288 65.231 19.2211 62.5284C19.3726 62.1545 18.7741 61.9914 18.6226 62.3603C17.5672 64.9602 15.9961 67.3141 14.0061 69.2769C13.7205 69.558 14.1601 70.0022 14.4457 69.7186H14.4333Z" fill="#F7F2EC"/>
<path id="Vector_248" d="M13.8645 63.9389C16.8818 63.718 19.6035 62.3352 22.3253 61.118C25.047 59.9008 27.8457 59.1228 30.5674 58.016C32.0877 57.4251 33.5345 56.657 34.8785 55.7272C35.2013 55.4963 34.8909 54.9517 34.5631 55.1851C32.2064 56.8716 29.4574 57.8027 26.7506 58.7413C25.4096 59.2056 24.0735 59.6825 22.7772 60.2471C21.4188 60.8319 20.0878 61.4844 18.717 62.0441C17.1649 62.6765 15.5532 63.191 13.8745 63.3139C13.4796 63.3416 13.4771 63.969 13.8745 63.9414L13.8645 63.9389Z" fill="#F7F2EC"/>
<path id="Vector_249" d="M21.0091 72.8358C22.7747 70.6474 24.5056 68.4238 26.3209 66.2755C27.1854 65.258 28.1066 64.291 29.0799 63.3794C30.0202 62.514 30.8959 61.5796 31.6998 60.5836C32.5711 59.4761 33.333 58.285 33.9745 57.0274C34.1583 56.6685 33.6219 56.3498 33.4381 56.7087C32.2795 58.9511 30.7463 60.9744 28.9061 62.6892C27.9267 63.5982 26.9951 64.5582 26.1148 65.5653C25.2481 66.5692 24.4212 67.6232 23.5843 68.6597L20.5745 72.3916C20.3261 72.7028 20.7607 73.1445 21.014 72.8358H21.0091Z" fill="#F7F2EC"/>
<path id="Vector_250" d="M25.1935 74.5549C25.5834 73.1194 26.008 71.6864 26.3408 70.2383C26.6403 68.7888 26.8164 67.3161 26.8672 65.8363C26.8896 65.4348 26.2688 65.4348 26.2464 65.8363C26.1965 67.2999 26.0187 68.7562 25.715 70.1881C25.3822 71.5985 24.97 72.9914 24.595 74.3893C24.5762 74.4685 24.5886 74.552 24.6296 74.6222C24.6707 74.6923 24.7371 74.7435 24.8149 74.7651C24.8926 74.7866 24.9756 74.7767 25.0463 74.7375C25.1169 74.6982 25.1697 74.6328 25.1935 74.5549Z" fill="#F7F2EC"/>
<path id="Vector_251" d="M96.0729 24.3563C94.7716 23.4503 93.3835 22.4213 92.4646 21.0937C91.9406 20.3408 91.7047 19.4398 91.4291 18.584C91.1753 17.7518 90.8243 16.9531 90.3836 16.2048C89.4973 14.7259 88.253 13.4995 86.7679 12.6411C85.1785 11.7276 83.3831 11.2884 81.6 10.9395C79.5687 10.5405 77.4827 10.2444 75.568 9.41116C75.2054 9.25305 74.8876 9.79513 75.2551 9.95324C78.6325 11.4239 82.4916 11.2407 85.8167 12.8469C87.3959 13.6036 88.7374 14.7865 89.6932 16.2651C90.1711 17.0195 90.5478 17.8347 90.8132 18.6894C91.0889 19.5553 91.3099 20.4688 91.8065 21.2418C92.7626 22.7476 94.3147 23.897 95.7526 24.8983C96.0828 25.1292 96.3933 24.5846 96.0655 24.3563H96.0729Z" fill="#F7F2EC"/>
<path id="Vector_252" d="M82.8938 11.1706C81.9785 10.563 81.1511 9.82988 80.4353 8.99221C79.74 8.18159 79.1192 7.23544 78.8733 6.18389C78.7839 5.78987 78.1854 5.95551 78.2748 6.34952C78.5381 7.48641 79.2011 8.49529 79.9436 9.37368C80.708 10.2763 81.5961 11.064 82.5809 11.7127C82.9162 11.9335 83.2266 11.3915 82.8938 11.1706Z" fill="#F7F2EC"/>
<path id="Vector_253" d="M91.9827 20.1526C91.6177 18.5941 91.2874 16.9227 91.4563 15.314C91.5506 14.418 91.9778 13.7153 92.549 13.0553C93.2166 12.3349 93.8223 11.5583 94.3593 10.7338C94.9476 9.74864 95.3674 8.67026 95.601 7.54403C95.6804 7.15001 95.0819 6.98186 95.0025 7.37588C94.7922 8.41366 94.4156 9.40974 93.8875 10.3247C93.361 11.2332 92.6458 11.9636 91.9877 12.7692C91.4221 13.3958 91.0403 14.1692 90.8851 15.0028C90.7779 15.8623 90.7837 16.7323 90.9025 17.5902C91.0171 18.5133 91.1829 19.4291 91.3992 20.3333C91.491 20.7248 92.092 20.5592 91.9976 20.1652L91.9827 20.1526Z" fill="#F7F2EC"/>
<path id="Vector_254" d="M90.8901 16.7395C89.8173 13.3289 88.8066 9.88308 87.329 6.62301C87.1626 6.2566 86.6262 6.57533 86.7926 6.93923C88.2478 10.1466 89.2337 13.5497 90.2916 16.9051C90.4108 17.2891 91.0118 17.126 90.8901 16.7395Z" fill="#F7F2EC"/>
<path id="Vector_255" d="M89.0202 10.9446C89.9385 10.4125 90.6899 9.62969 91.1882 8.68587C91.7544 7.60922 91.8612 6.42716 91.9083 5.23256C91.9257 4.83101 91.3049 4.83101 91.2875 5.23256C91.2453 6.31925 91.1658 7.39339 90.6518 8.36965C90.2057 9.21664 89.5316 9.91879 88.7073 10.395C88.6352 10.4369 88.5825 10.5061 88.5609 10.5872C88.5392 10.6684 88.5504 10.755 88.5918 10.8279C88.6333 10.9008 88.7018 10.954 88.7821 10.9759C88.8625 10.9978 88.9481 10.9865 89.0202 10.9446Z" fill="#F7F2EC"/>
<path id="Vector_256" d="M98.8194 28.8136C99.5346 25.0817 101.608 21.8342 102.751 18.2479C103.079 17.2341 103.306 16.19 103.431 15.1309C103.478 14.7318 102.855 14.7343 102.81 15.1309C102.385 18.8627 100.369 22.1303 99.0851 25.5912C98.7112 26.583 98.4196 27.6047 98.2135 28.6454C98.1365 29.0395 98.735 29.2101 98.812 28.8136H98.8194Z" fill="#F7F2EC"/>
<path id="Vector_257" d="M100.923 22.8733C103.011 20.8906 106.448 20.454 107.745 17.623C107.911 17.2591 107.375 16.9379 107.208 17.3043C106.62 18.5918 105.445 19.4149 104.248 20.065C102.949 20.7802 101.576 21.3825 100.483 22.419C100.193 22.6951 100.632 23.1393 100.923 22.8632V22.8733Z" fill="#F7F2EC"/>
<path id="Vector_258" d="M98.966 27.2225C100.684 27.0684 102.351 26.5484 103.856 25.6966C105.323 24.8458 106.414 23.3124 108.053 22.7829C108.432 22.6599 108.271 22.0551 107.889 22.178C106.262 22.7025 105.212 24.1205 103.796 25.0014C102.327 25.8966 100.675 26.4416 98.966 26.595C98.5711 26.6302 98.5662 27.2601 98.966 27.2225Z" fill="#F7F2EC"/>
<path id="Vector_259" d="M32.3455 63.294L32.1642 66.6921C32.1423 67.8567 32.01 69.0164 31.7693 70.1555C31.5011 71.2472 31.1584 72.3088 31.002 73.4181C30.8456 74.5386 30.8132 75.6733 30.9051 76.8011C30.9399 77.2026 31.5607 77.2052 31.526 76.8011C31.4282 75.6691 31.4624 74.5294 31.6278 73.4055C31.7991 72.2711 32.1692 71.1945 32.425 70.0777C32.6385 68.9783 32.7582 67.8624 32.7825 66.7423L32.9663 63.284C32.9887 62.8799 32.3678 62.8799 32.3455 63.284V63.294Z" fill="#F7F2EC"/>
<path id="Vector_260" d="M31.9978 71.0614C34.7792 73.536 34.66 77.6292 34.1509 81.0098C33.9771 82.1642 33.766 83.3136 33.607 84.4731C33.5549 84.8671 34.1509 85.0378 34.2055 84.6388C34.7345 80.7839 35.8619 76.6931 34.1534 72.9713C33.7483 72.0753 33.164 71.2738 32.4374 70.6172C32.1369 70.3662 31.6924 70.7954 31.9978 71.0614Z" fill="#F7F2EC"/>
<path id="Vector_261" d="M34.6674 76.5752C35.217 76.9187 35.7139 77.3414 36.1425 77.8301C36.5977 78.3356 37.1527 78.7391 37.7716 79.0146C37.8509 79.0363 37.9355 79.0255 38.0071 78.9847C38.0786 78.9438 38.1314 78.8762 38.154 78.7963C38.1735 78.7162 38.162 78.6316 38.1218 78.5597C38.0817 78.4879 38.0159 78.4343 37.938 78.4098C37.3618 78.1839 36.9148 77.7247 36.4877 77.2905C36.0487 76.7999 35.5408 76.3771 34.9803 76.0357C34.6302 75.8449 34.3148 76.387 34.6674 76.5777V76.5752Z" fill="#F7F2EC"/>
<path id="Vector_262" d="M94.2948 24.0101H54.3131C53.8958 24.0064 53.485 24.1146 53.1225 24.3236C52.76 24.5325 52.4587 24.8348 52.2494 25.1997L32.276 59.9787C32.0674 60.3434 31.9575 60.7571 31.9575 61.1783C31.9575 61.5996 32.0674 62.0133 32.276 62.378L52.2494 97.157C52.4576 97.5184 52.7559 97.8184 53.1144 98.0271C53.473 98.2358 53.8794 98.346 54.2932 98.3466H94.2749C94.6884 98.3463 95.0946 98.2362 95.4529 98.0275C95.8111 97.8187 96.1088 97.5185 96.3162 97.157L116.319 62.378C116.528 62.0133 116.638 61.5996 116.638 61.1783C116.638 60.7571 116.528 60.3434 116.319 59.9787L96.3361 25.1997C96.1291 24.8378 95.8314 24.5374 95.4731 24.3286C95.1148 24.1197 94.7084 24.0099 94.2948 24.0101Z" stroke="#F7F2EC" stroke-width="2" stroke-miterlimit="10"/>
<path id="Vector_263" d="M54.7153 61.6401C54.7153 63.8637 55.8552 65.2239 57.5612 65.2239C58.6241 65.2239 61.1074 63.811 61.1074 61.8233V53.5414L59.2971 53.2904V52.8813H68.8703V53.2729L67.06 53.5238V70.5218L68.8703 70.7728V71.1769H59.2971V70.7828L61.1074 70.5319V63.811C60.6108 64.9102 58.5446 65.904 56.6051 65.904C52.2047 65.904 48.7901 63.5751 48.7901 59.3663V53.5339L46.9797 53.2829V52.8813H56.5282V53.2729L54.7153 53.5238V61.6401Z" fill="#F7F2EC"/>
<path id="Vector_264" d="M83.5047 71.1769L76.519 55.2756V70.5218L78.5628 70.7728V71.1769H73.9314V70.7828L75.7418 70.5319V53.5339L73.9562 53.2829V52.8813H81.9526L87.9548 66.4788L94.1135 52.8813H101.876V53.2729L100.066 53.5238V70.5218L101.876 70.7728V71.1769H92.0697V70.7828L94.1135 70.5319V54.864L86.7678 71.1769H83.5047Z" fill="#F7F2EC"/>
</g>
</g>
<defs>
<clipPath id="clip0_11_1126">
<rect width="152" height="144" fill="white"/>
</clipPath>
</defs>
</svg>
