<svg width="237" height="19" viewBox="0 0 237 19" fill="none" xmlns="http://www.w3.org/2000/svg">
<g clip-path="url(#clip0_11_1645)">
<path d="M11.4651 9.51846V2.87252L12.0691 2.91683L12.5338 2.94268L12.9752 2.91683L13.6025 2.87252V18.7489L13.165 18.7157C13.0686 18.7205 12.9721 18.7118 12.8784 18.6899H12.5338L12.0343 18.7157L11.4651 18.76V10.7849C10.9287 11.0458 10.3766 11.2764 9.81176 11.4753C9.52135 11.5824 9.19998 11.6821 8.8515 11.7744C8.50301 11.8667 8.11968 11.959 7.68989 12.0402C6.93432 12.1777 6.16682 12.247 5.39762 12.247C4.55742 12.2406 3.72408 12.1021 2.93113 11.8372C2.13633 11.5936 1.41502 11.1706 0.828613 10.604C0.558066 10.343 0.344757 10.0333 0.201155 9.69289C0.0575539 9.35246 -0.0134494 8.98816 -0.00773746 8.62126V2.85776L0.607904 2.90206L1.06868 2.92791L1.47911 2.90206L2.12961 2.85776V8.59172C2.1216 8.98626 2.24153 9.37355 2.473 9.70066C2.70447 10.0278 3.0362 10.2788 3.42289 10.4194C4.3453 10.8224 5.35118 11.0218 6.36563 11.0027C7.28712 10.9869 8.20086 10.8388 9.07606 10.5634C9.92293 10.3315 10.7283 9.97921 11.4651 9.51846Z" fill="#483F3B"/>
<path d="M24.1344 2.51807L31.441 18.7305L30.9183 18.6972H30.775C30.7072 18.6945 30.6398 18.6859 30.5736 18.6714H30.1864H29.7992L29.4546 18.6972L28.9086 18.7415C28.5447 17.757 28.2749 17.0431 28.0994 16.6001C27.9832 16.2899 27.8284 15.9059 27.6387 15.4444C27.2514 14.4992 26.8294 13.5097 26.3531 12.4907H20.1578L19.5499 13.9675L18.8259 15.7804L18.2799 17.2314L17.7572 18.7711L17.37 18.7378C17.289 18.7421 17.2079 18.7334 17.1299 18.712H16.8473H16.5723L16.3478 18.7378L15.9915 18.7822L23.5807 2.56976L24.1344 2.51807ZM25.9659 11.4901L23.2555 5.58258L20.5993 11.4901H25.9659Z" fill="#483F3B"/>
<path d="M35.9132 11.4458V18.7305L35.4795 18.6972C35.3794 18.7023 35.2789 18.6936 35.1814 18.6714H34.8406L34.3566 18.6972L33.7758 18.7415V2.86513H38.1357C39.3837 2.83536 40.6305 2.95946 41.8451 3.23435C42.6276 3.39839 43.3235 3.8224 43.8083 4.43062C44.2439 5.10432 44.4533 5.88884 44.4084 6.67916C44.4418 7.48779 44.2423 8.2897 43.8315 8.99785C43.4188 9.63863 42.8277 10.1576 42.1239 10.4969C41.2009 10.9359 40.2163 11.2456 39.2006 11.4162C39.0418 11.4458 38.8134 11.4716 38.581 11.4938C38.3487 11.5159 38.0583 11.527 37.7834 11.527H37.5704H37.3768H37.1639H36.7767C36.7238 11.5043 36.6677 11.4894 36.6101 11.4827H35.9171L35.9132 11.4458ZM35.9132 3.74018V10.5375L37.0322 10.5855L37.5704 10.5633C37.8531 10.5449 38.1048 10.5375 38.3177 10.5375C39.0456 10.485 39.752 10.2781 40.3854 9.93198C40.9438 9.62031 41.4028 9.16981 41.7135 8.62863C42.0273 8.05994 42.1857 7.42504 42.1743 6.78254C42.1799 6.28763 42.0812 5.79669 41.8839 5.3389C41.7002 4.90699 41.3845 4.53776 40.9778 4.27924C40.5125 3.99559 39.9799 3.828 39.429 3.79187L38.7165 3.76972C38.3022 3.76972 37.9189 3.74387 37.5549 3.74387H35.9209L35.9132 3.74018Z" fill="#483F3B"/>
<path d="M49.5273 3.0239V18.6603H47.4131V3.0239H49.5273Z" fill="#483F3B"/>
<path d="M51.3782 18.6603H53.562V2.85776H58.4602C59.4688 2.83747 60.4759 2.94046 61.4571 3.16421C62.1581 3.3126 62.7921 3.66788 63.2692 4.17956C63.7058 4.7161 63.9257 5.38438 63.8888 6.06258C63.8936 6.55826 63.7962 7.05002 63.6022 7.50991C63.4125 7.95189 63.138 8.35631 62.7929 8.7025C62.4392 9.06321 62.0259 9.36628 61.5694 9.59969C61.0745 9.83741 60.5556 10.0267 60.0206 10.1646C60.2634 10.1665 60.5055 10.1875 60.7447 10.2274C61.021 10.2733 61.2939 10.3362 61.5617 10.4157C62.0786 10.5414 62.5668 10.7567 63.0021 11.0507C63.4398 11.3345 63.7996 11.7144 64.0514 12.1584C64.3461 12.6687 64.4918 13.245 64.4734 13.8273C64.49 14.6041 64.298 15.3721 63.9158 16.0584C63.5336 16.7446 62.9738 17.3263 62.2896 17.7484C61.8269 18.0288 61.3214 18.2393 60.7911 18.3723C60.2394 18.4963 59.6791 18.5827 59.1145 18.6308L57.1437 18.6751L51.3782 18.6603ZM55.7033 3.71804V9.84338H56.5706C57.1887 9.84842 57.8067 9.82007 58.4214 9.75846C58.9259 9.70579 59.4192 9.58133 59.885 9.38924C60.4519 9.1653 60.9311 8.77803 61.2558 8.28158C61.5846 7.7738 61.7551 7.1873 61.7475 6.59056C61.7792 5.9938 61.611 5.40289 61.2674 4.90323C60.9214 4.46509 60.4301 4.15148 59.8735 4.01342C59.1371 3.8287 58.3773 3.74295 57.616 3.75866L55.7033 3.71804ZM55.7033 10.7332V17.8H58.131C58.865 17.813 59.5915 17.6572 60.249 17.3459C60.8532 17.0606 61.3576 16.6142 61.7011 16.061C62.0503 15.5033 62.2312 14.8645 62.2238 14.2149C62.2661 13.4766 62.051 12.7457 61.612 12.1362C61.1702 11.6044 60.5584 11.2245 59.8696 11.0544C58.9868 10.8249 58.0739 10.7179 57.1592 10.7369L55.7033 10.7332Z" fill="#483F3B"/>
<path d="M80.3798 9.51847V2.87253L80.9954 2.91684L81.4485 2.94268L81.8744 2.91684L82.5171 2.87253V18.7489L82.0757 18.7157C81.9807 18.7206 81.8854 18.7118 81.7931 18.6899H81.4485H81.0612L80.7515 18.7157L80.3643 18.7489V10.7738L78.649 10.7258L76.6626 10.6483H73.8205C73.5843 10.6483 73.2242 10.6483 72.7519 10.6889C72.2795 10.7295 71.9774 10.7258 71.8226 10.7258L70.1111 10.7738V18.7489L69.6736 18.7157C69.5734 18.7205 69.473 18.7118 69.3754 18.6899H69.0347L68.5507 18.7157L67.9698 18.76V2.8836L68.5855 2.92791L69.0347 2.95376L69.4606 2.92791L70.1111 2.8836V9.52954L75.2493 9.644C75.9773 9.61446 76.8356 9.58862 77.8242 9.56647C78.8271 9.52954 79.6712 9.51847 80.3798 9.51847Z" fill="#483F3B"/>
<path d="M86.9119 18.7305V2.85406C87.2631 2.91442 87.6201 2.93794 87.9767 2.92421L89.0492 2.85406V14.9644H89.3009L100.375 2.85406H101.444V18.7305C101.089 18.6897 100.732 18.6663 100.375 18.6603C100.135 18.6603 99.7787 18.6862 99.3024 18.7305V6.06257H99.0507L88.906 17.3127C88.3897 17.8542 87.9702 18.3268 87.6476 18.7305H86.9119Z" fill="#483F3B"/>
<path d="M105.834 18.7305V2.85407C106.544 2.94761 107.263 2.94761 107.972 2.85407V14.9644H108.22L119.298 2.85407H120.366V18.7305C120.01 18.6896 119.652 18.6662 119.294 18.6603C119.058 18.6603 118.701 18.6862 118.225 18.7305V6.06257H117.977L114.299 10.1461L109.211 15.7989L106.57 18.7305H105.834ZM117.644 0L118.225 0.930433C116.705 1.80014 114.964 2.25838 113.191 2.25593C111.421 2.25867 109.683 1.80858 108.158 0.952585L108.789 0C110.101 0.783208 111.625 1.18243 113.172 1.14827C114.749 1.18623 116.304 0.787371 117.648 0H117.644Z" fill="#483F3B"/>
<path d="M147.351 2.85776H147.862L148.303 6.77886C148.461 8.25574 148.631 9.68707 148.814 11.0729L149.287 14.8315L149.821 18.7305L149.345 18.6972C149.241 18.7015 149.136 18.6928 149.035 18.6714H148.679L148.144 18.6972L147.54 18.7415C147.528 17.9578 147.472 17.1752 147.374 16.397C147.308 15.9133 147.25 15.426 147.196 14.9201L146.87 11.7818L146.588 9.0754C146.479 8.00836 146.379 7.22931 146.293 6.75301L144.841 9.21939C144.365 10.0354 143.959 10.7516 143.618 11.3609L142.905 12.642L142.216 13.9232C142.042 14.2408 141.829 14.6617 141.539 15.2044C140.919 16.4056 140.38 17.4961 139.92 18.4757H139.649L138.317 15.8506C138.031 15.2893 137.69 14.6321 137.295 13.8789C136.931 13.1922 136.52 12.4021 136.025 11.5344L133.396 6.75301C133.326 7.35853 133.26 7.92344 133.202 8.45142C133.144 8.97941 133.07 9.55908 132.985 10.1831L132.598 13.6389L132.304 16.7404C132.304 16.9841 132.304 17.3274 132.269 17.7742C132.234 18.221 132.234 18.5385 132.234 18.7268L131.878 18.6935C131.801 18.6975 131.723 18.6887 131.649 18.6677H131.378H131.069L130.832 18.6935L130.499 18.7268L131.274 13.9676L132.25 7.36222C132.571 5.12107 132.776 3.61835 132.854 2.85406H133.485L135.258 6.17703L136.489 8.44403L138.251 11.5012C138.669 12.2174 139.006 12.786 139.262 13.1996C139.575 13.7312 139.951 14.3331 140.377 15.0124L142.255 11.7522L144.772 7.34377L145.856 5.47552C146.139 4.97707 146.429 4.47862 146.719 3.99864C147.01 3.51866 147.169 3.15313 147.351 2.85776Z" fill="#483F3B"/>
<path d="M160.953 19.0037C159.709 19.0151 158.472 18.8189 157.298 18.424C156.234 18.068 155.262 17.4989 154.448 16.7552C153.65 16.0159 153.028 15.122 152.624 14.1337C152.412 13.6229 152.253 13.0936 152.148 12.5534C152.042 11.9719 151.99 11.3825 151.993 10.7923C151.98 9.62948 152.21 8.47583 152.671 7.39915C153.109 6.39305 153.769 5.48883 154.607 4.74816C155.434 4.02812 156.401 3.46879 157.453 3.10145C158.589 2.70542 159.79 2.5078 160.999 2.51808C162.158 2.51747 163.311 2.67538 164.422 2.98699C165.497 3.28419 166.502 3.77417 167.384 4.43063C168.265 5.09592 168.973 5.94634 169.452 6.91548C169.987 8.01961 170.252 9.22538 170.227 10.4415C170.263 12.0015 169.862 13.5424 169.065 14.9054C168.292 16.1943 167.145 17.243 165.762 17.9256C164.278 18.6602 162.625 19.0308 160.953 19.0037ZM167.83 10.6224C167.837 9.97576 167.798 9.32938 167.714 8.68772C167.624 8.13066 167.467 7.58545 167.245 7.06316C167.01 6.50811 166.691 5.98832 166.3 5.51983C165.909 5.04938 165.441 4.64177 164.914 4.31249C164.365 3.9818 163.767 3.73047 163.141 3.56666C161.562 3.12654 159.872 3.22712 158.363 3.85096C157.52 4.21088 156.777 4.75174 156.19 5.43122C155.569 6.16169 155.108 7.00433 154.835 7.90868C154.516 8.93934 154.36 10.0094 154.371 11.084C154.355 12.1087 154.521 13.1286 154.862 14.1005C155.165 14.945 155.652 15.7189 156.291 16.3712C156.893 16.9863 157.629 17.4678 158.448 17.7816C159.263 18.0932 160.133 18.2524 161.011 18.2505C162.067 18.2727 163.11 18.0282 164.035 17.5416C164.883 17.0896 165.61 16.458 166.161 15.6955C166.716 14.9246 167.135 14.0729 167.404 13.1737C167.672 12.3469 167.816 11.4878 167.83 10.6224Z" fill="#483F3B"/>
<path d="M189.254 2.85776H189.765L190.206 6.77886C190.364 8.25574 190.534 9.68707 190.717 11.0729L191.19 14.8315L191.724 18.7305L191.248 18.6972C191.144 18.7015 191.04 18.6928 190.938 18.6714H190.582L190.048 18.6972L189.444 18.7415C189.431 17.9578 189.376 17.1752 189.277 16.397C189.211 15.9133 189.153 15.426 189.099 14.9201L188.774 11.7818L188.491 9.0754C188.383 8.00836 188.282 7.22931 188.197 6.75301L186.745 9.21939C186.268 10.0354 185.862 10.7516 185.521 11.3609L184.809 12.642L184.12 13.9232C183.945 14.2408 183.732 14.6617 183.442 15.2044C182.822 16.4056 182.283 17.4961 181.823 18.4757H181.552L180.22 15.8506C179.934 15.2893 179.593 14.6321 179.198 13.8789C178.834 13.1922 178.424 12.4021 177.928 11.5344L175.299 6.75301C175.229 7.35853 175.163 7.92344 175.105 8.45142C175.047 8.97941 174.974 9.55908 174.889 10.1831L174.501 13.6389L174.207 16.7404C174.207 16.9841 174.207 17.3274 174.172 17.7742C174.137 18.221 174.137 18.5385 174.137 18.7268L173.781 18.6935C173.704 18.6975 173.627 18.6887 173.553 18.6677H173.282H172.972L172.736 18.6935L172.403 18.7268L173.177 13.9676L174.153 7.36222C174.474 5.12107 174.679 3.61835 174.757 2.85406H175.388L177.161 6.17703L178.393 8.44403L180.154 11.5012C180.573 12.2174 180.929 12.786 181.165 13.1996C181.479 13.7312 181.854 14.3331 182.28 15.0124L184.158 11.7522L186.675 7.34377L187.759 5.47552C188.042 4.97707 188.332 4.47862 188.623 3.99864C188.913 3.51866 189.083 3.15313 189.254 2.85776Z" fill="#483F3B"/>
<path d="M197.176 3.95803V9.7806H201.61L202.334 9.71046L203.108 9.65507L203.062 10.0058L203.038 10.268L203.062 10.5043L203.108 10.9141L202.334 10.855L201.61 10.7997H197.176V17.5748L199.143 17.5305C200.297 17.4985 201.111 17.4825 201.586 17.4825C201.911 17.4834 202.235 17.4674 202.558 17.4345C202.876 17.3976 203.298 17.3422 203.828 17.2684L203.793 17.5194L203.759 17.7557V17.9699C203.756 18.0835 203.764 18.1972 203.782 18.3096L203.84 18.6603H195.05V2.85776H203.689L203.638 3.27867L203.615 3.55927L203.638 3.84357L203.689 4.24971C203.25 4.16849 202.921 4.1131 202.701 4.08356C202.304 4.02825 201.903 4.0011 201.501 4.00233L199.066 3.95803H197.176Z" fill="#483F3B"/>
<path d="M219.618 9.51847V2.87253L220.238 2.91684L220.687 2.94268L221.117 2.91684L221.756 2.87253V18.7489L221.318 18.7157C221.222 18.7203 221.125 18.7116 221.032 18.6899H220.687H220.319L220.013 18.7157L219.626 18.7489V10.7738L217.915 10.7258L215.928 10.6483H213.09C212.85 10.6483 212.494 10.6483 212.018 10.6889C211.541 10.7295 211.243 10.7258 211.092 10.7258L209.377 10.7738V18.7489L208.939 18.7157C208.84 18.7206 208.741 18.7119 208.645 18.6899H208.304L207.816 18.7157L207.24 18.76V2.8836L207.855 2.92791L208.304 2.95376L208.726 2.92791L209.377 2.8836V9.52954L214.515 9.644C215.247 9.61446 216.103 9.58862 217.09 9.56647C218.077 9.54431 218.898 9.51847 219.618 9.51847Z" fill="#483F3B"/>
<path d="M231.916 3.98018V18.7305C231.563 18.6866 231.207 18.6631 230.851 18.6603C230.492 18.6614 230.134 18.6848 229.779 18.7305V3.98018C228 3.98449 226.223 4.07445 224.455 4.24972L224.501 3.8805L224.528 3.56297V3.33775L224.505 3.15683L224.47 2.86145H237.016L236.969 3.28236L236.946 3.56297L236.969 3.84726L237.016 4.25341L234.665 4.06141C234.355 4.06141 234.022 4.05403 233.666 4.03926C232.749 3.99865 232.168 3.98018 231.916 3.98018Z" fill="#483F3B"/>
</g>
<defs>
<clipPath id="clip0_11_1645">
<rect width="237" height="19" fill="white"/>
</clipPath>
</defs>
</svg>
