<svg width="79" height="77" viewBox="0 0 79 77" fill="none" xmlns="http://www.w3.org/2000/svg">
<g clip-path="url(#clip0_11_1393)">
<path d="M68.4498 39.8936C69.0072 38.7412 69.2859 37.4743 69.2635 36.1948C69.2635 34.8589 68.995 33.5409 68.9673 32.2051C68.9389 31.4329 69.025 30.6607 69.2228 29.9137C69.2351 29.8624 69.227 29.8083 69.2001 29.7629C69.1732 29.7175 69.1297 29.6843 69.0788 29.6703C69.0278 29.6564 68.9734 29.6628 68.9271 29.6882C68.8808 29.7136 68.8462 29.756 68.8306 29.8064C68.1064 32.3969 69.174 35.0263 68.7476 37.6379C68.6367 38.3507 68.4172 39.0423 68.0967 39.6888C67.9795 39.9212 68.3294 40.1259 68.4482 39.8936H68.4498Z" fill="#483F3B"/>
<path d="M68.4141 40.0398C68.7542 39.0745 69.3759 38.2278 69.9568 37.3941C70.5643 36.5512 71.0907 35.6529 71.5288 34.711C71.9675 33.7338 72.3014 32.713 72.5248 31.6656C72.7559 30.5718 72.8177 29.4619 72.9414 28.3536C73.0888 27.0711 73.3719 25.8078 73.786 24.5849C73.8706 24.3379 73.4768 24.2306 73.3938 24.4776C73.0278 25.5591 72.7636 26.6722 72.6045 27.8026C72.4418 28.9402 72.4125 30.0778 72.2042 31.1975C72.0067 32.2646 71.6919 33.3067 71.2652 34.3048C70.8509 35.2482 70.3416 36.1472 69.7453 36.9878C69.0943 37.9207 68.4027 38.8519 68.0202 39.9326C67.934 40.1796 68.3262 40.2852 68.4141 40.0398Z" fill="#483F3B"/>
<path d="M72.4629 32.1661C72.6012 31.7728 72.9658 31.4721 73.288 31.2268C73.6102 30.9814 73.9991 30.7392 74.3555 30.5003C75.208 29.9216 75.9207 29.1605 76.4418 28.2723C76.469 28.2257 76.4765 28.1703 76.4628 28.1182C76.4491 28.0661 76.4152 28.0215 76.3686 27.9944C76.3219 27.9672 76.2664 27.9597 76.2142 27.9734C76.1621 27.9871 76.1175 28.021 76.0903 28.0675C75.5576 28.9642 74.8233 29.7248 73.9454 30.2891C73.2571 30.7408 72.3604 31.2381 72.0707 32.0621C71.9845 32.3091 72.3767 32.4147 72.4629 32.1693V32.1661Z" fill="#483F3B"/>
<path d="M73.646 25.6168C74.2635 25.6168 74.764 25.117 74.764 24.5004C74.764 23.8838 74.2635 23.3839 73.646 23.3839C73.0286 23.3839 72.528 23.8838 72.528 24.5004C72.528 25.117 73.0286 25.6168 73.646 25.6168Z" fill="#483F3B"/>
<path d="M62.1259 18.7474C62.7434 18.7474 63.2439 18.2476 63.2439 17.631C63.2439 17.0144 62.7434 16.5145 62.1259 16.5145C61.5085 16.5145 61.0079 17.0144 61.0079 17.631C61.0079 18.2476 61.5085 18.7474 62.1259 18.7474Z" fill="#483F3B"/>
<path d="M45.7157 4.0547C46.3332 4.0547 46.8337 3.55484 46.8337 2.93824C46.8337 2.32163 46.3332 1.82178 45.7157 1.82178C45.0983 1.82178 44.5977 2.32163 44.5977 2.93824C44.5977 3.55484 45.0983 4.0547 45.7157 4.0547Z" fill="#483F3B"/>
<path d="M15.6112 26.5302C16.2287 26.5302 16.7292 26.0303 16.7292 25.4137C16.7292 24.7971 16.2287 24.2972 15.6112 24.2972C14.9938 24.2972 14.4932 24.7971 14.4932 25.4137C14.4932 26.0303 14.9938 26.5302 15.6112 26.5302Z" fill="#483F3B"/>
<path d="M10.2995 28.6217C10.917 28.6217 11.4175 28.1218 11.4175 27.5052C11.4175 26.8886 10.917 26.3888 10.2995 26.3888C9.68206 26.3888 9.18152 26.8886 9.18152 27.5052C9.18152 28.1218 9.68206 28.6217 10.2995 28.6217Z" fill="#483F3B"/>
<path d="M9.28895 31.1666C9.9064 31.1666 10.4069 30.6668 10.4069 30.0502C10.4069 29.4336 9.9064 28.9337 9.28895 28.9337C8.6715 28.9337 8.17096 29.4336 8.17096 30.0502C8.17096 30.6668 8.6715 31.1666 9.28895 31.1666Z" fill="#483F3B"/>
<path d="M1.68922 40.1162C2.30667 40.1162 2.80722 39.6163 2.80722 38.9997C2.80722 38.3831 2.30667 37.8833 1.68922 37.8833C1.07177 37.8833 0.571228 38.3831 0.571228 38.9997C0.571228 39.6163 1.07177 40.1162 1.68922 40.1162Z" fill="#483F3B"/>
<path d="M11.922 36.2289C12.5395 36.2289 13.04 35.729 13.04 35.1124C13.04 34.4958 12.5395 33.996 11.922 33.996C11.3046 33.996 10.804 34.4958 10.804 35.1124C10.804 35.729 11.3046 36.2289 11.922 36.2289Z" fill="#483F3B"/>
<path d="M19.0791 56.2293C19.6966 56.2293 20.1971 55.7294 20.1971 55.1128C20.1971 54.4962 19.6966 53.9964 19.0791 53.9964C18.4617 53.9964 17.9611 54.4962 17.9611 55.1128C17.9611 55.7294 18.4617 56.2293 19.0791 56.2293Z" fill="#483F3B"/>
<path d="M54.1389 6.02433C54.7563 6.02433 55.2569 5.52448 55.2569 4.90787C55.2569 4.29127 54.7563 3.79141 54.1389 3.79141C53.5214 3.79141 53.0209 4.29127 53.0209 4.90787C53.0209 5.52448 53.5214 6.02433 54.1389 6.02433Z" fill="#483F3B"/>
<path d="M62.3472 12.3558C62.9647 12.3558 63.4652 11.856 63.4652 11.2394C63.4652 10.6228 62.9647 10.1229 62.3472 10.1229C61.7298 10.1229 61.2292 10.6228 61.2292 11.2394C61.2292 11.856 61.7298 12.3558 62.3472 12.3558Z" fill="#483F3B"/>
<path d="M40.7099 7.34394C41.3274 7.34394 41.8279 6.84409 41.8279 6.22748C41.8279 5.61088 41.3274 5.11102 40.7099 5.11102C40.0925 5.11102 39.5919 5.61088 39.5919 6.22748C39.5919 6.84409 40.0925 7.34394 40.7099 7.34394Z" fill="#483F3B"/>
<path d="M22.6317 9.72312C23.2491 9.72312 23.7497 9.22327 23.7497 8.60666C23.7497 7.99006 23.2491 7.4902 22.6317 7.4902C22.0142 7.4902 21.5137 7.99006 21.5137 8.60666C21.5137 9.22327 22.0142 9.72312 22.6317 9.72312Z" fill="#483F3B"/>
<path d="M54.5815 11.332C55.1989 11.332 55.6995 10.8321 55.6995 10.2155C55.6995 9.59892 55.1989 9.09906 54.5815 9.09906C53.964 9.09906 53.4635 9.59892 53.4635 10.2155C53.4635 10.8321 53.964 11.332 54.5815 11.332Z" fill="#483F3B"/>
<path d="M62.6483 15.6012C63.2658 15.6012 63.7663 15.1013 63.7663 14.4847C63.7663 13.8681 63.2658 13.3683 62.6483 13.3683C62.0309 13.3683 61.5303 13.8681 61.5303 14.4847C61.5303 15.1013 62.0309 15.6012 62.6483 15.6012Z" fill="#483F3B"/>
<path d="M76.5573 32.2392C77.1748 32.2392 77.6753 31.7393 77.6753 31.1227C77.6753 30.5061 77.1748 30.0063 76.5573 30.0063C75.9399 30.0063 75.4393 30.5061 75.4393 31.1227C75.4393 31.7393 75.9399 32.2392 76.5573 32.2392Z" fill="#483F3B"/>
<path d="M74.3751 39.835C74.9925 39.835 75.4931 39.3352 75.4931 38.7186C75.4931 38.102 74.9925 37.6021 74.3751 37.6021C73.7576 37.6021 73.2571 38.102 73.2571 38.7186C73.2571 39.3352 73.7576 39.835 74.3751 39.835Z" fill="#483F3B"/>
<path d="M66.4238 32.0994C67.1131 32.0994 67.672 31.5414 67.672 30.853C67.672 30.1646 67.1131 29.6065 66.4238 29.6065C65.7344 29.6065 65.1756 30.1646 65.1756 30.853C65.1756 31.5414 65.7344 32.0994 66.4238 32.0994Z" fill="#483F3B"/>
<path d="M66.5556 60.167C67.245 60.167 67.8038 59.6089 67.8038 58.9205C67.8038 58.2321 67.245 57.674 66.5556 57.674C65.8663 57.674 65.3074 58.2321 65.3074 58.9205C65.3074 59.6089 65.8663 60.167 66.5556 60.167Z" fill="#483F3B"/>
<path d="M51.3463 69.9762C52.0357 69.9762 52.5945 69.4182 52.5945 68.7297C52.5945 68.0413 52.0357 67.4833 51.3463 67.4833C50.657 67.4833 50.0981 68.0413 50.0981 68.7297C50.0981 69.4182 50.657 69.9762 51.3463 69.9762Z" fill="#483F3B"/>
<path d="M25.3282 69.0076C26.0176 69.0076 26.5764 68.4496 26.5764 67.7612C26.5764 67.0728 26.0176 66.5147 25.3282 66.5147C24.6388 66.5147 24.08 67.0728 24.08 67.7612C24.08 68.4496 24.6388 69.0076 25.3282 69.0076Z" fill="#483F3B"/>
<path d="M66.5996 28.6672C67.155 28.6672 67.6053 28.2175 67.6053 27.6629C67.6053 27.1082 67.155 26.6585 66.5996 26.6585C66.0441 26.6585 65.5939 27.1082 65.5939 27.6629C65.5939 28.2175 66.0441 28.6672 66.5996 28.6672Z" fill="#483F3B"/>
<path d="M60.8908 23.7902C61.4462 23.7902 61.8965 23.3405 61.8965 22.7859C61.8965 22.2312 61.4462 21.7815 60.8908 21.7815C60.3353 21.7815 59.8851 22.2312 59.8851 22.7859C59.8851 23.3405 60.3353 23.7902 60.8908 23.7902Z" fill="#483F3B"/>
<path d="M47.3658 11.4344C47.9212 11.4344 48.3715 10.9847 48.3715 10.43C48.3715 9.87537 47.9212 9.42572 47.3658 9.42572C46.8104 9.42572 46.3601 9.87537 46.3601 10.43C46.3601 10.9847 46.8104 11.4344 47.3658 11.4344Z" fill="#483F3B"/>
<path d="M48.6889 4.99239C49.2443 4.99239 49.6946 4.54273 49.6946 3.98806C49.6946 3.43339 49.2443 2.98373 48.6889 2.98373C48.1334 2.98373 47.6832 3.43339 47.6832 3.98806C47.6832 4.54273 48.1334 4.99239 48.6889 4.99239Z" fill="#483F3B"/>
<path d="M43.1933 4.74373C43.7487 4.74373 44.199 4.29408 44.199 3.7394C44.199 3.18473 43.7487 2.73508 43.1933 2.73508C42.6378 2.73508 42.1876 3.18473 42.1876 3.7394C42.1876 4.29408 42.6378 4.74373 43.1933 4.74373Z" fill="#483F3B"/>
<path d="M40.6676 12.5411C41.2231 12.5411 41.6733 12.0914 41.6733 11.5368C41.6733 10.9821 41.2231 10.5324 40.6676 10.5324C40.1122 10.5324 39.6619 10.9821 39.6619 11.5368C39.6619 12.0914 40.1122 12.5411 40.6676 12.5411Z" fill="#483F3B"/>
<path d="M17.3704 13.8282C17.9258 13.8282 18.3761 13.3785 18.3761 12.8238C18.3761 12.2692 17.9258 11.8195 17.3704 11.8195C16.815 11.8195 16.3647 12.2692 16.3647 12.8238C16.3647 13.3785 16.815 13.8282 17.3704 13.8282Z" fill="#483F3B"/>
<path d="M10.7747 16.8217C11.3302 16.8217 11.7805 16.372 11.7805 15.8173C11.7805 15.2627 11.3302 14.813 10.7747 14.813C10.2193 14.813 9.76904 15.2627 9.76904 15.8173C9.76904 16.372 10.2193 16.8217 10.7747 16.8217Z" fill="#483F3B"/>
<path d="M2.42477 26.4473C2.98021 26.4473 3.43048 25.9976 3.43048 25.443C3.43048 24.8883 2.98021 24.4386 2.42477 24.4386C1.86934 24.4386 1.41907 24.8883 1.41907 25.443C1.41907 25.9976 1.86934 26.4473 2.42477 26.4473Z" fill="#483F3B"/>
<path d="M10.3044 10.8233C10.8598 10.8233 11.3101 10.3737 11.3101 9.81899C11.3101 9.26432 10.8598 8.81467 10.3044 8.81467C9.74898 8.81467 9.29871 9.26432 9.29871 9.81899C9.29871 10.3737 9.74898 10.8233 10.3044 10.8233Z" fill="#483F3B"/>
<path d="M35.4211 4.53084C35.9765 4.53084 36.4268 4.08119 36.4268 3.52651C36.4268 2.97184 35.9765 2.52219 35.4211 2.52219C34.8656 2.52219 34.4153 2.97184 34.4153 3.52651C34.4153 4.08119 34.8656 4.53084 35.4211 4.53084Z" fill="#483F3B"/>
<path d="M33.3787 12.2242C33.9341 12.2242 34.3844 11.7745 34.3844 11.2198C34.3844 10.6652 33.9341 10.2155 33.3787 10.2155C32.8233 10.2155 32.373 10.6652 32.373 11.2198C32.373 11.7745 32.8233 12.2242 33.3787 12.2242Z" fill="#483F3B"/>
<path d="M25.6048 3.67439C26.1603 3.67439 26.6105 3.22474 26.6105 2.67007C26.6105 2.11539 26.1603 1.66574 25.6048 1.66574C25.0494 1.66574 24.5991 2.11539 24.5991 2.67007C24.5991 3.22474 25.0494 3.67439 25.6048 3.67439Z" fill="#483F3B"/>
<path d="M24.2622 6.72478C24.8177 6.72478 25.2679 6.27513 25.2679 5.72045C25.2679 5.16578 24.8177 4.71613 24.2622 4.71613C23.7068 4.71613 23.2565 5.16578 23.2565 5.72045C23.2565 6.27513 23.7068 6.72478 24.2622 6.72478Z" fill="#483F3B"/>
<path d="M13.3899 4.64299C13.9453 4.64299 14.3956 4.19334 14.3956 3.63867C14.3956 3.08399 13.9453 2.63434 13.3899 2.63434C12.8344 2.63434 12.3842 3.08399 12.3842 3.63867C12.3842 4.19334 12.8344 4.64299 13.3899 4.64299Z" fill="#483F3B"/>
<path d="M10.8772 8.41652C11.4327 8.41652 11.8829 7.96687 11.8829 7.41219C11.8829 6.85752 11.4327 6.40787 10.8772 6.40787C10.3218 6.40787 9.87152 6.85752 9.87152 7.41219C9.87152 7.96687 10.3218 8.41652 10.8772 8.41652Z" fill="#483F3B"/>
<path d="M69.039 58.4313C69.5944 58.4313 70.0447 57.9817 70.0447 57.427C70.0447 56.8723 69.5944 56.4227 69.039 56.4227C68.4835 56.4227 68.0333 56.8723 68.0333 57.427C68.0333 57.9817 68.4835 58.4313 69.039 58.4313Z" fill="#483F3B"/>
<path d="M69.6768 61.6572C70.2323 61.6572 70.6826 61.2076 70.6826 60.6529C70.6826 60.0982 70.2323 59.6486 69.6768 59.6486C69.1214 59.6486 68.6711 60.0982 68.6711 60.6529C68.6711 61.2076 69.1214 61.6572 69.6768 61.6572Z" fill="#483F3B"/>
<path d="M70.6728 64.1875C71.2283 64.1875 71.6785 63.7379 71.6785 63.1832C71.6785 62.6285 71.2283 62.1789 70.6728 62.1789C70.1174 62.1789 69.6671 62.6285 69.6671 63.1832C69.6671 63.7379 70.1174 64.1875 70.6728 64.1875Z" fill="#483F3B"/>
<path d="M75.0601 36.9488C75.6156 36.9488 76.0659 36.4992 76.0659 35.9445C76.0659 35.3898 75.6156 34.9402 75.0601 34.9402C74.5047 34.9402 74.0544 35.3898 74.0544 35.9445C74.0544 36.4992 74.5047 36.9488 75.0601 36.9488Z" fill="#483F3B"/>
<path d="M72.3994 42.0761C72.9549 42.0761 73.4052 41.6264 73.4052 41.0718C73.4052 40.5171 72.9549 40.0674 72.3994 40.0674C71.844 40.0674 71.3937 40.5171 71.3937 41.0718C71.3937 41.6264 71.844 42.0761 72.3994 42.0761Z" fill="#483F3B"/>
<path d="M70.6761 45.705C71.2315 45.705 71.6818 45.2553 71.6818 44.7007C71.6818 44.146 71.2315 43.6964 70.6761 43.6964C70.1206 43.6964 69.6703 44.146 69.6703 44.7007C69.6703 45.2553 70.1206 45.705 70.6761 45.705Z" fill="#483F3B"/>
<path d="M63.6768 55.3533C64.2322 55.3533 64.6825 54.9037 64.6825 54.349C64.6825 53.7943 64.2322 53.3447 63.6768 53.3447C63.1214 53.3447 62.6711 53.7943 62.6711 54.349C62.6711 54.9037 63.1214 55.3533 63.6768 55.3533Z" fill="#483F3B"/>
<path d="M66.8322 57.0337C67.3877 57.0337 67.8379 56.5841 67.8379 56.0294C67.8379 55.4747 67.3877 55.0251 66.8322 55.0251C66.2768 55.0251 65.8265 55.4747 65.8265 56.0294C65.8265 56.5841 66.2768 57.0337 66.8322 57.0337Z" fill="#483F3B"/>
<path d="M69.6297 67.4979C70.1851 67.4979 70.6354 67.0483 70.6354 66.4936C70.6354 65.9389 70.1851 65.4893 69.6297 65.4893C69.0742 65.4893 68.624 65.9389 68.624 66.4936C68.624 67.0483 69.0742 67.4979 69.6297 67.4979Z" fill="#483F3B"/>
<path d="M61.506 67.9936C62.0614 67.9936 62.5117 67.5439 62.5117 66.9892C62.5117 66.4346 62.0614 65.9849 61.506 65.9849C60.9505 65.9849 60.5002 66.4346 60.5002 66.9892C60.5002 67.5439 60.9505 67.9936 61.506 67.9936Z" fill="#483F3B"/>
<path d="M48.5587 68.733C49.1141 68.733 49.5644 68.2833 49.5644 67.7287C49.5644 67.174 49.1141 66.7243 48.5587 66.7243C48.0033 66.7243 47.553 67.174 47.553 67.7287C47.553 68.2833 48.0033 68.733 48.5587 68.733Z" fill="#483F3B"/>
<path d="M34.4055 76.9821C34.961 76.9821 35.4113 76.5325 35.4113 75.9778C35.4113 75.4231 34.961 74.9735 34.4055 74.9735C33.8501 74.9735 33.3998 75.4231 33.3998 75.9778C33.3998 76.5325 33.8501 76.9821 34.4055 76.9821Z" fill="#483F3B"/>
<path d="M17.1117 65.6355C17.6671 65.6355 18.1174 65.1859 18.1174 64.6312C18.1174 64.0765 17.6671 63.6269 17.1117 63.6269C16.5562 63.6269 16.106 64.0765 16.106 64.6312C16.106 65.1859 16.5562 65.6355 17.1117 65.6355Z" fill="#483F3B"/>
<path d="M34.0638 69.1913C34.6192 69.1913 35.0695 68.7416 35.0695 68.1869C35.0695 67.6323 34.6192 67.1826 34.0638 67.1826C33.5084 67.1826 33.0581 67.6323 33.0581 68.1869C33.0581 68.7416 33.5084 69.1913 34.0638 69.1913Z" fill="#483F3B"/>
<path d="M33.377 66.7536C33.9325 66.7536 34.3828 66.3039 34.3828 65.7493C34.3828 65.1946 33.9325 64.7449 33.377 64.7449C32.8216 64.7449 32.3713 65.1946 32.3713 65.7493C32.3713 66.3039 32.8216 66.7536 33.377 66.7536Z" fill="#483F3B"/>
<path d="M48.1518 75.2514C48.7073 75.2514 49.1575 74.8017 49.1575 74.247C49.1575 73.6924 48.7073 73.2427 48.1518 73.2427C47.5964 73.2427 47.1461 73.6924 47.1461 74.247C47.1461 74.8017 47.5964 75.2514 48.1518 75.2514Z" fill="#483F3B"/>
<path d="M36.3454 74.8207C36.9008 74.8207 37.3511 74.3711 37.3511 73.8164C37.3511 73.2617 36.9008 72.8121 36.3454 72.8121C35.7899 72.8121 35.3397 73.2617 35.3397 73.8164C35.3397 74.3711 35.7899 74.8207 36.3454 74.8207Z" fill="#483F3B"/>
<path d="M38.8255 73.3126C39.3809 73.3126 39.8312 72.863 39.8312 72.3083C39.8312 71.7536 39.3809 71.304 38.8255 71.304C38.27 71.304 37.8198 71.7536 37.8198 72.3083C37.8198 72.863 38.27 73.3126 38.8255 73.3126Z" fill="#483F3B"/>
<path d="M28.067 75.2042C28.6224 75.2042 29.0727 74.7546 29.0727 74.1999C29.0727 73.6452 28.6224 73.1956 28.067 73.1956C27.5116 73.1956 27.0613 73.6452 27.0613 74.1999C27.0613 74.7546 27.5116 75.2042 28.067 75.2042Z" fill="#483F3B"/>
<path d="M26.687 72.7519C27.2424 72.7519 27.6927 72.3023 27.6927 71.7476C27.6927 71.1929 27.2424 70.7433 26.687 70.7433C26.1315 70.7433 25.6813 71.1929 25.6813 71.7476C25.6813 72.3023 26.1315 72.7519 26.687 72.7519Z" fill="#483F3B"/>
<path d="M16.8496 69.3798C17.4051 69.3798 17.8553 68.9302 17.8553 68.3755C17.8553 67.8208 17.4051 67.3712 16.8496 67.3712C16.2942 67.3712 15.8439 67.8208 15.8439 68.3755C15.8439 68.9302 16.2942 69.3798 16.8496 69.3798Z" fill="#483F3B"/>
<path d="M12.2605 50.7169C12.816 50.7169 13.2662 50.2672 13.2662 49.7125C13.2662 49.1579 12.816 48.7082 12.2605 48.7082C11.7051 48.7082 11.2548 49.1579 11.2548 49.7125C11.2548 50.2672 11.7051 50.7169 12.2605 50.7169Z" fill="#483F3B"/>
<path d="M8.14816 49.2526C8.7036 49.2526 9.15387 48.803 9.15387 48.2483C9.15387 47.6936 8.7036 47.244 8.14816 47.244C7.59273 47.244 7.14246 47.6936 7.14246 48.2483C7.14246 48.803 7.59273 49.2526 8.14816 49.2526Z" fill="#483F3B"/>
<path d="M6.66238 32.7885C7.21782 32.7885 7.66809 32.3388 7.66809 31.7842C7.66809 31.2295 7.21782 30.7798 6.66238 30.7798C6.10695 30.7798 5.65668 31.2295 5.65668 31.7842C5.65668 32.3388 6.10695 32.7885 6.66238 32.7885Z" fill="#483F3B"/>
<path d="M1.21561 46.0706C1.77104 46.0706 2.22131 45.621 2.22131 45.0663C2.22131 44.5116 1.77104 44.062 1.21561 44.062C0.66017 44.062 0.2099 44.5116 0.2099 45.0663C0.2099 45.621 0.66017 46.0706 1.21561 46.0706Z" fill="#483F3B"/>
<path d="M8.38901 35.5382C8.94444 35.5382 9.39471 35.0886 9.39471 34.5339C9.39471 33.9792 8.94444 33.5296 8.38901 33.5296C7.83357 33.5296 7.3833 33.9792 7.3833 34.5339C7.3833 35.0886 7.83357 35.5382 8.38901 35.5382Z" fill="#483F3B"/>
<path d="M76.3295 28.7013C76.7142 28.7013 77.026 28.3899 77.026 28.0058C77.026 27.6216 76.7142 27.3102 76.3295 27.3102C75.9448 27.3102 75.633 27.6216 75.633 28.0058C75.633 28.3899 75.9448 28.7013 76.3295 28.7013Z" fill="#483F3B"/>
<path d="M69.1838 30.0534C69.5685 30.0534 69.8803 29.742 69.8803 29.3579C69.8803 28.9737 69.5685 28.6623 69.1838 28.6623C68.7991 28.6623 68.4873 28.9737 68.4873 29.3579C68.4873 29.742 68.7991 30.0534 69.1838 30.0534Z" fill="#483F3B"/>
<path d="M74.1195 43.1471C74.5042 43.1471 74.8161 42.8356 74.8161 42.4515C74.8161 42.0674 74.5042 41.756 74.1195 41.756C73.7349 41.756 73.423 42.0674 73.423 42.4515C73.423 42.8356 73.7349 43.1471 74.1195 43.1471Z" fill="#483F3B"/>
<path d="M72.3669 46.7028C72.7516 46.7028 73.0634 46.3914 73.0634 46.0073C73.0634 45.6231 72.7516 45.3117 72.3669 45.3117C71.9822 45.3117 71.6704 45.6231 71.6704 46.0073C71.6704 46.3914 71.9822 46.7028 72.3669 46.7028Z" fill="#483F3B"/>
<path d="M74.9593 52.7791C75.3439 52.7791 75.6558 52.4677 75.6558 52.0836C75.6558 51.6994 75.3439 51.388 74.9593 51.388C74.5746 51.388 74.2628 51.6994 74.2628 52.0836C74.2628 52.4677 74.5746 52.7791 74.9593 52.7791Z" fill="#483F3B"/>
<path d="M76.5508 26.0134C76.824 26.0134 77.0455 25.7922 77.0455 25.5193C77.0455 25.2465 76.824 25.0253 76.5508 25.0253C76.2776 25.0253 76.0561 25.2465 76.0561 25.5193C76.0561 25.7922 76.2776 26.0134 76.5508 26.0134Z" fill="#483F3B"/>
<path d="M78.5053 28.1699C78.7785 28.1699 79 27.9487 79 27.6759C79 27.403 78.7785 27.1818 78.5053 27.1818C78.2321 27.1818 78.0106 27.403 78.0106 27.6759C78.0106 27.9487 78.2321 28.1699 78.5053 28.1699Z" fill="#483F3B"/>
<path d="M70.6354 23.8942C70.9086 23.8942 71.1301 23.673 71.1301 23.4002C71.1301 23.1273 70.9086 22.9061 70.6354 22.9061C70.3622 22.9061 70.1407 23.1273 70.1407 23.4002C70.1407 23.673 70.3622 23.8942 70.6354 23.8942Z" fill="#483F3B"/>
<path d="M67.9812 22.0529C68.2544 22.0529 68.4759 21.8317 68.4759 21.5589C68.4759 21.286 68.2544 21.0648 67.9812 21.0648C67.7079 21.0648 67.4865 21.286 67.4865 21.5589C67.4865 21.8317 67.7079 22.0529 67.9812 22.0529Z" fill="#483F3B"/>
<path d="M69.4702 21.6661C69.7434 21.6661 69.9649 21.445 69.9649 21.1721C69.9649 20.8993 69.7434 20.6781 69.4702 20.6781C69.197 20.6781 68.9755 20.8993 68.9755 21.1721C68.9755 21.445 69.197 21.6661 69.4702 21.6661Z" fill="#483F3B"/>
<path d="M63.0666 22.7826C63.3398 22.7826 63.5613 22.5614 63.5613 22.2886C63.5613 22.0157 63.3398 21.7945 63.0666 21.7945C62.7933 21.7945 62.5718 22.0157 62.5718 22.2886C62.5718 22.5614 62.7933 22.7826 63.0666 22.7826Z" fill="#483F3B"/>
<path d="M63.1593 20.6017C63.4325 20.6017 63.654 20.3805 63.654 20.1077C63.654 19.8348 63.4325 19.6136 63.1593 19.6136C62.8861 19.6136 62.6646 19.8348 62.6646 20.1077C62.6646 20.3805 62.8861 20.6017 63.1593 20.6017Z" fill="#483F3B"/>
<path d="M64.1211 13.8022C64.3943 13.8022 64.6158 13.581 64.6158 13.3081C64.6158 13.0353 64.3943 12.8141 64.1211 12.8141C63.8478 12.8141 63.6263 13.0353 63.6263 13.3081C63.6263 13.581 63.8478 13.8022 64.1211 13.8022Z" fill="#483F3B"/>
<path d="M64.8095 12.3314C65.0827 12.3314 65.3042 12.1102 65.3042 11.8374C65.3042 11.5645 65.0827 11.3434 64.8095 11.3434C64.5363 11.3434 64.3148 11.5645 64.3148 11.8374C64.3148 12.1102 64.5363 12.3314 64.8095 12.3314Z" fill="#483F3B"/>
<path d="M60.8631 8.80817C61.1364 8.80817 61.3578 8.58699 61.3578 8.31414C61.3578 8.04129 61.1364 7.8201 60.8631 7.8201C60.5899 7.8201 60.3684 8.04129 60.3684 8.31414C60.3684 8.58699 60.5899 8.80817 60.8631 8.80817Z" fill="#483F3B"/>
<path d="M59.1593 8.41978C59.4325 8.41978 59.654 8.19859 59.654 7.92574C59.654 7.65289 59.4325 7.4317 59.1593 7.4317C58.886 7.4317 58.6646 7.65289 58.6646 7.92574C58.6646 8.19859 58.886 8.41978 59.1593 8.41978Z" fill="#483F3B"/>
<path d="M55.1104 8.63752C55.3837 8.63752 55.6052 8.41633 55.6052 8.14348C55.6052 7.87063 55.3837 7.64944 55.1104 7.64944C54.8372 7.64944 54.6157 7.87063 54.6157 8.14348C54.6157 8.41633 54.8372 8.63752 55.1104 8.63752Z" fill="#483F3B"/>
<path d="M54.1682 3.19663C54.4414 3.19663 54.6629 2.97544 54.6629 2.70259C54.6629 2.42975 54.4414 2.20856 54.1682 2.20856C53.895 2.20856 53.6735 2.42975 53.6735 2.70259C53.6735 2.97544 53.895 3.19663 54.1682 3.19663Z" fill="#483F3B"/>
<path d="M53.4001 1.27897C53.6733 1.27897 53.8948 1.05778 53.8948 0.784931C53.8948 0.512082 53.6733 0.290894 53.4001 0.290894C53.1268 0.290894 52.9053 0.512082 52.9053 0.784931C52.9053 1.05778 53.1268 1.27897 53.4001 1.27897Z" fill="#483F3B"/>
<path d="M42.6237 9.95225C42.8969 9.95225 43.1184 9.73106 43.1184 9.45821C43.1184 9.18536 42.8969 8.96417 42.6237 8.96417C42.3505 8.96417 42.129 9.18536 42.129 9.45821C42.129 9.73106 42.3505 9.95225 42.6237 9.95225Z" fill="#483F3B"/>
<path d="M36.6757 13.3195C36.949 13.3195 37.1705 13.0983 37.1705 12.8255C37.1705 12.5526 36.949 12.3315 36.6757 12.3315C36.4025 12.3315 36.181 12.5526 36.181 12.8255C36.181 13.0983 36.4025 13.3195 36.6757 13.3195Z" fill="#483F3B"/>
<path d="M33.3478 9.61912C33.621 9.61912 33.8425 9.39793 33.8425 9.12508C33.8425 8.85223 33.621 8.63104 33.3478 8.63104C33.0746 8.63104 32.8531 8.85223 32.8531 9.12508C32.8531 9.39793 33.0746 9.61912 33.3478 9.61912Z" fill="#483F3B"/>
<path d="M22.1695 5.56931C22.4427 5.56931 22.6642 5.34812 22.6642 5.07528C22.6642 4.80243 22.4427 4.58124 22.1695 4.58124C21.8962 4.58124 21.6747 4.80243 21.6747 5.07528C21.6747 5.34812 21.8962 5.56931 22.1695 5.56931Z" fill="#483F3B"/>
<path d="M15.9334 12.1283C16.2067 12.1283 16.4282 11.9071 16.4282 11.6343C16.4282 11.3614 16.2067 11.1402 15.9334 11.1402C15.6602 11.1402 15.4387 11.3614 15.4387 11.6343C15.4387 11.9071 15.6602 12.1283 15.9334 12.1283Z" fill="#483F3B"/>
<path d="M19.3444 12.9847C19.6176 12.9847 19.8391 12.7636 19.8391 12.4907C19.8391 12.2179 19.6176 11.9967 19.3444 11.9967C19.0712 11.9967 18.8497 12.2179 18.8497 12.4907C18.8497 12.7636 19.0712 12.9847 19.3444 12.9847Z" fill="#483F3B"/>
<path d="M14.6413 13.2626C14.9145 13.2626 15.136 13.0415 15.136 12.7686C15.136 12.4958 14.9145 12.2746 14.6413 12.2746C14.3681 12.2746 14.1466 12.4958 14.1466 12.7686C14.1466 13.0415 14.3681 13.2626 14.6413 13.2626Z" fill="#483F3B"/>
<path d="M10.8203 22.5096C11.0935 22.5096 11.315 22.2884 11.315 22.0156C11.315 21.7427 11.0935 21.5215 10.8203 21.5215C10.5471 21.5215 10.3256 21.7427 10.3256 22.0156C10.3256 22.2884 10.5471 22.5096 10.8203 22.5096Z" fill="#483F3B"/>
<path d="M6.35806 21.9765C6.63128 21.9765 6.85278 21.7554 6.85278 21.4825C6.85278 21.2097 6.63128 20.9885 6.35806 20.9885C6.08483 20.9885 5.86334 21.2097 5.86334 21.4825C5.86334 21.7554 6.08483 21.9765 6.35806 21.9765Z" fill="#483F3B"/>
<path d="M6.66891 18.1851C6.94213 18.1851 7.16363 17.9639 7.16363 17.6911C7.16363 17.4182 6.94213 17.1971 6.66891 17.1971C6.39569 17.1971 6.17419 17.4182 6.17419 17.6911C6.17419 17.9639 6.39569 18.1851 6.66891 18.1851Z" fill="#483F3B"/>
<path d="M7.31173 20.093C7.58496 20.093 7.80645 19.8718 7.80645 19.599C7.80645 19.3261 7.58496 19.1049 7.31173 19.1049C7.03851 19.1049 6.81702 19.3261 6.81702 19.599C6.81702 19.8718 7.03851 20.093 7.31173 20.093Z" fill="#483F3B"/>
<path d="M3.66317 24.359C3.9364 24.359 4.15789 24.1378 4.15789 23.8649C4.15789 23.5921 3.9364 23.3709 3.66317 23.3709C3.38995 23.3709 3.16846 23.5921 3.16846 23.8649C3.16846 24.1378 3.38995 24.359 3.66317 24.359Z" fill="#483F3B"/>
<path d="M7.78854 27.4483C8.06176 27.4483 8.28326 27.2272 8.28326 26.9543C8.28326 26.6815 8.06176 26.4603 7.78854 26.4603C7.51532 26.4603 7.29382 26.6815 7.29382 26.9543C7.29382 27.2272 7.51532 27.4483 7.78854 27.4483Z" fill="#483F3B"/>
<path d="M17.6601 23.8016C17.9333 23.8016 18.1548 23.5804 18.1548 23.3075C18.1548 23.0347 17.9333 22.8135 17.6601 22.8135C17.3868 22.8135 17.1653 23.0347 17.1653 23.3075C17.1653 23.5804 17.3868 23.8016 17.6601 23.8016Z" fill="#483F3B"/>
<path d="M8.21817 16.0936C8.49139 16.0936 8.71288 15.8724 8.71288 15.5996C8.71288 15.3267 8.49139 15.1055 8.21817 15.1055C7.94494 15.1055 7.72345 15.3267 7.72345 15.5996C7.72345 15.8724 7.94494 16.0936 8.21817 16.0936Z" fill="#483F3B"/>
<path d="M5.98056 19.5827C6.25378 19.5827 6.47527 19.3616 6.47527 19.0887C6.47527 18.8159 6.25378 18.5947 5.98056 18.5947C5.70733 18.5947 5.48584 18.8159 5.48584 19.0887C5.48584 19.3616 5.70733 19.5827 5.98056 19.5827Z" fill="#483F3B"/>
<path d="M17.7919 4.80061C18.0651 4.80061 18.2866 4.57942 18.2866 4.30657C18.2866 4.03372 18.0651 3.81253 17.7919 3.81253C17.5187 3.81253 17.2972 4.03372 17.2972 4.30657C17.2972 4.57942 17.5187 4.80061 17.7919 4.80061Z" fill="#483F3B"/>
<path d="M16.9066 2.8017C17.1798 2.8017 17.4013 2.58052 17.4013 2.30767C17.4013 2.03482 17.1798 1.81363 16.9066 1.81363C16.6334 1.81363 16.4119 2.03482 16.4119 2.30767C16.4119 2.58052 16.6334 2.8017 16.9066 2.8017Z" fill="#483F3B"/>
<path d="M13.3671 2.2898C13.6403 2.2898 13.8618 2.06861 13.8618 1.79577C13.8618 1.52292 13.6403 1.30173 13.3671 1.30173C13.0939 1.30173 12.8724 1.52292 12.8724 1.79577C12.8724 2.06861 13.0939 2.2898 13.3671 2.2898Z" fill="#483F3B"/>
<path d="M31.7074 6.48261C31.9806 6.48261 32.2021 6.26142 32.2021 5.98857C32.2021 5.71573 31.9806 5.49454 31.7074 5.49454C31.4342 5.49454 31.2127 5.71573 31.2127 5.98857C31.2127 6.26142 31.4342 6.48261 31.7074 6.48261Z" fill="#483F3B"/>
<path d="M38.8434 4.40571C39.1166 4.40571 39.3381 4.18452 39.3381 3.91167C39.3381 3.63882 39.1166 3.41763 38.8434 3.41763C38.5701 3.41763 38.3486 3.63882 38.3486 3.91167C38.3486 4.18452 38.5701 4.40571 38.8434 4.40571Z" fill="#483F3B"/>
<path d="M38.1794 11.7708C38.4526 11.7708 38.6741 11.5496 38.6741 11.2767C38.6741 11.0039 38.4526 10.7827 38.1794 10.7827C37.9062 10.7827 37.6847 11.0039 37.6847 11.2767C37.6847 11.5496 37.9062 11.7708 38.1794 11.7708Z" fill="#483F3B"/>
<path d="M44.5196 1.59751C44.7928 1.59751 45.0143 1.37632 45.0143 1.10347C45.0143 0.830624 44.7928 0.609436 44.5196 0.609436C44.2463 0.609436 44.0248 0.830624 44.0248 1.10347C44.0248 1.37632 44.2463 1.59751 44.5196 1.59751Z" fill="#483F3B"/>
<path d="M56.7915 9.18519C57.0647 9.18519 57.2862 8.964 57.2862 8.69115C57.2862 8.4183 57.0647 8.19711 56.7915 8.19711C56.5182 8.19711 56.2968 8.4183 56.2968 8.69115C56.2968 8.964 56.5182 9.18519 56.7915 9.18519Z" fill="#483F3B"/>
<path d="M64.0495 28.1016C64.4315 28.1016 64.7411 27.7924 64.7411 27.411C64.7411 27.0295 64.4315 26.7203 64.0495 26.7203C63.6675 26.7203 63.3578 27.0295 63.3578 27.411C63.3578 27.7924 63.6675 28.1016 64.0495 28.1016Z" fill="#483F3B"/>
<path d="M63.2244 24.5833C63.6064 24.5833 63.916 24.274 63.916 23.8926C63.916 23.5111 63.6064 23.2019 63.2244 23.2019C62.8424 23.2019 62.5328 23.5111 62.5328 23.8926C62.5328 24.274 62.8424 24.5833 63.2244 24.5833Z" fill="#483F3B"/>
<path d="M45.4765 9.67112C45.8585 9.67112 46.1681 9.36189 46.1681 8.98044C46.1681 8.59899 45.8585 8.28976 45.4765 8.28976C45.0945 8.28976 44.7849 8.59899 44.7849 8.98044C44.7849 9.36189 45.0945 9.67112 45.4765 9.67112Z" fill="#483F3B"/>
<path d="M35.107 10.4934C35.4889 10.4934 35.7986 10.1842 35.7986 9.80274C35.7986 9.42129 35.4889 9.11206 35.107 9.11206C34.725 9.11206 34.4153 9.42129 34.4153 9.80274C34.4153 10.1842 34.725 10.4934 35.107 10.4934Z" fill="#483F3B"/>
<path d="M15.3573 5.1045C15.7393 5.1045 16.049 4.79527 16.049 4.41382C16.049 4.03237 15.7393 3.72314 15.3573 3.72314C14.9754 3.72314 14.6657 4.03237 14.6657 4.41382C14.6657 4.79527 14.9754 5.1045 15.3573 5.1045Z" fill="#483F3B"/>
<path d="M12.433 6.98154C12.815 6.98154 13.1246 6.67232 13.1246 6.29087C13.1246 5.90942 12.815 5.60019 12.433 5.60019C12.051 5.60019 11.7414 5.90942 11.7414 6.29087C11.7414 6.67232 12.051 6.98154 12.433 6.98154Z" fill="#483F3B"/>
<path d="M17.2972 20.3449C17.6791 20.3449 17.9888 20.0357 17.9888 19.6542C17.9888 19.2728 17.6791 18.9636 17.2972 18.9636C16.9152 18.9636 16.6055 19.2728 16.6055 19.6542C16.6055 20.0357 16.9152 20.3449 17.2972 20.3449Z" fill="#483F3B"/>
<path d="M15.3085 14.9511C15.6905 14.9511 16.0001 14.6419 16.0001 14.2605C16.0001 13.879 15.6905 13.5698 15.3085 13.5698C14.9265 13.5698 14.6169 13.879 14.6169 14.2605C14.6169 14.6419 14.9265 14.9511 15.3085 14.9511Z" fill="#483F3B"/>
<path d="M8.80399 18.3997C9.18597 18.3997 9.49562 18.0904 9.49562 17.709C9.49562 17.3275 9.18597 17.0183 8.80399 17.0183C8.42202 17.0183 8.11237 17.3275 8.11237 17.709C8.11237 18.0904 8.42202 18.3997 8.80399 18.3997Z" fill="#483F3B"/>
<path d="M1.56876 23.9299C1.95074 23.9299 2.26039 23.6207 2.26039 23.2393C2.26039 22.8578 1.95074 22.5486 1.56876 22.5486C1.18679 22.5486 0.877136 22.8578 0.877136 23.2393C0.877136 23.6207 1.18679 23.9299 1.56876 23.9299Z" fill="#483F3B"/>
<path d="M13.0547 24.424C13.4366 24.424 13.7463 24.1148 13.7463 23.7333C13.7463 23.3519 13.4366 23.0426 13.0547 23.0426C12.6727 23.0426 12.363 23.3519 12.363 23.7333C12.363 24.1148 12.6727 24.424 13.0547 24.424Z" fill="#483F3B"/>
<path d="M8.89353 22.1244C9.27551 22.1244 9.58516 21.8152 9.58516 21.4338C9.58516 21.0523 9.27551 20.7431 8.89353 20.7431C8.51156 20.7431 8.2019 21.0523 8.2019 21.4338C8.2019 21.8152 8.51156 22.1244 8.89353 22.1244Z" fill="#483F3B"/>
<path d="M21.359 7.39756C21.741 7.39756 22.0507 7.08833 22.0507 6.70688C22.0507 6.32543 21.741 6.0162 21.359 6.0162C20.9771 6.0162 20.6674 6.32543 20.6674 6.70688C20.6674 7.08833 20.9771 7.39756 21.359 7.39756Z" fill="#483F3B"/>
<path d="M9.94804 6.15272C10.33 6.15272 10.6397 5.84349 10.6397 5.46204C10.6397 5.08059 10.33 4.77136 9.94804 4.77136C9.56606 4.77136 9.25641 5.08059 9.25641 5.46204C9.25641 5.84349 9.56606 6.15272 9.94804 6.15272Z" fill="#483F3B"/>
<path d="M8.43949 8.2345C8.82146 8.2345 9.13112 7.92528 9.13112 7.54383C9.13112 7.16238 8.82146 6.85315 8.43949 6.85315C8.05752 6.85315 7.74786 7.16238 7.74786 7.54383C7.74786 7.92528 8.05752 8.2345 8.43949 8.2345Z" fill="#483F3B"/>
<path d="M50.0298 2.90571C50.4118 2.90571 50.7214 2.59648 50.7214 2.21503C50.7214 1.83358 50.4118 1.52435 50.0298 1.52435C49.6478 1.52435 49.3382 1.83358 49.3382 2.21503C49.3382 2.59648 49.6478 2.90571 50.0298 2.90571Z" fill="#483F3B"/>
<path d="M46.946 1.50486C47.3279 1.50486 47.6376 1.19563 47.6376 0.814182C47.6376 0.432732 47.3279 0.123505 46.946 0.123505C46.564 0.123505 46.2543 0.432732 46.2543 0.814182C46.2543 1.19563 46.564 1.50486 46.946 1.50486Z" fill="#483F3B"/>
<path d="M36.5016 1.38136C36.8835 1.38136 37.1932 1.07213 37.1932 0.690678C37.1932 0.309227 36.8835 0 36.5016 0C36.1196 0 35.8099 0.309227 35.8099 0.690678C35.8099 1.07213 36.1196 1.38136 36.5016 1.38136Z" fill="#483F3B"/>
<path d="M68.3376 20.7268C68.7195 20.7268 69.0292 20.4176 69.0292 20.0362C69.0292 19.6547 68.7195 19.3455 68.3376 19.3455C67.9556 19.3455 67.6459 19.6547 67.6459 20.0362C67.6459 20.4176 67.9556 20.7268 68.3376 20.7268Z" fill="#483F3B"/>
<path d="M71.7176 19.0253C72.0995 19.0253 72.4092 18.7161 72.4092 18.3347C72.4092 17.9532 72.0995 17.644 71.7176 17.644C71.3356 17.644 71.0259 17.9532 71.0259 18.3347C71.0259 18.7161 71.3356 19.0253 71.7176 19.0253Z" fill="#483F3B"/>
<path d="M68.8209 17.6066C69.2029 17.6066 69.5125 17.2974 69.5125 16.9159C69.5125 16.5345 69.2029 16.2253 68.8209 16.2253C68.4389 16.2253 68.1293 16.5345 68.1293 16.9159C68.1293 17.2974 68.4389 17.6066 68.8209 17.6066Z" fill="#483F3B"/>
<path d="M64.9006 17.0394C65.2826 17.0394 65.5922 16.7302 65.5922 16.3488C65.5922 15.9673 65.2826 15.6581 64.9006 15.6581C64.5186 15.6581 64.209 15.9673 64.209 16.3488C64.209 16.7302 64.5186 17.0394 64.9006 17.0394Z" fill="#483F3B"/>
<path d="M77.0326 34.0236C77.3058 34.0236 77.5273 33.8024 77.5273 33.5296C77.5273 33.2567 77.3058 33.0355 77.0326 33.0355C76.7593 33.0355 76.5378 33.2567 76.5378 33.5296C76.5378 33.8024 76.7593 34.0236 77.0326 34.0236Z" fill="#483F3B"/>
<path d="M72.6386 44.2814C72.9119 44.2814 73.1334 44.0602 73.1334 43.7873C73.1334 43.5145 72.9119 43.2933 72.6386 43.2933C72.3654 43.2933 72.1439 43.5145 72.1439 43.7873C72.1439 44.0602 72.3654 44.2814 72.6386 44.2814Z" fill="#483F3B"/>
<path d="M71.6932 48.1736C71.9664 48.1736 72.1879 47.9524 72.1879 47.6795C72.1879 47.4067 71.9664 47.1855 71.6932 47.1855C71.42 47.1855 71.1985 47.4067 71.1985 47.6795C71.1985 47.9524 71.42 48.1736 71.6932 48.1736Z" fill="#483F3B"/>
<path d="M65.4815 52.4476C65.7548 52.4476 65.9763 52.2265 65.9763 51.9536C65.9763 51.6808 65.7548 51.4596 65.4815 51.4596C65.2083 51.4596 64.9868 51.6808 64.9868 51.9536C64.9868 52.2265 65.2083 52.4476 65.4815 52.4476Z" fill="#483F3B"/>
<path d="M72.6615 52.2429C72.9347 52.2429 73.1562 52.0217 73.1562 51.7488C73.1562 51.476 72.9347 51.2548 72.6615 51.2548C72.3882 51.2548 72.1667 51.476 72.1667 51.7488C72.1667 52.0217 72.3882 52.2429 72.6615 52.2429Z" fill="#483F3B"/>
<path d="M69.89 55.6865C70.1633 55.6865 70.3848 55.4653 70.3848 55.1925C70.3848 54.9196 70.1633 54.6984 69.89 54.6984C69.6168 54.6984 69.3953 54.9196 69.3953 55.1925C69.3953 55.4653 69.6168 55.6865 69.89 55.6865Z" fill="#483F3B"/>
<path d="M71.244 56.9281C71.5172 56.9281 71.7387 56.7069 71.7387 56.434C71.7387 56.1612 71.5172 55.94 71.244 55.94C70.9708 55.94 70.7493 56.1612 70.7493 56.434C70.7493 56.7069 70.9708 56.9281 71.244 56.9281Z" fill="#483F3B"/>
<path d="M71.2863 59.5429C71.5596 59.5429 71.7811 59.3217 71.7811 59.0489C71.7811 58.776 71.5596 58.5548 71.2863 58.5548C71.0131 58.5548 70.7916 58.776 70.7916 59.0489C70.7916 59.3217 71.0131 59.5429 71.2863 59.5429Z" fill="#483F3B"/>
<path d="M71.8396 62.1155C72.1129 62.1155 72.3343 61.8943 72.3343 61.6214C72.3343 61.3486 72.1129 61.1274 71.8396 61.1274C71.5664 61.1274 71.3449 61.3486 71.3449 61.6214C71.3449 61.8943 71.5664 62.1155 71.8396 62.1155Z" fill="#483F3B"/>
<path d="M71.5939 65.9833C71.8671 65.9833 72.0886 65.7621 72.0886 65.4892C72.0886 65.2164 71.8671 64.9952 71.5939 64.9952C71.3207 64.9952 71.0992 65.2164 71.0992 65.4892C71.0992 65.7621 71.3207 65.9833 71.5939 65.9833Z" fill="#483F3B"/>
<path d="M67.2245 68.9475C67.4977 68.9475 67.7192 68.7263 67.7192 68.4535C67.7192 68.1806 67.4977 67.9594 67.2245 67.9594C66.9512 67.9594 66.7297 68.1806 66.7297 68.4535C66.7297 68.7263 66.9512 68.9475 67.2245 68.9475Z" fill="#483F3B"/>
<path d="M63.6784 68.7427C63.9517 68.7427 64.1731 68.5216 64.1731 68.2487C64.1731 67.9759 63.9517 67.7547 63.6784 67.7547C63.4052 67.7547 63.1837 67.9759 63.1837 68.2487C63.1837 68.5216 63.4052 68.7427 63.6784 68.7427Z" fill="#483F3B"/>
<path d="M61.213 72.0531C61.4862 72.0531 61.7077 71.8319 61.7077 71.5591C61.7077 71.2862 61.4862 71.0651 61.213 71.0651C60.9398 71.0651 60.7183 71.2862 60.7183 71.5591C60.7183 71.8319 60.9398 72.0531 61.213 72.0531Z" fill="#483F3B"/>
<path d="M57.1219 72.9843C57.3951 72.9843 57.6166 72.7631 57.6166 72.4903C57.6166 72.2174 57.3951 71.9962 57.1219 71.9962C56.8486 71.9962 56.6271 72.2174 56.6271 72.4903C56.6271 72.7631 56.8486 72.9843 57.1219 72.9843Z" fill="#483F3B"/>
<path d="M51.8248 71.7135C52.098 71.7135 52.3195 71.4923 52.3195 71.2194C52.3195 70.9466 52.098 70.7254 51.8248 70.7254C51.5516 70.7254 51.3301 70.9466 51.3301 71.2194C51.3301 71.4923 51.5516 71.7135 51.8248 71.7135Z" fill="#483F3B"/>
<path d="M34.1972 70.701C34.4705 70.701 34.6919 70.4798 34.6919 70.207C34.6919 69.9341 34.4705 69.713 34.1972 69.713C33.924 69.713 33.7025 69.9341 33.7025 70.207C33.7025 70.4798 33.924 70.701 34.1972 70.701Z" fill="#483F3B"/>
<path d="M32.2021 76.0038C32.4753 76.0038 32.6968 75.7826 32.6968 75.5098C32.6968 75.2369 32.4753 75.0157 32.2021 75.0157C31.9289 75.0157 31.7074 75.2369 31.7074 75.5098C31.7074 75.7826 31.9289 76.0038 32.2021 76.0038Z" fill="#483F3B"/>
<path d="M26.3518 75.5341C26.625 75.5341 26.8465 75.3129 26.8465 75.0401C26.8465 74.7672 26.625 74.5461 26.3518 74.5461C26.0785 74.5461 25.8571 74.7672 25.8571 75.0401C25.8571 75.3129 26.0785 75.5341 26.3518 75.5341Z" fill="#483F3B"/>
<path d="M23.6569 74.4177C23.9301 74.4177 24.1516 74.1965 24.1516 73.9236C24.1516 73.6508 23.9301 73.4296 23.6569 73.4296C23.3837 73.4296 23.1622 73.6508 23.1622 73.9236C23.1622 74.1965 23.3837 74.4177 23.6569 74.4177Z" fill="#483F3B"/>
<path d="M17.9546 70.883C18.2278 70.883 18.4493 70.6618 18.4493 70.389C18.4493 70.1161 18.2278 69.895 17.9546 69.895C17.6814 69.895 17.4599 70.1161 17.4599 70.389C17.4599 70.6618 17.6814 70.883 17.9546 70.883Z" fill="#483F3B"/>
<path d="M13.8863 68.7915C14.1595 68.7915 14.381 68.5703 14.381 68.2974C14.381 68.0246 14.1595 67.8034 13.8863 67.8034C13.613 67.8034 13.3915 68.0246 13.3915 68.2974C13.3915 68.5703 13.613 68.7915 13.8863 68.7915Z" fill="#483F3B"/>
<path d="M15.1002 64.7059C15.3735 64.7059 15.595 64.4848 15.595 64.2119C15.595 63.9391 15.3735 63.7179 15.1002 63.7179C14.827 63.7179 14.6055 63.9391 14.6055 64.2119C14.6055 64.4848 14.827 64.7059 15.1002 64.7059Z" fill="#483F3B"/>
<path d="M14.7097 56.868C14.9829 56.868 15.2044 56.6468 15.2044 56.3739C15.2044 56.1011 14.9829 55.8799 14.7097 55.8799C14.4365 55.8799 14.215 56.1011 14.215 56.3739C14.215 56.6468 14.4365 56.868 14.7097 56.868Z" fill="#483F3B"/>
<path d="M11.7251 54.6757C11.9983 54.6757 12.2198 54.4545 12.2198 54.1816C12.2198 53.9088 11.9983 53.6876 11.7251 53.6876C11.4519 53.6876 11.2304 53.9088 11.2304 54.1816C11.2304 54.4545 11.4519 54.6757 11.7251 54.6757Z" fill="#483F3B"/>
<path d="M7.18155 50.4195C7.45477 50.4195 7.67626 50.1983 7.67626 49.9254C7.67626 49.6526 7.45477 49.4314 7.18155 49.4314C6.90832 49.4314 6.68683 49.6526 6.68683 49.9254C6.68683 50.1983 6.90832 50.4195 7.18155 50.4195Z" fill="#483F3B"/>
<path d="M1.1896 47.9639C1.46283 47.9639 1.68432 47.7427 1.68432 47.4699C1.68432 47.197 1.46283 46.9758 1.1896 46.9758C0.916377 46.9758 0.694885 47.197 0.694885 47.4699C0.694885 47.7427 0.916377 47.9639 1.1896 47.9639Z" fill="#483F3B"/>
<path d="M4.37271 44.8047C4.64593 44.8047 4.86742 44.5835 4.86742 44.3106C4.86742 44.0378 4.64593 43.8166 4.37271 43.8166C4.09948 43.8166 3.87799 44.0378 3.87799 44.3106C3.87799 44.5835 4.09948 44.8047 4.37271 44.8047Z" fill="#483F3B"/>
<path d="M3.91867 38.0425C4.19189 38.0425 4.41338 37.8213 4.41338 37.5485C4.41338 37.2756 4.19189 37.0544 3.91867 37.0544C3.64544 37.0544 3.42395 37.2756 3.42395 37.5485C3.42395 37.8213 3.64544 38.0425 3.91867 38.0425Z" fill="#483F3B"/>
<path d="M4.73562 33.4499C5.00885 33.4499 5.23034 33.2287 5.23034 32.9559C5.23034 32.683 5.00885 32.4619 4.73562 32.4619C4.4624 32.4619 4.24091 32.683 4.24091 32.9559C4.24091 33.2287 4.4624 33.4499 4.73562 33.4499Z" fill="#483F3B"/>
<path d="M15.7121 48.458C15.9853 48.458 16.2068 48.2368 16.2068 47.9639C16.2068 47.6911 15.9853 47.4699 15.7121 47.4699C15.4389 47.4699 15.2174 47.6911 15.2174 47.9639C15.2174 48.2368 15.4389 48.458 15.7121 48.458Z" fill="#483F3B"/>
<path d="M16.7373 51.5717C17.0106 51.5717 17.232 51.3505 17.232 51.0777C17.232 50.8048 17.0106 50.5836 16.7373 50.5836C16.4641 50.5836 16.2426 50.8048 16.2426 51.0777C16.2426 51.3505 16.4641 51.5717 16.7373 51.5717Z" fill="#483F3B"/>
<path d="M17.3834 56.9248C17.6566 56.9248 17.8781 56.7037 17.8781 56.4308C17.8781 56.158 17.6566 55.9368 17.3834 55.9368C17.1102 55.9368 16.8887 56.158 16.8887 56.4308C16.8887 56.7037 17.1102 56.9248 17.3834 56.9248Z" fill="#483F3B"/>
<path d="M20.2459 70.8651C20.5192 70.8651 20.7407 70.644 20.7407 70.3711C20.7407 70.0983 20.5192 69.8771 20.2459 69.8771C19.9727 69.8771 19.7512 70.0983 19.7512 70.3711C19.7512 70.644 19.9727 70.8651 20.2459 70.8651Z" fill="#483F3B"/>
<path d="M35.6472 69.8365C35.9205 69.8365 36.142 69.6153 36.142 69.3424C36.142 69.0696 35.9205 68.8484 35.6472 68.8484C35.374 68.8484 35.1525 69.0696 35.1525 69.3424C35.1525 69.6153 35.374 69.8365 35.6472 69.8365Z" fill="#483F3B"/>
<path d="M77.6265 42.9276C77.8997 42.9276 78.1212 42.7065 78.1212 42.4336C78.1212 42.1608 77.8997 41.9396 77.6265 41.9396C77.3533 41.9396 77.1318 42.1608 77.1318 42.4336C77.1318 42.7065 77.3533 42.9276 77.6265 42.9276Z" fill="#483F3B"/>
<path d="M78.0643 40.425C78.3375 40.425 78.559 40.2038 78.559 39.9309C78.559 39.6581 78.3375 39.4369 78.0643 39.4369C77.7911 39.4369 77.5696 39.6581 77.5696 39.9309C77.5696 40.2038 77.7911 40.425 78.0643 40.425Z" fill="#483F3B"/>
<path d="M74.4613 33.5572C74.8442 33.5572 75.1546 33.2472 75.1546 32.8649C75.1546 32.4825 74.8442 32.1726 74.4613 32.1726C74.0784 32.1726 73.7681 32.4825 73.7681 32.8649C73.7681 33.2472 74.0784 33.5572 74.4613 33.5572Z" fill="#483F3B"/>
<path d="M75.921 41.192C76.3039 41.192 76.6143 40.8821 76.6143 40.4997C76.6143 40.1174 76.3039 39.8074 75.921 39.8074C75.5382 39.8074 75.2278 40.1174 75.2278 40.4997C75.2278 40.8821 75.5382 41.192 75.921 41.192Z" fill="#483F3B"/>
<path d="M69.5451 47.7835C69.9279 47.7835 70.2383 47.4736 70.2383 47.0912C70.2383 46.7089 69.9279 46.3989 69.5451 46.3989C69.1622 46.3989 68.8518 46.7089 68.8518 47.0912C68.8518 47.4736 69.1622 47.7835 69.5451 47.7835Z" fill="#483F3B"/>
<path d="M63.6215 52.4021C64.0044 52.4021 64.3147 52.0922 64.3147 51.7098C64.3147 51.3275 64.0044 51.0175 63.6215 51.0175C63.2386 51.0175 62.9282 51.3275 62.9282 51.7098C62.9282 52.0922 63.2386 52.4021 63.6215 52.4021Z" fill="#483F3B"/>
<path d="M49.3186 70.5661C49.7015 70.5661 50.0119 70.2562 50.0119 69.8738C50.0119 69.4915 49.7015 69.1815 49.3186 69.1815C48.9357 69.1815 48.6254 69.4915 48.6254 69.8738C48.6254 70.2562 48.9357 70.5661 49.3186 70.5661Z" fill="#483F3B"/>
<path d="M43.2649 67.0201C43.6478 67.0201 43.9582 66.7102 43.9582 66.3278C43.9582 65.9455 43.6478 65.6355 43.2649 65.6355C42.882 65.6355 42.5717 65.9455 42.5717 66.3278C42.5717 66.7102 42.882 67.0201 43.2649 67.0201Z" fill="#483F3B"/>
<path d="M35.8392 68.0602C36.2221 68.0602 36.5325 67.7503 36.5325 67.3679C36.5325 66.9856 36.2221 66.6756 35.8392 66.6756C35.4564 66.6756 35.146 66.9856 35.146 67.3679C35.146 67.7503 35.4564 68.0602 35.8392 68.0602Z" fill="#483F3B"/>
<path d="M38.5895 75.0872C38.9724 75.0872 39.2827 74.7773 39.2827 74.3949C39.2827 74.0126 38.9724 73.7026 38.5895 73.7026C38.2066 73.7026 37.8962 74.0126 37.8962 74.3949C37.8962 74.7773 38.2066 75.0872 38.5895 75.0872Z" fill="#483F3B"/>
<path d="M37.0387 77C37.4215 77 37.7319 76.69 37.7319 76.3077C37.7319 75.9253 37.4215 75.6154 37.0387 75.6154C36.6558 75.6154 36.3454 75.9253 36.3454 76.3077C36.3454 76.69 36.6558 77 37.0387 77Z" fill="#483F3B"/>
<path d="M25.0027 74.1999C25.3856 74.1999 25.696 73.89 25.696 73.5076C25.696 73.1253 25.3856 72.8153 25.0027 72.8153C24.6198 72.8153 24.3094 73.1253 24.3094 73.5076C24.3094 73.89 24.6198 74.1999 25.0027 74.1999Z" fill="#483F3B"/>
<path d="M23.4111 64.5775C23.794 64.5775 24.1044 64.2676 24.1044 63.8852C24.1044 63.5029 23.794 63.1929 23.4111 63.1929C23.0283 63.1929 22.7179 63.5029 22.7179 63.8852C22.7179 64.2676 23.0283 64.5775 23.4111 64.5775Z" fill="#483F3B"/>
<path d="M21.3297 69.9258C21.7126 69.9258 22.023 69.6159 22.023 69.2335C22.023 68.8512 21.7126 68.5412 21.3297 68.5412C20.9469 68.5412 20.6365 68.8512 20.6365 69.2335C20.6365 69.6159 20.9469 69.9258 21.3297 69.9258Z" fill="#483F3B"/>
<path d="M15.3085 66.6723C15.6914 66.6723 16.0018 66.3624 16.0018 65.98C16.0018 65.5977 15.6914 65.2877 15.3085 65.2877C14.9257 65.2877 14.6153 65.5977 14.6153 65.98C14.6153 66.3624 14.9257 66.6723 15.3085 66.6723Z" fill="#483F3B"/>
<path d="M19.1149 58.2964C19.4978 58.2964 19.8082 57.9865 19.8082 57.6041C19.8082 57.2218 19.4978 56.9118 19.1149 56.9118C18.7321 56.9118 18.4217 57.2218 18.4217 57.6041C18.4217 57.9865 18.7321 58.2964 19.1149 58.2964Z" fill="#483F3B"/>
<path d="M5.33608 50.6844C5.71895 50.6844 6.02933 50.3744 6.02933 49.992C6.02933 49.6097 5.71895 49.2997 5.33608 49.2997C4.9532 49.2997 4.64282 49.6097 4.64282 49.992C4.64282 50.3744 4.9532 50.6844 5.33608 50.6844Z" fill="#483F3B"/>
<path d="M5.99355 35.5317C6.37642 35.5317 6.6868 35.2217 6.6868 34.8394C6.6868 34.4571 6.37642 34.1471 5.99355 34.1471C5.61067 34.1471 5.30029 34.4571 5.30029 34.8394C5.30029 35.2217 5.61067 35.5317 5.99355 35.5317Z" fill="#483F3B"/>
<path d="M5.36214 47.7055C5.74501 47.7055 6.05539 47.3956 6.05539 47.0132C6.05539 46.6309 5.74501 46.3209 5.36214 46.3209C4.97926 46.3209 4.66888 46.6309 4.66888 47.0132C4.66888 47.3956 4.97926 47.7055 5.36214 47.7055Z" fill="#483F3B"/>
<path d="M14.0717 55.3111C14.4546 55.3111 14.765 55.0011 14.765 54.6188C14.765 54.2364 14.4546 53.9265 14.0717 53.9265C13.6889 53.9265 13.3785 54.2364 13.3785 54.6188C13.3785 55.0011 13.6889 55.3111 14.0717 55.3111Z" fill="#483F3B"/>
<path d="M15.3606 62.122C15.7435 62.122 16.0539 61.812 16.0539 61.4297C16.0539 61.0474 15.7435 60.7374 15.3606 60.7374C14.9777 60.7374 14.6674 61.0474 14.6674 61.4297C14.6674 61.812 14.9777 62.122 15.3606 62.122Z" fill="#483F3B"/>
<path d="M12.1189 63.3148C12.5018 63.3148 12.8122 63.0049 12.8122 62.6225C12.8122 62.2402 12.5018 61.9302 12.1189 61.9302C11.736 61.9302 11.4257 62.2402 11.4257 62.6225C11.4257 63.0049 11.736 63.3148 12.1189 63.3148Z" fill="#483F3B"/>
<path d="M12.4558 56.7753C12.8386 56.7753 13.149 56.4654 13.149 56.083C13.149 55.7007 12.8386 55.3907 12.4558 55.3907C12.0729 55.3907 11.7625 55.7007 11.7625 56.083C11.7625 56.4654 12.0729 56.7753 12.4558 56.7753Z" fill="#483F3B"/>
<path d="M8.84468 51.5051C9.22756 51.5051 9.53794 51.1951 9.53794 50.8128C9.53794 50.4304 9.22756 50.1205 8.84468 50.1205C8.46181 50.1205 8.15143 50.4304 8.15143 50.8128C8.15143 51.1951 8.46181 51.5051 8.84468 51.5051Z" fill="#483F3B"/>
<path d="M3.39143 47.1189C3.77431 47.1189 4.08469 46.8089 4.08469 46.4266C4.08469 46.0442 3.77431 45.7343 3.39143 45.7343C3.00856 45.7343 2.69818 46.0442 2.69818 46.4266C2.69818 46.8089 3.00856 47.1189 3.39143 47.1189Z" fill="#483F3B"/>
<path d="M0.693254 41.9363C1.07613 41.9363 1.38651 41.6264 1.38651 41.244C1.38651 40.8617 1.07613 40.5517 0.693254 40.5517C0.31038 40.5517 0 40.8617 0 41.244C0 41.6264 0.31038 41.9363 0.693254 41.9363Z" fill="#483F3B"/>
<path d="M10.4721 48.601C10.8549 48.601 11.1653 48.291 11.1653 47.9087C11.1653 47.5263 10.8549 47.2164 10.4721 47.2164C10.0892 47.2164 9.77881 47.5263 9.77881 47.9087C9.77881 48.291 10.0892 48.601 10.4721 48.601Z" fill="#483F3B"/>
<path d="M12.9716 60.18C13.3545 60.18 13.6649 59.87 13.6649 59.4876C13.6649 59.1053 13.3545 58.7953 12.9716 58.7953C12.5888 58.7953 12.2784 59.1053 12.2784 59.4876C12.2784 59.87 12.5888 60.18 12.9716 60.18Z" fill="#483F3B"/>
<path d="M22.4803 67.5743C22.8632 67.5743 23.1736 67.2643 23.1736 66.882C23.1736 66.4996 22.8632 66.1897 22.4803 66.1897C22.0974 66.1897 21.787 66.4996 21.787 66.882C21.787 67.2643 22.0974 67.5743 22.4803 67.5743Z" fill="#483F3B"/>
<path d="M19.7431 69.7617C20.1259 69.7617 20.4363 69.4517 20.4363 69.0694C20.4363 68.687 20.1259 68.3771 19.7431 68.3771C19.3602 68.3771 19.0498 68.687 19.0498 69.0694C19.0498 69.4517 19.3602 69.7617 19.7431 69.7617Z" fill="#483F3B"/>
<path d="M23.9026 72.7048C24.2855 72.7048 24.5959 72.3948 24.5959 72.0125C24.5959 71.6301 24.2855 71.3202 23.9026 71.3202C23.5197 71.3202 23.2094 71.6301 23.2094 72.0125C23.2094 72.3948 23.5197 72.7048 23.9026 72.7048Z" fill="#483F3B"/>
<path d="M58.0787 71.3689C58.4616 71.3689 58.7719 71.059 58.7719 70.6766C58.7719 70.2943 58.4616 69.9843 58.0787 69.9843C57.6958 69.9843 57.3854 70.2943 57.3854 70.6766C57.3854 71.059 57.6958 71.3689 58.0787 71.3689Z" fill="#483F3B"/>
<path d="M60.881 70.116C61.2639 70.116 61.5742 69.806 61.5742 69.4237C61.5742 69.0413 61.2639 68.7314 60.881 68.7314C60.4981 68.7314 60.1877 69.0413 60.1877 69.4237C60.1877 69.806 60.4981 70.116 60.881 70.116Z" fill="#483F3B"/>
<path d="M64.7623 50.8518C65.1452 50.8518 65.4555 50.5418 65.4555 50.1595C65.4555 49.7771 65.1452 49.4672 64.7623 49.4672C64.3794 49.4672 64.069 49.7771 64.069 50.1595C64.069 50.5418 64.3794 50.8518 64.7623 50.8518Z" fill="#483F3B"/>
<path d="M70.4222 26.1629C70.9093 26.1629 71.3042 25.7685 71.3042 25.2821C71.3042 24.7956 70.9093 24.4012 70.4222 24.4012C69.9351 24.4012 69.5402 24.7956 69.5402 25.2821C69.5402 25.7685 69.9351 26.1629 70.4222 26.1629Z" fill="#483F3B"/>
<path d="M59.3676 10.6787C59.8547 10.6787 60.2496 10.2843 60.2496 9.79787C60.2496 9.31141 59.8547 8.91705 59.3676 8.91705C58.8804 8.91705 58.4855 9.31141 58.4855 9.79787C58.4855 10.2843 58.8804 10.6787 59.3676 10.6787Z" fill="#483F3B"/>
<path d="M51.7841 4.0547C52.2713 4.0547 52.6662 3.66034 52.6662 3.17388C52.6662 2.68742 52.2713 2.29306 51.7841 2.29306C51.297 2.29306 50.9021 2.68742 50.9021 3.17388C50.9021 3.66034 51.297 4.0547 51.7841 4.0547Z" fill="#483F3B"/>
<path d="M64.7346 46.6459C65.6752 46.7564 66.5751 46.238 67.1756 45.5457C67.8379 44.7819 68.2106 43.8345 68.6793 42.9455C69.5717 41.2678 70.7302 39.7454 72.1098 38.4374C72.8961 37.6918 73.7504 37.0209 74.6614 36.4337C74.8811 36.2923 74.6777 35.9461 74.4564 36.0826C72.0867 37.614 70.1096 39.679 68.6842 42.1118C68.196 42.9407 67.8396 43.841 67.3302 44.6552C66.772 45.5457 65.8656 46.3713 64.7378 46.2397C64.4774 46.2088 64.4807 46.6151 64.7378 46.6459H64.7346Z" fill="#483F3B"/>
<path d="M68.9186 42.6156C69.6834 41.8746 70.7656 41.3155 71.8478 41.3643C72.1098 41.374 72.1098 40.9677 71.8478 40.958C70.6566 40.9109 69.4653 41.5154 68.6256 42.3296C68.4385 42.5116 68.7249 42.7993 68.9137 42.6156H68.9186Z" fill="#483F3B"/>
<path d="M67.3628 45.4482C67.9079 45.3962 68.4092 45.1573 68.943 45.0436C69.4753 44.9343 70.0207 44.9025 70.5622 44.9493C70.8242 44.9704 70.8225 44.5641 70.5622 44.543C70.0237 44.4993 69.4818 44.5282 68.9511 44.6291C68.6888 44.6804 68.4301 44.7482 68.1764 44.8323C67.9138 44.9321 67.6409 45.0024 67.3628 45.0419C67.104 45.0663 67.1024 45.4742 67.3628 45.4482Z" fill="#483F3B"/>
<path d="M47.2031 63.8251L51.7141 66.7276C52.409 67.1761 53.1218 67.6052 53.7288 68.1723C54.3032 68.707 54.8256 69.2807 55.4717 69.7341C56.1666 70.2182 56.9362 70.5855 57.75 70.8213C57.8013 70.8336 57.8555 70.8255 57.901 70.7986C57.9465 70.7718 57.9797 70.7283 57.9936 70.6774C58.0076 70.6265 58.0012 70.5722 57.9757 70.526C57.9503 70.4797 57.9078 70.4452 57.8574 70.4296C57.1328 70.2186 56.4447 69.8986 55.8167 69.4806C55.1657 69.0418 54.6368 68.4746 54.0689 67.9351C53.477 67.4082 52.8368 66.9381 52.1567 66.531L49.9354 65.1025L47.4081 63.4774C47.1868 63.3343 46.9817 63.6854 47.2014 63.8268L47.2031 63.8251Z" fill="#483F3B"/>
<path d="M52.4692 67.1257C55.5254 67.0521 58.5816 67.11 61.6377 67.2996C61.8997 67.3159 61.8981 66.9096 61.6377 66.8933C58.587 66.7016 55.5308 66.6436 52.4692 66.7195C52.4153 66.7195 52.3635 66.7409 52.3254 66.779C52.2872 66.8171 52.2658 66.8687 52.2658 66.9226C52.2658 66.9765 52.2872 67.0282 52.3254 67.0662C52.3635 67.1043 52.4153 67.1257 52.4692 67.1257Z" fill="#483F3B"/>
<path d="M56.4888 67.1306C57.0412 67.7038 57.688 68.1781 58.4009 68.5331C58.7478 68.7016 59.1068 68.8439 59.4749 68.9589C59.8427 69.0759 60.2252 69.1864 60.5197 69.4464C60.715 69.6187 61.0079 69.3327 60.8078 69.1588C60.2317 68.6485 59.4099 68.5591 58.728 68.2406C57.9974 67.8971 57.3356 67.4235 56.7752 66.843C56.5913 66.6561 56.3049 66.9421 56.4871 67.1306H56.4888Z" fill="#483F3B"/>
<path d="M63.9551 64.6247C65.2038 62.9703 66.95 61.7584 68.9381 61.1664C69.1871 61.0901 69.0813 60.6984 68.829 60.7748C66.7421 61.3996 64.9107 62.676 63.6036 64.4167C63.4409 64.6263 63.8005 64.8295 63.9551 64.6231V64.6247Z" fill="#483F3B"/>
<path d="M66.8811 62.1025C67.1642 62.1545 67.4083 62.3268 67.6638 62.4519C67.937 62.5848 68.2173 62.7025 68.5035 62.8045C69.07 63.002 69.6568 63.1355 70.2529 63.2027C70.5117 63.232 70.5101 62.8257 70.2529 62.7964C69.6733 62.7279 69.1037 62.5921 68.5556 62.3918C68.2847 62.2936 68.0201 62.1791 67.7631 62.0489C67.5228 61.899 67.2618 61.7852 66.9885 61.7108C66.733 61.6637 66.6223 62.0554 66.8811 62.1025Z" fill="#483F3B"/>
<path d="M11.455 7.96311C13.7804 9.19658 16.3924 9.68737 18.8106 10.6917C20.0525 11.2014 21.2 11.9155 22.2053 12.8044C22.7198 13.2837 23.2692 13.7242 23.8489 14.1223C24.4052 14.4791 24.9969 14.7775 25.6146 15.0129C27.0297 15.5501 28.54 15.7924 30.0524 15.7247C30.3128 15.7133 30.3144 15.307 30.0524 15.3184C28.7224 15.3774 27.3929 15.1911 26.1305 14.7691C25.5063 14.5584 24.9063 14.2822 24.3404 13.9452C23.752 13.5806 23.2 13.1604 22.6919 12.6906C22.1904 12.2272 21.6545 11.8024 21.0889 11.4198C20.5469 11.0708 19.9783 10.7648 19.3883 10.5048C18.2072 10.0042 16.9989 9.57018 15.7691 9.20471C14.3696 8.75943 12.9668 8.30114 11.6665 7.61209C11.4354 7.48858 11.2288 7.83961 11.4598 7.96311H11.455Z" fill="#483F3B"/>
<path d="M17.7479 9.85149C15.9025 8.93817 14.5583 7.18304 13.9904 5.22152C13.8295 4.66616 13.7334 4.09412 13.7039 3.51676C13.6926 3.25511 13.2857 3.25511 13.2971 3.51676C13.3534 4.595 13.6237 5.65133 14.0922 6.62441C14.5606 7.59749 15.218 8.46793 16.0262 9.18519C16.4859 9.588 16.9956 9.92993 17.5429 10.2025C17.7772 10.3179 17.9839 9.9685 17.7479 9.85149Z" fill="#483F3B"/>
<path d="M24.2037 5.94307C25.4828 7.09041 26.1158 8.72691 26.8254 10.2464C27.166 11.0211 27.5825 11.7603 28.0686 12.4533C28.6422 13.2021 29.3475 13.8403 30.15 14.3368C31.0321 14.9154 31.9027 15.4744 32.9247 15.7653C32.9767 15.7798 33.0323 15.773 33.0793 15.7465C33.1263 15.7199 33.1608 15.6759 33.1753 15.6239C33.1898 15.572 33.1829 15.5165 33.1564 15.4695C33.1298 15.4226 33.0857 15.3881 33.0337 15.3737C32.137 15.1153 31.3787 14.6472 30.6008 14.1467C29.7871 13.6267 29.0337 13.0709 28.4543 12.2941C27.447 10.9501 26.923 9.32496 26.137 7.86235C25.7213 7.03772 25.1645 6.29195 24.4917 5.65868C24.2964 5.48479 24.0035 5.77081 24.2037 5.94632V5.94307Z" fill="#483F3B"/>
<path d="M27.5902 10.8444C27.692 7.97978 27.0584 5.13672 25.7496 2.58556C25.6309 2.35317 25.2793 2.55956 25.3981 2.79195C26.6742 5.27921 27.2905 8.05161 27.1882 10.8444C27.1785 11.1061 27.5853 11.1061 27.5951 10.8444H27.5902Z" fill="#483F3B"/>
<path d="M53.6425 63.9291C54.5107 63.9323 55.3774 63.8561 56.2316 63.7016C57.1455 63.5539 58.0393 63.302 58.8956 62.9508C59.7598 62.5809 60.5234 62.011 61.1235 61.2883C61.4929 60.8576 61.8363 60.4026 62.1634 59.9378C62.5015 59.4722 62.8066 58.9835 63.0763 58.4752C63.3413 57.9287 63.4824 57.3305 63.4897 56.7233C63.5141 56.1009 63.4896 55.4736 63.7045 54.8772C63.7923 54.6302 63.4002 54.5245 63.3123 54.7699C62.951 55.7791 63.252 56.8826 62.8908 57.895C62.6785 58.4095 62.4053 58.8967 62.0771 59.3463C61.7614 59.8208 61.4262 60.2824 61.0681 60.7244C60.4725 61.4606 59.8118 62.083 58.9526 62.4844C58.1571 62.8377 57.3216 63.0931 56.4643 63.245C55.5388 63.4321 54.5966 63.5241 53.6523 63.5196C53.5983 63.5196 53.5466 63.541 53.5084 63.5791C53.4703 63.6172 53.4489 63.6689 53.4489 63.7227C53.4489 63.7766 53.4703 63.8283 53.5084 63.8664C53.5466 63.9045 53.5983 63.9259 53.6523 63.9259L53.6425 63.9291Z" fill="#483F3B"/>
<path d="M62.5735 59.3934C63.7826 58.4021 64.9234 57.258 66.3815 56.6307C66.6207 56.5283 66.414 56.1773 66.1764 56.2813C64.689 56.9216 63.5206 58.0965 62.2854 59.1074C62.082 59.2699 62.3717 59.5592 62.5735 59.395V59.3934Z" fill="#483F3B"/>
<path d="M54.1828 63.8836C55.6686 63.8267 57.1577 63.7731 58.6467 63.778C59.363 63.7606 60.0796 63.7921 60.7915 63.8722C61.2343 63.9602 61.6696 64.0824 62.0934 64.2379L64.2285 64.8879L69.0439 66.3619C69.2945 66.4399 69.4019 66.0483 69.1529 65.9703L64.842 64.6507L62.7053 64.0006C62.1623 63.8084 61.6093 63.6457 61.0487 63.5131C60.3785 63.4099 59.7005 63.3659 59.0226 63.3814C58.1292 63.3701 57.2325 63.3814 56.344 63.4091C55.623 63.4286 54.9021 63.4562 54.1828 63.4838C53.9208 63.4952 53.9192 63.9015 54.1828 63.8901V63.8836Z" fill="#483F3B"/>
<path d="M9.29382 21.3509C10.2609 20.4859 11.368 19.7913 12.5681 19.2967C13.8293 18.7799 15.1718 18.5703 16.4737 18.2404C17.1443 18.0784 17.7981 17.8537 18.4265 17.5692C19.0775 17.2751 19.6845 16.9273 20.3322 16.6445C21.346 16.1992 22.4673 15.9945 23.5592 15.8515C24.8058 15.6889 26.0654 15.6061 27.3217 15.5427C27.5821 15.5281 27.5837 15.1218 27.3217 15.1364C26.1825 15.1933 25.0434 15.2632 23.914 15.3997C22.7846 15.5362 21.6471 15.7133 20.5812 16.1082C19.9613 16.3579 19.3556 16.6411 18.7667 16.9565C18.1365 17.2779 17.4772 17.5385 16.7976 17.735C15.4517 18.1136 14.0571 18.294 12.7438 18.7897C11.3665 19.3114 10.0975 20.0827 9.00089 21.0649C8.80398 21.2387 9.09365 21.5248 9.2873 21.3509H9.29382Z" fill="#483F3B"/>
<path d="M9.06278 17.8975C11.8944 17.7074 14.7585 18.6922 17.5559 17.9105C17.6064 17.895 17.6489 17.8604 17.6743 17.8142C17.6997 17.7679 17.7062 17.7136 17.6922 17.6627C17.6783 17.6118 17.645 17.5684 17.5995 17.5415C17.5541 17.5147 17.4999 17.5065 17.4485 17.5188C14.6967 18.2892 11.8521 17.3027 9.06278 17.4912C8.8024 17.5091 8.80077 17.9154 9.06278 17.8975Z" fill="#483F3B"/>
<path d="M15.3769 14.6034C16.4916 15.034 17.6145 15.4533 18.8106 15.5785C19.9335 15.6906 21.0889 15.5785 22.1646 16.0042C22.4071 16.1017 22.5129 15.7085 22.272 15.6126C21.2159 15.1917 20.0653 15.2778 18.9555 15.1852C17.7463 15.0828 16.6072 14.6505 15.4859 14.2101C15.2418 14.1158 15.1361 14.5091 15.3769 14.6018V14.6034Z" fill="#483F3B"/>
<path d="M20.6495 15.2485C20.4249 14.6375 19.9546 14.1824 19.4176 13.833C19.1198 13.6397 18.8025 13.4788 18.49 13.313C18.3273 13.2285 18.1645 13.1505 18.0116 13.0514C17.8805 12.9886 17.772 12.887 17.7007 12.7605C17.6856 12.7093 17.6512 12.6661 17.6047 12.6397C17.5583 12.6134 17.5035 12.606 17.4518 12.6191C17.3997 12.6335 17.3554 12.6679 17.3286 12.7148C17.3018 12.7617 17.2946 12.8172 17.3086 12.8693C17.4355 13.1781 17.6959 13.3439 17.979 13.4999C18.3045 13.677 18.63 13.8363 18.9392 14.0183C19.4843 14.332 20.0328 14.7464 20.2573 15.3558C20.3468 15.5996 20.7455 15.4939 20.6495 15.2485Z" fill="#483F3B"/>
<path d="M26.8742 71.7736C26.6122 69.3717 28.1663 67.1144 27.7008 64.7043C27.652 64.4492 27.2599 64.5564 27.3087 64.8132C27.5332 65.9768 27.2159 67.1729 26.936 68.2975C26.6561 69.4221 26.3404 70.6003 26.4673 71.7736C26.495 72.0304 26.9018 72.0336 26.8742 71.7736Z" fill="#483F3B"/>
<path d="M27.1183 68.1756C27.4437 68.5624 27.8196 68.9085 28.1484 69.2969C28.5124 69.7202 28.7563 70.2331 28.8547 70.7823C28.9653 71.4323 28.7521 72.0076 28.4983 72.5927C28.2444 73.1777 27.9564 73.7904 27.6748 74.3803C27.5642 74.616 27.914 74.8223 28.0263 74.5851C28.3404 73.922 28.6545 73.2573 28.9409 72.5813C29.1948 71.9816 29.3608 71.395 29.2582 70.74C29.1636 70.1569 28.9204 69.6079 28.5519 69.1458C28.1988 68.7005 27.7741 68.3186 27.4128 67.8831C27.2501 67.6832 26.9572 67.9724 27.1248 68.1707L27.1183 68.1756Z" fill="#483F3B"/>
<path d="M26.1402 63.4416C26.9998 64.4677 27.9586 65.4067 29.0027 66.2449C29.9791 67.0429 31.0288 67.7807 32.2395 68.1658C32.913 68.3894 33.6279 68.4605 34.3323 68.3738C34.5878 68.3413 34.591 67.9334 34.3323 67.9676C33.0971 68.1301 31.9076 67.7124 30.8595 67.0851C29.779 66.4351 28.8074 65.5949 27.8993 64.7287C27.3801 64.2335 26.891 63.7076 26.4347 63.1539C26.272 62.9508 25.9823 63.2401 26.1467 63.4416H26.1402Z" fill="#483F3B"/>
<path d="M34.4202 75.7048C33.7692 75.1002 33.0385 74.4372 32.8237 73.5336C32.7448 73.0788 32.7186 72.6163 32.7456 72.1555V70.9172C32.7456 70.8633 32.7242 70.8116 32.686 70.7735C32.6479 70.7354 32.5961 70.714 32.5422 70.714C32.4882 70.714 32.4365 70.7354 32.3984 70.7735C32.3602 70.8116 32.3388 70.8633 32.3388 70.9172V72.2173C32.3388 72.7145 32.3193 73.2232 32.4478 73.7091C32.6952 74.6533 33.4372 75.3586 34.1321 75.9957C34.3241 76.1728 34.6203 75.8868 34.4202 75.7096V75.7048Z" fill="#483F3B"/>
<path d="M38.6041 72.0547C37.1637 71.9463 35.7164 71.9697 34.2802 72.1246C34.0215 72.1506 34.0199 72.5569 34.2802 72.5309C35.7164 72.376 37.1637 72.3526 38.6041 72.461C38.8661 72.4821 38.8645 72.0759 38.6041 72.0547Z" fill="#483F3B"/>
<path d="M35.9874 73.3841C33.4194 71.9215 31.5577 69.5667 29.7237 67.3126L27.8978 65.0667C27.7351 64.8636 27.447 65.1529 27.6097 65.3544C28.6431 66.6236 29.6651 67.9042 30.7163 69.1572C31.6375 70.2961 32.6569 71.3521 33.7628 72.3131C34.3906 72.8471 35.066 73.3226 35.7807 73.7335C35.8273 73.7609 35.8829 73.7686 35.9352 73.7551C35.9876 73.7415 36.0324 73.7077 36.0598 73.6612C36.0872 73.6146 36.095 73.5591 36.0814 73.5069C36.0678 73.4546 36.034 73.4099 35.9874 73.3825V73.3841Z" fill="#483F3B"/>
<path d="M19.979 69.071C19.6861 67.1761 19.3802 65.2243 19.6763 63.31C19.8244 62.3576 20.1646 61.4606 20.4396 60.5472C20.7016 59.6843 20.9278 58.81 21.1101 57.9275C21.3202 56.9388 21.4772 55.9396 21.5804 54.9341C21.6064 54.674 21.1996 54.6757 21.1735 54.9341C20.9822 56.7519 20.6187 58.5476 20.0881 60.297C19.8131 61.2233 19.4632 62.1285 19.3021 63.0841C19.1557 64.0257 19.1164 64.9808 19.1849 65.9313C19.2549 67.0201 19.4209 68.0992 19.5869 69.1815C19.6275 69.4399 20.0197 69.331 19.979 69.0743V69.071Z" fill="#483F3B"/>
<path d="M22.6674 66.5537L20.8399 59.0407C20.778 58.7872 20.3859 58.8945 20.4477 59.148L22.2817 66.6626C22.3436 66.9161 22.7358 66.8088 22.6739 66.5537H22.6674Z" fill="#483F3B"/>
<path d="M17.2598 68.1544C17.9351 67.3012 19.0336 66.8105 19.5153 65.8013C19.5412 65.7544 19.5481 65.6994 19.5344 65.6477C19.5208 65.5959 19.4877 65.5514 19.442 65.5234C19.419 65.5099 19.3935 65.5011 19.367 65.4975C19.3405 65.4939 19.3136 65.4956 19.2877 65.5024C19.2619 65.5091 19.2376 65.521 19.2164 65.5371C19.1951 65.5533 19.1772 65.5734 19.1638 65.5965C18.7016 66.5716 17.6227 67.0445 16.9717 67.8717C16.9357 67.9109 16.9157 67.9622 16.9157 68.0155C16.9157 68.0687 16.9357 68.1201 16.9717 68.1593C17.0103 68.1967 17.062 68.2177 17.1157 68.2177C17.1695 68.2177 17.2212 68.1967 17.2598 68.1593V68.1544Z" fill="#483F3B"/>
<path d="M8.53551 34.5144C9.39312 33.5832 10.2752 32.6244 11.4273 32.0556C12.0529 31.7693 12.7077 31.5513 13.3801 31.4055C14.075 31.2333 14.7715 31.0691 15.4664 30.9034L17.8961 30.3248C18.1499 30.2647 18.0425 29.873 17.787 29.9332C16.33 30.2777 14.8735 30.626 13.4176 30.9781C12.746 31.1276 12.0887 31.3353 11.4533 31.5989C10.863 31.8699 10.3149 32.2246 9.82599 32.652C9.26813 33.146 8.74098 33.6735 8.24746 34.2316C8.07008 34.4234 8.35812 34.711 8.53551 34.5193V34.5144Z" fill="#483F3B"/>
<path d="M6.61846 32.0117C8.81376 32.0117 11.0123 31.8882 13.1702 31.4348C13.4257 31.3811 13.3183 30.9895 13.0612 31.0431C10.9456 31.4884 8.77796 31.607 6.61846 31.6054C6.56451 31.6054 6.51276 31.6268 6.47461 31.6649C6.43647 31.703 6.41504 31.7547 6.41504 31.8086C6.41504 31.8624 6.43647 31.9141 6.47461 31.9522C6.51276 31.9903 6.56451 32.0117 6.61846 32.0117Z" fill="#483F3B"/>
<path d="M1.24982 45.1459C2.60368 43.8247 3.67156 42.24 4.38737 40.49C4.48664 40.2478 4.09444 40.1422 3.99517 40.3811C3.30102 42.0649 2.26928 43.5891 0.963406 44.8599C0.774633 45.0419 1.06268 45.3296 1.24982 45.1459Z" fill="#483F3B"/>
<path d="M0.87877 41.4033C2.85601 41.2603 4.63797 40.3648 6.42155 39.5766C8.20514 38.7885 10.0392 38.2847 11.8244 37.568C12.8201 37.1853 13.7676 36.6879 14.6478 36.0859C14.8594 35.9364 14.6478 35.5837 14.4428 35.7348C12.8968 36.8269 11.0953 37.4315 9.32149 38.0376C8.44272 38.3383 7.5672 38.6471 6.71772 39.0127C5.82756 39.3914 4.9553 39.8139 4.057 40.1763C3.04153 40.5858 1.98375 40.919 0.885286 40.9986C0.624909 41.0165 0.623281 41.4228 0.885286 41.4049L0.87877 41.4033Z" fill="#483F3B"/>
<path d="M5.55905 47.1643C6.7161 45.7472 7.85037 44.3074 9.03997 42.9163C9.60734 42.2581 10.2109 41.632 10.848 41.0409C11.4647 40.4799 12.0386 39.8737 12.5648 39.2272C13.1358 38.5101 13.6351 37.7388 14.0555 36.9244C14.1759 36.692 13.8244 36.4856 13.7056 36.718C12.9443 38.1697 11.9386 39.4797 10.7324 40.5907C10.0906 41.1797 9.47948 41.8013 8.90165 42.4531C8.3337 43.1032 7.79178 43.7857 7.24336 44.4569L5.27264 46.8734C5.1099 47.075 5.39469 47.361 5.55905 47.1611V47.1643Z" fill="#483F3B"/>
<path d="M8.30925 48.2776C8.56475 47.348 8.84303 46.4217 9.06272 45.4823C9.25763 44.5436 9.3725 43.59 9.40609 42.6319C9.42236 42.3719 9.01552 42.3719 8.99925 42.6319C8.96655 43.5796 8.85001 44.5226 8.65099 45.4498C8.43293 46.3632 8.16279 47.2651 7.91705 48.1703C7.90472 48.2216 7.91287 48.2757 7.93976 48.3211C7.96665 48.3665 8.01018 48.3997 8.06114 48.4136C8.11209 48.4276 8.16648 48.4212 8.21279 48.3958C8.2591 48.3704 8.29369 48.328 8.30925 48.2776Z" fill="#483F3B"/>
<path d="M54.7491 15.7718C53.8964 15.1852 52.9867 14.5189 52.3846 13.6592C52.0412 13.1716 51.8866 12.5882 51.7059 12.034C51.5395 11.4955 51.3101 10.9784 51.0224 10.4934C50.4426 9.53711 49.629 8.7436 48.6579 8.18738C47.6164 7.59583 46.4398 7.31306 45.2714 7.08554C43.9402 6.82715 42.5732 6.63538 41.3185 6.09584C41.0809 5.99346 40.8726 6.34449 41.1135 6.44687C43.3267 7.39919 45.8556 7.28056 48.0346 8.32064C49.0672 8.812 49.9444 9.57779 50.57 10.5341C50.8821 11.023 51.1283 11.5508 51.3023 12.1039C51.4846 12.6646 51.6376 13.2561 51.9533 13.7567C52.5798 14.7318 53.5969 15.4761 54.5392 16.1245C54.7556 16.274 54.959 15.9213 54.7442 15.7735L54.7491 15.7718Z" fill="#483F3B"/>
<path d="M46.1127 7.23344C45.5129 6.84 44.9707 6.36526 44.5016 5.82283C44.046 5.29792 43.6392 4.68524 43.4781 4.00432C43.4195 3.74917 43.0273 3.85643 43.0858 4.11158C43.2583 4.84776 43.6928 5.50106 44.1794 6.06172C44.6778 6.64863 45.2575 7.1614 45.9012 7.58447C46.1209 7.72748 46.3243 7.37645 46.1062 7.23344H46.1127Z" fill="#483F3B"/>
<path d="M52.0721 13.0497C51.8329 12.0405 51.6165 10.9582 51.7271 9.91651C51.789 9.33634 52.0688 8.8813 52.4431 8.4539C52.8807 7.98705 53.2781 7.48419 53.6311 6.95066C54.0132 6.31189 54.2855 5.61372 54.4366 4.88512C54.4887 4.62998 54.0982 4.5211 54.0445 4.77624C53.9067 5.44825 53.6599 6.09326 53.3138 6.68576C52.9688 7.27406 52.5001 7.74697 52.0705 8.26863C51.6994 8.67431 51.4486 9.17511 51.3463 9.71499C51.276 10.2715 51.2799 10.8349 51.3577 11.3905C51.4328 11.9882 51.5415 12.5812 51.6832 13.1668C51.745 13.4203 52.1372 13.313 52.0754 13.0579L52.0721 13.0497Z" fill="#483F3B"/>
<path d="M51.3528 10.8396C50.6498 8.63103 49.9875 6.39974 49.0192 4.2887C48.9102 4.05143 48.5603 4.25782 48.6677 4.49347C49.6213 6.572 50.2674 8.77404 50.9607 10.9468C51.0388 11.1955 51.4326 11.0898 51.3528 10.8396Z" fill="#483F3B"/>
<path d="M50.1323 7.09205C50.7342 6.74766 51.2266 6.24071 51.553 5.62943C51.9256 4.93063 51.994 4.16682 52.0265 3.39164C52.0363 3.13162 51.6294 3.13162 51.6197 3.39164C51.5904 4.09532 51.5383 4.79087 51.2015 5.42304C50.9091 5.97151 50.4674 6.42618 49.9272 6.73452C49.8806 6.76167 49.8467 6.80621 49.833 6.85832C49.8193 6.91044 49.8268 6.96587 49.854 7.01242C49.8812 7.05896 49.9258 7.09282 49.978 7.10654C50.0302 7.12025 50.0857 7.1127 50.1323 7.08555V7.09205Z" fill="#483F3B"/>
<path d="M56.549 18.658C57.0177 16.2415 58.3765 14.1386 59.1251 11.8163C59.3408 11.16 59.4902 10.4838 59.571 9.79786C59.6019 9.53947 59.1951 9.54109 59.1642 9.79786C58.8859 12.2144 57.5645 14.3303 56.7231 16.5714C56.4788 17.2139 56.2878 17.8754 56.1519 18.5492C56.1031 18.8043 56.4936 18.9148 56.5441 18.658H56.549Z" fill="#483F3B"/>
<path d="M57.929 14.8114C59.2976 13.5275 61.5499 13.2448 62.3993 11.4116C62.5084 11.176 62.1569 10.968 62.0478 11.2052C61.6622 12.0389 60.8941 12.572 60.1097 12.9929C59.2569 13.456 58.3586 13.8461 57.6426 14.5172C57.4505 14.696 57.7386 14.9836 57.929 14.8049V14.8114Z" fill="#483F3B"/>
<path d="M56.6418 17.6277C57.7678 17.5282 58.8599 17.1915 59.846 16.6396C60.8078 16.0887 61.5222 15.0958 62.5979 14.7529C62.8453 14.6732 62.7394 14.2816 62.4888 14.3612C61.4245 14.7025 60.7345 15.6191 59.8086 16.1895C58.845 16.7689 57.7621 17.1218 56.6418 17.2214C56.383 17.2458 56.3814 17.6521 56.6418 17.6277Z" fill="#483F3B"/>
<path d="M12.9879 40.9856L12.8692 43.186C12.8548 43.9401 12.7681 44.6911 12.6104 45.4287C12.4347 46.1357 12.2117 46.8231 12.1092 47.5414C12.0054 48.2669 11.9835 49.0017 12.0441 49.7321C12.0669 49.9921 12.4737 49.9937 12.4509 49.7321C12.3876 48.999 12.41 48.2611 12.5176 47.5333C12.6299 46.7987 12.874 46.1015 13.04 45.3783C13.18 44.6665 13.2584 43.9439 13.2744 43.2186L13.3948 40.9791C13.4094 40.7175 13.0026 40.7175 12.9879 40.9791V40.9856Z" fill="#483F3B"/>
<path d="M12.7601 46.0154C14.5827 47.6178 14.5063 50.2683 14.171 52.4574C14.0571 53.2049 13.9188 53.9492 13.8146 54.7C13.7805 54.9552 14.1727 55.0657 14.2068 54.8073C14.5535 52.3111 15.2923 49.6622 14.1727 47.2521C13.9081 46.6718 13.5251 46.1532 13.0482 45.7294C12.8512 45.5571 12.5599 45.8431 12.7601 46.0154Z" fill="#483F3B"/>
<path d="M14.5095 49.5858C14.8697 49.8082 15.1953 50.0819 15.4762 50.3983C15.7745 50.7257 16.1381 50.987 16.5437 51.1654C16.5957 51.1794 16.6512 51.1725 16.6981 51.146C16.7449 51.1196 16.7795 51.0757 16.7943 51.024C16.8075 50.9721 16.8002 50.9172 16.7738 50.8705C16.7474 50.8239 16.7041 50.7893 16.6528 50.7738C16.2752 50.6275 15.9823 50.3301 15.7024 50.0489C15.4153 49.7313 15.083 49.4575 14.7162 49.2364C14.4851 49.1129 14.2784 49.4639 14.5095 49.5874V49.5858Z" fill="#483F3B"/>
<path d="M53.5839 15.5475H27.3835C27.1122 15.5475 26.8457 15.6186 26.6107 15.7538C26.3756 15.889 26.1802 16.0835 26.0442 16.3179L12.9489 38.8388C12.8122 39.075 12.7402 39.3429 12.7402 39.6156C12.7402 39.8884 12.8122 40.1563 12.9489 40.3924L26.0442 62.9134C26.1806 63.1474 26.3761 63.3417 26.611 63.4768C26.846 63.612 27.1123 63.6833 27.3835 63.6837H53.5839C53.8551 63.6833 54.1214 63.612 54.3564 63.4768C54.5914 63.3417 54.7868 63.1474 54.9232 62.9134L68.0186 40.3924C68.1553 40.1563 68.2273 39.8884 68.2273 39.6156C68.2273 39.3429 68.1553 39.075 68.0186 38.8388L54.9232 16.313C54.7866 16.0795 54.5909 15.886 54.3559 15.7517C54.1209 15.6174 53.8547 15.547 53.5839 15.5475Z" stroke="#483F3B" stroke-width="2" stroke-miterlimit="10"/>
<path d="M27.6472 39.9147C27.6472 41.3545 28.3941 42.2353 29.5137 42.2353C30.2086 42.2353 31.836 41.3204 31.836 40.0333V34.6704L30.6496 34.5079V34.2544H36.9231V34.5079L35.7367 34.6704V45.6774L36.9231 45.8399V46.0934H30.6496V45.8399L31.836 45.6774V41.3204C31.5105 42.0322 30.1565 42.6758 28.8856 42.6758C26.0035 42.6758 23.7643 41.1693 23.7643 38.4423V34.6655L22.5779 34.503V34.2495H28.8351V34.503L27.6472 34.6655V39.9147Z" fill="#483F3B"/>
<path d="M46.5131 46.0966L41.9353 35.7999V45.6725L43.2747 45.835V46.0885H40.2396V45.835L41.426 45.6725V34.6655L40.2559 34.503V34.2495H45.496L49.4309 43.0544L53.4668 34.2495H58.5539V34.503L57.3659 34.6655V45.6725L58.5539 45.835V46.0885H52.1258V45.835L53.4668 45.6725V35.5301L48.6498 46.0934L46.5131 46.0966Z" fill="#483F3B"/>
</g>
<defs>
<clipPath id="clip0_11_1393">
<rect width="79" height="77" fill="white"/>
</clipPath>
</defs>
</svg>
